<svg width="106" height="106" viewBox="0 0 106 106" fill="none" xmlns="http://www.w3.org/2000/svg">
<path d="M47.7201 0.188524C47.6258 0.329917 47.284 0.400614 46.3058 0.47131C45.5869 0.518441 44.8208 0.62449 44.5969 0.695186C44.3729 0.765883 43.9722 0.8248 43.713 0.8248C43.4537 0.8248 43.0294 0.907276 42.7701 1.00155C42.5108 1.09581 42.0865 1.1665 41.8272 1.17828C41.568 1.17828 41.2262 1.26077 41.0612 1.35503C40.8962 1.44929 40.5544 1.53177 40.2951 1.53177C40.0358 1.53177 39.694 1.61425 39.529 1.70852C39.3641 1.80278 39.0812 1.88526 38.8808 1.88526C38.6923 1.88526 38.4212 1.96774 38.3033 2.062C38.1737 2.15626 37.9026 2.23875 37.7023 2.23875C37.5019 2.23875 37.2898 2.28588 37.2308 2.34479C37.1601 2.41549 36.9008 2.50975 36.6416 2.58045C36.2055 2.68649 35.9934 2.74541 34.9326 3.12246C33.9544 3.47595 32.6462 3.9944 31.7505 4.38323C31.1495 4.65424 27.5313 6.44523 27.0598 6.71624C26.8831 6.8105 26.4823 7.04616 26.1523 7.2229C25.8341 7.39965 25.4098 7.64709 25.2095 7.77669C25.0209 7.90631 24.7027 8.09483 24.5024 8.20088C24.3138 8.30693 24.0191 8.49545 23.8541 8.62507C23.4063 8.96676 22.7699 9.39095 22.3927 9.61483C22.2042 9.72088 21.7799 10.0154 21.4499 10.2629C21.1199 10.5103 20.4834 10.9934 20.0356 11.3351C19.5877 11.6768 18.8335 12.3131 18.3738 12.7491C17.9142 13.1968 17.4899 13.5503 17.4428 13.5503C17.207 13.5503 13.2471 17.5094 13.2471 17.745C13.2471 17.7921 12.8935 18.2163 12.4456 18.6759C12.0096 19.1354 11.3731 19.8895 11.0314 20.3372C10.6896 20.785 10.2064 21.4213 9.95887 21.7512C9.71137 22.0811 9.41673 22.5053 9.31066 22.6938C9.08673 23.0709 8.66245 23.7071 8.32066 24.1549C8.19102 24.3199 8.00245 24.6026 7.89638 24.803C7.79031 24.9915 7.60174 25.3096 7.4721 25.5099C7.34246 25.6985 7.09496 26.1226 6.91817 26.4526C6.74139 26.7707 6.50568 27.1831 6.41139 27.3598C6.14032 27.8312 4.3489 31.4485 4.07783 32.0494C3.68891 32.9449 3.17034 34.2528 2.81677 35.2308C2.43963 36.2913 2.3807 36.5034 2.27463 36.9393C2.20392 37.1985 2.10963 37.4578 2.03892 37.5167C1.97999 37.5874 1.93285 37.7995 1.93285 37.9998C1.93285 38.2001 1.85035 38.4711 1.75606 38.6007C1.66178 38.7185 1.57928 38.9778 1.57928 39.1781C1.57928 39.3666 1.49678 39.6612 1.40249 39.8261C1.30821 39.9911 1.22571 40.3328 1.22571 40.592C1.22571 40.8512 1.14321 41.1929 1.04892 41.3579C0.954637 41.5229 0.872138 41.8646 0.872138 42.1238C0.860352 42.383 0.789638 42.8072 0.695353 43.0664C0.601068 43.3256 0.518568 43.7498 0.518568 44.009C0.518568 44.2683 0.45964 44.6689 0.388926 44.8928C0.106071 45.7765 0 48.0859 0 53.0819C0 58.1131 0.106071 60.4815 0.388926 61.1885C0.45964 61.377 0.518568 61.7658 0.518568 62.0722C0.530354 62.3786 0.601068 62.8381 0.695353 63.0973C0.789638 63.3565 0.872138 63.7336 0.872138 63.9457C0.872138 64.146 0.931066 64.4641 1.00178 64.6526C1.08428 64.8294 1.17856 65.2182 1.23749 65.5128C1.35535 66.2316 1.57928 67.021 1.76785 67.4923C1.86213 67.7044 1.93285 67.999 1.93285 68.1522C1.93285 68.3053 2.01535 68.5881 2.10963 68.7649C2.20392 68.9534 2.28641 69.1891 2.28641 69.2951C2.28641 69.4011 2.36891 69.6486 2.4632 69.8253C2.55748 70.0139 2.63998 70.2495 2.63998 70.3556C2.63998 70.4616 2.72248 70.709 2.81677 70.8858C2.91105 71.0743 2.99355 71.3218 2.99355 71.4278C2.99355 71.5338 3.0407 71.6517 3.09962 71.687C3.15855 71.7224 3.24105 71.8991 3.28819 72.0759C3.32355 72.2644 3.52391 72.7357 3.71248 73.1481C3.90105 73.5487 4.05426 73.9376 4.05426 73.9965C4.05426 74.0672 4.1014 74.2086 4.16033 74.3264C4.21926 74.4324 4.7614 75.5047 5.35068 76.7065C5.93996 77.8966 6.58817 79.1102 6.77675 79.393C6.96532 79.664 7.11853 79.935 7.11853 79.9822C7.11853 80.0293 7.36603 80.4299 7.66067 80.8894C7.95531 81.3372 8.27352 81.8556 8.36781 82.0324C8.45031 82.1973 8.60352 82.4094 8.68602 82.5037C8.7803 82.598 8.9453 82.8336 9.05137 83.0457C9.15745 83.246 9.34602 83.4699 9.47566 83.5406C9.6053 83.6113 9.71137 83.7527 9.71137 83.8587C9.71137 84.0708 10.5717 85.2373 11.9389 86.8987C13.0467 88.242 17.6078 92.8609 18.3149 93.3557C18.6095 93.556 19.1399 93.992 19.5052 94.3219C20.672 95.3588 24.2902 97.9039 24.8913 98.116C25.0091 98.1514 25.1859 98.2692 25.3038 98.3752C25.6456 98.6698 26.9184 99.3532 29.3934 100.579C30.6545 101.191 31.7977 101.757 31.9273 101.804C32.3869 102.004 32.9998 102.252 33.5184 102.452C33.813 102.558 34.2137 102.723 34.4023 102.806C34.6026 102.888 34.9326 102.994 35.133 103.029C35.3451 103.077 35.5455 103.171 35.5809 103.23C35.628 103.289 35.7694 103.336 35.9109 103.336C36.0523 103.336 36.3234 103.418 36.5119 103.513C36.6887 103.607 36.9598 103.689 37.1012 103.689C37.2308 103.701 37.4783 103.772 37.6433 103.866C37.8083 103.96 38.103 104.043 38.2916 104.043C38.4919 104.043 38.7512 104.125 38.8691 104.22C38.9987 104.314 39.2933 104.396 39.5173 104.396C39.753 104.408 40.0712 104.479 40.2362 104.573C40.4012 104.667 40.743 104.75 41.0023 104.75C41.2615 104.75 41.6033 104.832 41.7683 104.927C41.9333 105.021 42.3105 105.091 42.6051 105.103C42.9115 105.103 43.383 105.186 43.654 105.28C43.9251 105.374 44.4319 105.457 44.7854 105.457C45.1272 105.457 45.5515 105.516 45.7401 105.586C47.0129 106.093 58.8339 106.093 59.765 105.586C59.9064 105.516 60.3425 105.457 60.7432 105.457C61.1321 105.457 61.6507 105.374 61.8864 105.28C62.1103 105.186 62.5346 105.103 62.8057 105.103C63.0768 105.103 63.501 105.021 63.725 104.927C63.9607 104.832 64.3143 104.75 64.5146 104.75C64.715 104.75 64.986 104.691 65.1157 104.62C65.2453 104.549 65.5989 104.455 65.9053 104.396C66.5771 104.267 67.3785 104.066 67.9325 103.866C68.1564 103.784 68.5335 103.654 68.7574 103.583C68.9814 103.501 69.3349 103.395 69.5235 103.336C70.0892 103.183 70.6785 102.971 71.0321 102.794C71.2206 102.7 71.4446 102.629 71.5389 102.629C71.6331 102.629 71.7981 102.582 71.916 102.511C72.1399 102.393 72.5524 102.216 73.7074 101.745C74.8978 101.25 77.5495 99.9541 78.6927 99.2825C79.2702 98.9526 79.8831 98.6109 80.0481 98.5166C81.1442 97.9393 84.9509 95.2763 85.4223 94.7461C85.552 94.6047 85.717 94.4987 85.7995 94.4987C85.882 94.4987 86.3652 94.1098 86.872 93.6385C87.3788 93.1672 88.0623 92.5781 88.3805 92.3188C89.288 91.6119 91.0912 89.8209 91.8337 88.9018C92.1991 88.4423 92.8827 87.6646 93.3541 87.1579C93.8255 86.6513 94.2144 86.1682 94.2144 86.0857C94.2144 86.0032 94.3205 85.8383 94.4619 85.7086C94.9923 85.2373 97.6558 81.4315 98.2333 80.3357C98.3276 80.1707 98.6694 79.558 98.9994 78.9806C99.6712 77.8377 100.968 75.1865 101.463 73.9965C101.934 72.8417 102.111 72.4293 102.229 72.2055C102.299 72.0876 102.347 71.9227 102.347 71.8284C102.347 71.7342 102.417 71.5103 102.512 71.3218C102.688 70.9683 102.9 70.3791 103.054 69.8135C103.113 69.6132 103.219 69.2715 103.301 69.0477C103.372 68.8238 103.502 68.4467 103.584 68.2229C103.784 67.6691 103.985 66.8678 104.114 66.1962C104.173 65.8898 104.268 65.5364 104.338 65.4067C104.409 65.2771 104.468 65.0061 104.468 64.8058C104.468 64.6055 104.55 64.252 104.645 64.0164C104.739 63.7925 104.822 63.3683 104.822 63.0973C104.822 62.8263 104.904 62.4021 104.998 62.1782C105.093 61.9426 105.175 61.4241 105.175 61.0353C105.175 60.6347 105.234 60.1987 105.305 60.0573C105.423 59.857 105.611 57.4297 105.647 55.8744C105.647 55.7212 105.717 55.6152 105.823 55.6152C105.977 55.6152 106 55.2499 106 53.0819C106 51.0316 105.965 50.5485 105.835 50.5485C105.67 50.5485 105.529 49.3349 105.529 47.7796C105.529 47.32 105.446 46.6602 105.352 46.3067C105.258 45.9532 105.175 45.3876 105.175 45.0577C105.175 44.7278 105.093 44.2211 104.998 43.9501C104.904 43.6791 104.822 43.2078 104.822 42.9015C104.81 42.6069 104.739 42.2298 104.645 42.0649C104.55 41.8999 104.468 41.5582 104.468 41.299C104.468 41.0398 104.385 40.6981 104.291 40.5331C104.197 40.3681 104.126 40.05 104.114 39.8143C104.114 39.5905 104.032 39.2959 103.938 39.1663C103.843 39.0485 103.761 38.7774 103.761 38.5889C103.761 38.3886 103.678 38.1058 103.584 37.9409C103.49 37.7759 103.419 37.5285 103.407 37.3989C103.407 37.2575 103.325 36.9865 103.23 36.8097C103.136 36.6212 103.054 36.3502 103.054 36.2088C103.054 36.0674 103.007 35.926 102.948 35.8789C102.889 35.8435 102.794 35.6432 102.747 35.4311C102.712 35.2308 102.606 34.9009 102.523 34.7006C102.441 34.512 102.276 34.1114 102.17 33.8169C101.969 33.2984 101.722 32.6857 101.522 32.2262C101.474 32.0966 100.909 30.9536 100.296 29.6928C99.0701 27.2184 98.3866 25.9459 98.0919 25.6042C97.9858 25.4864 97.868 25.3096 97.8326 25.1918C97.6205 24.5909 95.0748 20.9735 94.0376 19.807C93.7077 19.4417 93.2716 18.9115 93.0712 18.6169C92.5762 17.91 87.9563 13.35 86.6127 12.2424C84.9509 10.8756 83.7841 10.0154 83.572 10.0154C83.4659 10.0154 83.3245 9.9094 83.2538 9.77979C83.1831 9.65017 82.9591 9.46165 82.747 9.35561C82.5349 9.24956 82.2402 9.04925 82.0752 8.93142C81.6509 8.60149 79.7888 7.42321 79.6945 7.42321C79.6474 7.42321 79.3763 7.27003 79.1052 7.08151C78.8224 6.89298 77.6085 6.24492 76.4181 5.65578C75.216 5.06664 74.1435 4.52462 74.0374 4.46571C73.9196 4.4068 73.7781 4.35966 73.7074 4.35966C73.6485 4.35966 73.2596 4.20649 72.8588 4.01796C72.4463 3.82943 71.9749 3.62913 71.7864 3.59377C71.6096 3.54664 71.4328 3.46416 71.3974 3.40525C71.3621 3.34633 71.2442 3.2992 71.1381 3.2992C71.0321 3.2992 70.7846 3.21673 70.596 3.12246C70.4192 3.02819 70.1717 2.94572 70.0656 2.94572C69.9596 2.94572 69.7239 2.86324 69.5353 2.76897C69.3585 2.67471 69.111 2.59223 69.0049 2.59223C68.8989 2.59223 68.6632 2.50975 68.4746 2.41549C68.2978 2.32122 68.0149 2.23875 67.8617 2.23875C67.7085 2.23875 67.4139 2.16805 67.2017 2.07379C66.7303 1.88526 65.9407 1.66138 65.2218 1.54355C64.9271 1.48464 64.5382 1.39038 64.3614 1.3079C64.1728 1.2372 63.8546 1.17828 63.6543 1.17828C63.4421 1.17828 63.065 1.09581 62.8057 1.00155C62.5464 0.907276 62.0986 0.836579 61.8039 0.8248C61.5093 0.8248 61.0143 0.742317 60.6961 0.648055C60.3779 0.553793 59.765 0.459531 59.3407 0.459531C58.3743 0.435966 57.8439 0.329917 57.8793 0.141393C57.9029 0.0353444 56.7243 0 52.8704 0C48.4154 0 47.8261 0.0235655 47.7201 0.188524ZM58.1857 2.07379C58.6336 2.16805 59.27 2.23875 59.6 2.23875C59.9418 2.23875 60.5075 2.32122 60.8611 2.41549C61.2146 2.50975 61.7096 2.59223 61.9571 2.59223C62.2046 2.59223 62.5228 2.65115 62.6525 2.72184C62.7939 2.80433 63.2064 2.89859 63.56 2.9575C64.1964 3.03998 64.5735 3.13424 65.9289 3.49951C67.4375 3.91191 67.8971 4.05331 68.2507 4.20649C68.451 4.28897 68.6985 4.35966 68.7928 4.35966C68.8871 4.35966 69.1228 4.44214 69.2996 4.5364C69.4882 4.63067 69.7239 4.71315 69.8299 4.71315C69.936 4.71315 70.1835 4.79563 70.3603 4.88989C70.5489 4.98415 70.7846 5.06664 70.8906 5.06664C70.9849 5.06664 71.1146 5.11377 71.1853 5.1609C71.2442 5.21981 71.5624 5.36121 71.8806 5.47904C74.0846 6.26849 78.516 8.58972 81.1324 10.31C82.0399 10.9109 82.3463 11.1348 83.7959 12.2188C84.2556 12.5605 84.6916 12.8433 84.7623 12.8433C84.8331 12.8433 84.9509 12.9376 85.0098 13.0554C85.0806 13.1733 85.5991 13.6564 86.1766 14.1159C87.4613 15.141 90.7612 18.4166 91.492 19.3828C91.7748 19.7717 92.2698 20.349 92.5644 20.6789C92.8709 20.9971 93.2598 21.4802 93.4366 21.7394C93.6134 21.9986 93.9669 22.5053 94.2262 22.8588C95.063 24.0135 96.4066 26.0755 97.1019 27.2774C98.4219 29.5515 100.178 33.2866 100.873 35.2897C100.979 35.6078 101.121 35.9849 101.168 36.1145C101.38 36.6447 101.628 37.4342 101.698 37.7877C101.745 37.9998 101.828 38.2001 101.887 38.2354C101.946 38.2826 101.993 38.4475 101.993 38.6243C101.993 38.801 102.075 39.0956 102.17 39.2841C102.264 39.4609 102.347 39.7436 102.347 39.8968C102.347 40.05 102.417 40.3799 102.512 40.6156C102.606 40.863 102.712 41.3226 102.747 41.6525C102.794 41.9706 102.877 42.2887 102.936 42.3477C103.007 42.4184 103.054 42.6776 103.054 42.9368C103.065 43.2078 103.136 43.632 103.23 43.8912C103.325 44.1504 103.407 44.5982 103.407 44.8928C103.407 45.1873 103.466 45.6115 103.525 45.8354C103.596 46.0593 103.702 46.8841 103.761 47.6617C103.832 48.4394 103.926 49.5823 103.997 50.1951C104.138 51.6561 104.138 54.5429 103.985 56.0276C103.926 56.6756 103.82 57.7597 103.761 58.4431C103.655 59.8099 103.478 60.941 103.219 62.0958C103.124 62.5199 103.054 63.0148 103.054 63.1916C103.054 63.3683 102.971 63.71 102.877 63.9457C102.783 64.1695 102.7 64.5348 102.7 64.7469C102.7 64.959 102.618 65.2889 102.523 65.4657C102.429 65.6542 102.347 65.9723 102.347 66.1844C102.347 66.3847 102.299 66.585 102.24 66.6322C102.17 66.6675 102.087 66.9385 102.04 67.2449C101.993 67.5394 101.887 67.9283 101.804 68.0932C101.71 68.2582 101.639 68.4821 101.639 68.5763C101.628 68.7413 101.357 69.5543 101.074 70.2613C100.991 70.4498 100.932 70.6383 100.932 70.6973C100.932 70.7562 100.85 71.0036 100.744 71.2511C100.638 71.4985 100.508 71.8049 100.449 71.9345C99.8833 73.3248 99.3176 74.621 99.0937 75.0569C98.9405 75.3515 98.8108 75.6225 98.8108 75.6579C98.8108 75.705 98.5633 76.1763 98.2687 76.7183C97.9623 77.2603 97.5616 78.0026 97.373 78.3561C96.878 79.2988 95.4401 81.6436 95.1809 81.9381C95.063 82.0677 94.568 82.7276 94.0848 83.3992C93.6016 84.0708 93.0123 84.8838 92.7648 85.2255C91.5155 86.9576 86.6716 91.8004 84.9391 93.0494C84.5973 93.2968 83.7841 93.886 83.1124 94.3691C82.4406 94.8522 81.7806 95.347 81.6509 95.4649C81.1677 95.9008 76.1588 98.7994 75.4163 99.0822C75.3574 99.1058 74.8742 99.3297 74.3556 99.5653C73.8371 99.8128 73.071 100.154 72.6467 100.319C72.2224 100.496 71.7746 100.685 71.6449 100.732C71.5153 100.791 71.2089 100.92 70.9614 101.026C70.7139 101.132 70.4664 101.215 70.4074 101.215C70.3485 101.215 70.1599 101.274 69.9714 101.356C69.2642 101.639 68.451 101.91 68.286 101.922C68.1917 101.922 67.9678 101.993 67.8028 102.087C67.6378 102.169 67.2489 102.275 66.9542 102.323C66.6478 102.37 66.3767 102.452 66.3414 102.523C66.2942 102.582 66.0939 102.629 65.8935 102.629C65.6814 102.629 65.3632 102.711 65.1746 102.806C64.9978 102.9 64.6678 102.982 64.4557 102.982C64.2435 102.982 63.8782 103.065 63.6543 103.159C63.4185 103.253 63.0768 103.336 62.9 103.336C62.7232 103.336 62.2282 103.407 61.8039 103.501C60.6489 103.76 59.5175 103.937 58.1504 104.043C57.4668 104.102 56.3825 104.208 55.7343 104.267C54.2493 104.42 51.3618 104.42 49.9004 104.278C49.2876 104.208 48.1444 104.114 47.3665 104.043C46.5886 103.984 45.7637 103.878 45.5397 103.807C45.3158 103.748 44.8915 103.689 44.5969 103.689C44.3022 103.689 43.8544 103.607 43.5951 103.513C43.3358 103.418 42.9115 103.348 42.6522 103.336C42.3812 103.336 42.1219 103.289 42.0512 103.218C41.9922 103.159 41.674 103.077 41.3558 103.029C41.0258 102.994 40.5662 102.888 40.3187 102.794C40.083 102.7 39.753 102.629 39.5998 102.629C39.4465 102.629 39.1637 102.546 38.9869 102.452C38.7983 102.358 38.5273 102.275 38.3976 102.275C38.2562 102.275 37.9851 102.193 37.8083 102.099C37.6198 102.004 37.3841 101.922 37.2898 101.922C37.1012 101.91 36.0169 101.557 35.8166 101.427C35.7576 101.392 35.5101 101.321 35.2862 101.274C35.0623 101.227 34.803 101.144 34.6969 101.085C34.6026 101.026 33.8012 100.685 32.9291 100.319C29.3345 98.823 25.6809 96.7846 22.5577 94.5105C22.2042 94.2512 21.6974 93.8977 21.4381 93.721C21.1788 93.5443 20.7074 93.1554 20.3774 92.8491C20.0592 92.5545 19.4699 92.0596 19.081 91.7768C18.1145 91.0463 14.8381 87.7471 13.8128 86.4628C13.3531 85.8854 12.8699 85.3669 12.7521 85.2962C12.6342 85.2373 12.5399 85.1195 12.5399 85.0488C12.5399 84.9781 12.2571 84.5421 11.9153 84.0826C10.831 82.6333 10.6071 82.327 10.006 81.4197C8.28531 78.8039 5.96354 74.3735 5.1739 72.1701C5.05604 71.8402 4.91461 71.5338 4.85568 71.4631C4.80854 71.4042 4.7614 71.2746 4.7614 71.1686C4.7614 71.0743 4.6789 70.8387 4.58462 70.6501C4.49033 70.4734 4.40783 70.2259 4.40783 70.1199C4.40783 70.0139 4.32533 69.7782 4.23105 69.5897C4.13676 69.4129 4.05426 69.1773 4.05426 69.083C4.05426 68.9887 3.98355 68.7413 3.90105 68.541C3.74783 68.1875 3.60641 67.728 3.19391 66.2198C2.82855 64.8647 2.73427 64.4877 2.65177 63.8514C2.59284 63.4979 2.49856 63.0855 2.41606 62.9441C2.34534 62.8145 2.28641 62.4964 2.28641 62.2489C2.28641 62.0015 2.20392 61.5066 2.10963 61.1531C2.01535 60.7996 1.93285 60.2341 1.93285 59.8924C1.93285 59.5624 1.85035 58.8908 1.74428 58.4195C1.46142 57.1587 1.46142 49.0521 1.74428 47.6617C1.85035 47.1433 1.93285 46.4481 1.93285 46.13C1.93285 45.8 2.01535 45.2816 2.10963 44.9635C2.20392 44.6453 2.28641 44.1858 2.28641 43.9501C2.28641 43.7027 2.36891 43.2785 2.4632 43.0075C2.55748 42.7365 2.63998 42.3594 2.63998 42.1827C2.63998 42.006 2.72248 41.6643 2.81677 41.4404C2.91105 41.2047 2.99355 40.8395 2.99355 40.6156C2.99355 40.4035 3.0407 40.1796 3.11141 40.1089C3.17034 40.05 3.27641 39.7554 3.33534 39.4726C3.52391 38.6243 3.72426 37.9055 3.88926 37.5049C3.98355 37.3046 4.05426 37.0336 4.05426 36.9158C4.05426 36.7979 4.1014 36.6447 4.16033 36.5741C4.21926 36.5151 4.32533 36.2795 4.38426 36.0556C4.52569 35.5725 5.06783 34.0996 5.22104 33.7579C5.49211 33.1924 5.82211 32.4147 5.82211 32.344C5.82211 32.2969 6.28175 31.3542 6.83567 30.2466C7.87281 28.1729 8.98066 26.2523 9.9353 24.8265C10.2299 24.3788 10.6071 23.8132 10.7721 23.5775C11.2789 22.8234 11.8799 22.0104 12.2571 21.5744C12.4574 21.3388 12.7874 20.9146 12.9996 20.62C14.0721 19.1 18.9395 14.2337 20.2595 13.35C20.5188 13.185 20.9431 12.8551 21.2024 12.6195C22.1217 11.8064 24.1016 10.4632 26.4941 9.0139C28.0263 8.09483 31.2084 6.4688 32.4577 5.96213C32.8819 5.78539 33.3298 5.59687 33.4594 5.53795C33.7894 5.37299 35.2626 4.83098 35.7576 4.68958C35.9816 4.63067 36.2173 4.52462 36.288 4.46571C36.3469 4.4068 36.5001 4.35966 36.618 4.35966C36.7359 4.35966 37.0069 4.28897 37.2073 4.1947C37.608 4.02974 38.3269 3.82943 39.1755 3.64091C39.4583 3.582 39.753 3.47595 39.8119 3.41703C39.8826 3.34633 40.1065 3.2992 40.3187 3.2992C40.5426 3.2992 40.908 3.21673 41.1437 3.12246C41.3676 3.02819 41.7094 2.94572 41.8862 2.94572C42.063 2.94572 42.4401 2.86324 42.7112 2.76897C42.9822 2.67471 43.4065 2.59223 43.654 2.59223C43.8897 2.59223 44.3494 2.50975 44.6676 2.41549C44.9858 2.32122 45.5397 2.23875 45.8933 2.23875C46.2469 2.23875 46.7536 2.17983 47.0129 2.10913C48.3211 1.76743 56.5711 1.73208 58.1857 2.07379Z" fill="black"/>
<path d="M50.8787 5.64401C50.643 5.84432 50.6076 5.97393 50.6194 6.73982C50.6194 7.55283 50.7373 8.75469 50.9141 9.86228C51.0319 10.6517 50.7255 10.5103 50.0066 9.46166C49.6648 8.96678 49.2287 8.3305 49.0284 8.0595C48.828 7.78849 48.3801 7.164 48.0266 6.66912C47.343 5.72649 47.2487 5.67936 46.3059 5.75005C45.5869 5.82075 45.3866 6.16245 45.5398 7.03439C45.6105 7.41144 45.7166 8.75469 45.7755 10.0155C45.8227 11.2762 45.9052 12.3956 45.9523 12.5134C45.9877 12.6195 46.0702 13.0672 46.1055 13.515L46.188 14.3162L46.5887 14.3516C47.2841 14.4223 47.7437 14.2809 47.8026 13.9863C47.8498 13.6799 47.7319 11.3587 47.6023 10.2158C47.5434 9.73267 47.5552 9.42631 47.6259 9.42631C47.6848 9.42631 47.9441 9.72088 48.2034 10.0862C48.4509 10.4514 48.8044 10.8992 48.993 11.0877C49.1698 11.2762 49.3112 11.4765 49.3112 11.5354C49.3112 11.6768 50.4308 13.1968 50.8669 13.6328C51.1851 13.9627 51.3266 14.0216 51.7862 14.0216C52.2341 14.0216 52.3873 13.9627 52.6583 13.6917L52.9765 13.35L52.8587 12.3013C52.7998 11.724 52.7055 10.5928 52.6701 9.7798C52.6348 8.96678 52.5287 7.67066 52.458 6.89299L52.3165 5.47905L51.7273 5.45548C51.2912 5.43192 51.0673 5.47905 50.8787 5.64401Z" fill="black"/>
<path d="M55.7107 5.71468C55.5575 5.82073 55.4397 6.03282 55.4397 6.186C55.4397 6.33918 55.3572 6.77514 55.2629 7.15219C55.1686 7.51746 55.0861 8.07126 55.0861 8.36583C55.0743 8.6604 55.0036 9.2142 54.9093 9.60303C54.815 9.99187 54.7325 10.5692 54.7325 10.8991C54.7325 11.2173 54.65 11.8064 54.5557 12.1953C54.3436 13.0672 54.3318 13.7153 54.5322 13.8684C54.6029 13.9391 54.8857 14.0216 55.145 14.057C55.4043 14.1041 55.8875 14.1866 56.2057 14.2573C56.5357 14.328 57.4314 14.3869 58.2093 14.3987C59.4114 14.4222 59.6943 14.3869 60.0361 14.1984C61.3914 13.4442 62.1693 11.8064 62.181 9.66195C62.181 9.03745 61.9571 8.10661 61.686 7.59994C61.2853 6.85762 60.3307 6.17422 59.5646 6.06817C59.27 6.02104 58.9046 5.95034 58.7396 5.89143C58.5746 5.83251 58.0443 5.76182 57.5611 5.72647C57.0779 5.69112 56.5239 5.6322 56.3236 5.59685C56.0879 5.54972 55.8757 5.58507 55.7107 5.71468ZM59.1521 7.78847C60.2364 8.30692 60.4486 9.08459 60.0125 11.017C59.6707 12.5841 59.0107 12.9965 57.3843 12.6901C56.6064 12.5488 56.5593 12.5134 56.5239 12.1953C56.5004 12.0185 56.5357 11.6415 56.6182 11.3822C56.6889 11.1112 56.795 10.4161 56.8539 9.83869C56.9954 8.55436 57.125 7.7649 57.2546 7.55281C57.4079 7.31715 58.445 7.44677 59.1521 7.78847Z" fill="black"/>
<path d="M41.5325 6.7987C41.179 6.92831 41.0729 7.19932 41.1436 7.82381C41.179 8.15373 41.285 8.56613 41.3675 8.74287C41.4618 8.91962 41.5325 9.22597 41.5325 9.42628C41.5325 9.62659 41.615 9.98007 41.7093 10.2157C41.8036 10.4396 41.8861 10.7931 41.8861 10.9816C41.8861 11.1701 41.9686 11.5118 42.0629 11.7475C42.1572 11.9714 42.2397 12.3602 42.2397 12.5959C42.2515 12.8315 42.3222 13.1497 42.4165 13.3146C42.5107 13.4796 42.5815 13.7859 42.5932 13.9863C42.5932 14.5636 42.935 15.3177 43.1825 15.3177C43.3122 15.3177 43.4418 15.2588 43.4772 15.1999C43.5125 15.1292 43.7247 15.0821 43.9368 15.0821C44.4907 15.0821 44.7618 14.8464 44.6911 14.4222C44.5968 13.9273 44.3729 12.9847 44.1725 12.3602C44.0782 12.0539 44.0075 11.665 44.0075 11.5001C44.0075 11.3233 43.925 10.9934 43.8307 10.7577C43.7364 10.5339 43.6539 10.1804 43.6539 9.99186C43.6539 9.80333 43.5714 9.46163 43.4772 9.22597C43.3829 9.0021 43.3004 8.67218 43.3004 8.49543C43.3004 8.07125 42.8997 6.95187 42.6993 6.82226C42.5225 6.71622 41.8154 6.69265 41.5325 6.7987Z" fill="black"/>
<path d="M64.8092 7.30538C64.6913 7.43499 64.5617 7.72957 64.5145 7.97701C64.4556 8.22445 64.3613 8.6015 64.2906 8.80181C64.2199 9.0139 64.102 9.36739 64.0313 9.5677C63.9606 9.77979 63.8545 10.1686 63.8074 10.4278C63.7602 10.6871 63.6542 11.0877 63.5717 11.3116C63.2299 12.3013 63.1827 12.4545 63.112 12.9022C63.0649 13.1615 62.9588 13.4914 62.8881 13.6328C62.8056 13.7742 62.7467 14.0098 62.7467 14.163C62.7467 14.3162 62.6877 14.5047 62.6288 14.5636C62.4167 14.7757 62.7467 15.3177 63.1238 15.4002C63.3124 15.4356 63.4892 15.518 63.5245 15.5652C63.7249 15.9069 64.432 15.412 64.5499 14.8464C64.6088 14.5636 64.6795 14.3398 64.9859 13.4325C65.0684 13.2086 65.1745 12.808 65.2217 12.5488C65.2688 12.2895 65.3749 11.9007 65.4456 11.6886C65.7874 10.6989 65.8463 10.5221 65.9288 10.1333C66.1645 9.17886 66.3177 8.63685 66.4827 8.22445C66.6949 7.706 66.6359 7.57639 65.9995 7.2936C65.3749 7.01081 65.0684 7.01081 64.8092 7.30538Z" fill="black"/>
<path d="M34.579 9.01392C34.2725 9.17888 32.7168 9.89764 32.6343 9.89764C32.6108 9.89764 32.21 10.0744 31.7268 10.2983C31.2554 10.5103 30.7486 10.7224 30.6072 10.7696C29.959 10.9699 29.9943 11.1466 31.279 13.9627C31.4558 14.3516 31.8211 15.1999 32.104 15.8362C32.375 16.4725 32.6461 17.0852 32.6933 17.1912C32.7522 17.2973 32.9054 17.6272 33.0468 17.9453C33.3768 18.6523 33.6479 18.8055 34.2136 18.617C34.4611 18.5463 34.7793 18.3813 34.9325 18.2635C35.18 18.075 35.2036 18.016 35.0857 17.7686C35.0032 17.6272 34.8382 17.2266 34.6968 16.9085C34.5554 16.5785 34.3079 16.0483 34.1429 15.7066C33.9779 15.3767 33.86 15.0468 33.8954 14.9643C33.919 14.8936 34.355 14.6461 34.8736 14.4223C36.4647 13.7389 36.9361 13.5032 36.9361 13.3736C36.9361 13.1733 36.4175 12.3485 36.2289 12.2189C36.0875 12.1364 35.6868 12.266 34.7557 12.6548C34.0486 12.9612 33.365 13.1968 33.2354 13.1733C32.929 13.1261 32.4693 12.0893 32.6343 11.83C32.705 11.7358 33.4357 11.3469 34.2725 10.9817C35.8754 10.2629 36.0639 10.0979 35.8518 9.54415C35.5925 8.86074 35.1565 8.684 34.579 9.01392Z" fill="black"/>
<path d="M68.7575 11.5708C67.4257 12.8905 65.9997 14.2691 65.5989 14.6461C65.1982 15.0114 64.8682 15.3885 64.8682 15.4827C64.8682 15.6948 65.2218 15.9894 65.6107 16.0836C65.7875 16.1308 65.9643 16.2133 65.9997 16.2722C66.1764 16.555 66.6125 16.3429 67.1547 15.7302C67.4611 15.3767 67.7911 15.0821 67.8854 15.0821C67.9796 15.0821 68.5571 15.3178 69.1582 15.6123C69.7711 15.9069 70.325 16.1426 70.3957 16.1426C70.6314 16.1426 70.7611 16.6139 70.7611 17.4976V18.3931L71.4093 18.6877C71.7628 18.8526 72.1753 18.9705 72.3168 18.9469C72.5878 18.9115 72.5878 18.8644 72.7293 16.4371C72.8943 13.2911 72.9178 10.2983 72.7646 10.0155C72.6703 9.83872 71.4918 9.19067 71.2561 9.19067C71.2207 9.19067 70.1011 10.2629 68.7575 11.5708ZM71.0557 12.8669C70.9378 14.0216 70.8789 14.2455 70.6432 14.3162C70.3486 14.4105 69.3468 13.9038 69.3468 13.6564C69.3468 13.3972 70.6432 12.1364 70.9143 12.1364C71.1146 12.1364 71.1264 12.2071 71.0557 12.8669Z" fill="black"/>
<path d="M77.5849 13.0672C77.1252 13.6446 76.6656 14.2926 76.4417 14.6933C76.3356 14.8936 75.982 15.412 75.652 15.848C74.4499 17.4387 74.2613 17.7215 74.1081 18.1103C74.0138 18.3224 73.8842 18.4991 73.8253 18.4991C73.7074 18.4991 73.1181 19.4418 73.1181 19.6421C73.1181 19.7128 73.3656 19.9484 73.6603 20.1841L74.2024 20.6083L74.5442 20.349C74.7327 20.2194 74.992 19.9366 75.1217 19.7363C75.2395 19.5478 75.6167 19.0058 75.9467 18.558C76.2649 18.0985 76.642 17.5094 76.7834 17.2266C76.9131 16.9438 77.0899 16.7435 77.1606 16.767C77.3609 16.826 77.3963 18.1103 77.2313 19.4889C77.1488 20.1487 77.0663 21.1031 77.0427 21.6334L76.9956 22.576L77.6674 23.0238C78.0445 23.2594 78.4217 23.4362 78.5159 23.4244C78.6692 23.389 79.4588 22.4464 79.9538 21.6805C80.0481 21.5391 80.3427 21.1149 80.602 20.7497C80.8613 20.3844 81.2149 19.8777 81.4034 19.6185C81.5802 19.3593 82.087 18.617 82.5466 17.9689C82.9945 17.3208 83.3716 16.6963 83.3716 16.5903C83.3716 16.39 82.417 15.6712 82.1459 15.6712C81.922 15.6712 81.6391 16.0365 80.3309 17.9689C80.107 18.287 79.7652 18.7584 79.5649 19.0058C78.9638 19.7481 78.952 19.6656 79.2584 15.8833C79.3881 14.2573 79.3881 14.1159 79.1877 13.7271C78.952 13.3029 78.5277 12.9258 78.1034 12.7962C77.9149 12.7373 77.797 12.808 77.5849 13.0672Z" fill="black"/>
<path d="M25.3273 14.1395C25.292 14.1984 25.1623 14.2573 25.0445 14.2573C24.9384 14.2573 24.738 14.3398 24.6202 14.434C24.4905 14.5283 24.137 14.7993 23.8306 15.0232C22.3691 16.119 21.8859 18.2045 22.7227 19.8895C23.147 20.7614 23.2177 20.8675 23.9366 21.5862C25.0798 22.741 26.4352 23.2123 27.6137 22.847C29.8412 22.1636 31.1023 20.679 31.0905 18.7348C31.0905 17.9925 31.0316 17.7215 30.7134 17.0263C30.5012 16.5667 30.1594 16.0247 29.9473 15.8126C28.3798 14.1866 28.0498 14.0216 26.5177 14.0216C25.9048 14.0216 25.3627 14.0688 25.3273 14.1395ZM27.3898 16.0836C28.592 16.8495 29.3698 18.3577 29.1105 19.4418C28.8512 20.5022 28.2384 20.9735 27.107 20.9735C25.9873 20.9735 25.2448 20.4433 24.573 19.159C24.0663 18.2045 24.0663 17.4269 24.5613 16.7553C25.3038 15.7301 26.4116 15.4709 27.3898 16.0836Z" fill="black"/>
<path d="M50.4307 17.3326C49.6529 17.3915 48.6157 17.4975 48.1325 17.5682C47.6493 17.6389 46.895 17.7332 46.459 17.7921C46.0229 17.851 45.5633 17.9453 45.4336 18.016C45.304 18.0867 45.0329 18.1456 44.8325 18.1456C44.6322 18.1456 44.2786 18.2281 44.0429 18.3223C43.819 18.4166 43.4772 18.4991 43.3122 18.4991C43.1354 18.4991 42.8879 18.5816 42.7583 18.6758C42.6404 18.7701 42.4047 18.8526 42.2397 18.8526C42.0747 18.8526 41.7919 18.9351 41.6033 19.0293C41.4265 19.1236 41.179 19.2061 41.0729 19.2061C40.9551 19.2061 40.7665 19.2885 40.6369 19.3828C40.519 19.4771 40.3186 19.5596 40.2126 19.5596C40.0947 19.5596 39.6469 19.7245 39.2108 19.9248C38.7629 20.1133 38.2562 20.349 38.0558 20.4315C37.2426 20.785 36.3705 21.2327 35.8165 21.5626C35.4983 21.7512 35.0976 21.9633 34.9444 22.034C34.1548 22.3757 30.4423 25.015 29.4523 25.9341C28.9926 26.3583 26.058 29.2922 25.6337 29.7517C25.1034 30.3291 24.0545 31.6841 23.3355 32.7564C22.9584 33.3102 22.5813 33.8404 22.4988 33.9347C22.4163 34.0289 22.1805 34.4295 21.9684 34.8184C21.7563 35.2072 21.438 35.7846 21.2495 36.1145C20.9195 36.6801 20.4716 37.5756 20.1298 38.3532C20.0473 38.5418 19.8116 39.0602 19.6231 39.508C19.4227 39.9439 19.2577 40.3917 19.2577 40.5095C19.2577 40.6156 19.1752 40.8159 19.0809 40.9337C18.9866 41.0633 18.9041 41.2518 18.9041 41.3697C18.9041 41.4757 18.8216 41.7231 18.7273 41.8999C18.6331 42.0884 18.5506 42.3712 18.5506 42.5362C18.5506 42.7011 18.4681 42.9368 18.3738 43.0546C18.2795 43.1842 18.197 43.4317 18.197 43.6084C18.197 43.7734 18.1145 44.1151 18.0202 44.3389C17.9259 44.5746 17.8434 44.9281 17.8434 45.1284C17.8434 45.3287 17.7845 45.5997 17.7138 45.7293C17.6431 45.8589 17.5488 46.3185 17.4899 46.7544C17.4427 47.1904 17.3366 47.8856 17.2777 48.3098C17.207 48.734 17.0891 50.0065 17.0184 51.1377C16.9124 52.8462 16.9124 53.6121 17.0656 55.5562C17.2424 57.7714 17.3013 58.231 17.6077 59.857C17.6784 60.2105 17.7845 60.7878 17.8434 61.1413C17.9024 61.483 17.9966 61.8247 18.0674 61.8954C18.1381 61.9661 18.197 62.1782 18.197 62.3667C18.197 62.5435 18.2559 62.8145 18.3384 62.9559C18.4091 63.0973 18.5152 63.4036 18.5623 63.6275C18.6448 64.0517 18.8334 64.5937 19.0927 65.2182C19.1752 65.4067 19.3284 65.8073 19.4345 66.1019C19.9059 67.3509 21.2495 70.1434 21.7563 70.9093C21.933 71.1921 22.0863 71.4396 22.0863 71.4631C22.0863 71.581 24.0073 74.3499 24.467 74.9037C24.7498 75.2336 25.1387 75.7403 25.3509 76.0231C25.6573 76.4355 26.3055 77.1307 27.1423 77.9437C27.213 78.0026 27.6491 78.4622 28.1205 78.9453C28.5919 79.4284 29.5112 80.2649 30.1712 80.7834C31.3616 81.7496 34.1194 83.682 34.6144 83.9058C34.7558 83.9648 35.1447 84.1769 35.463 84.3654C36.0405 84.7071 37.7022 85.5437 38.4094 85.8382C38.6097 85.9207 38.9515 86.0739 39.1754 86.1682C39.694 86.392 40.5779 86.722 41.8861 87.1933C42.1101 87.264 42.4872 87.3818 42.7111 87.4289C43.5833 87.641 44.1961 87.806 44.5968 87.9356C44.8208 88.0063 45.2804 88.1005 45.5986 88.1595C45.9286 88.2066 46.5297 88.3009 46.954 88.3716C48.8043 88.6779 51.5386 88.9489 52.67 88.9489C53.4714 88.9489 56.3353 88.7133 56.736 88.619C57.0307 88.5483 57.5257 88.4894 57.8439 88.4894C58.1621 88.4894 58.7278 88.4069 59.0814 88.3126C59.4467 88.2184 59.9889 88.1123 60.2953 88.077C60.6017 88.0416 60.8846 87.9592 60.9199 87.8885C60.9671 87.8295 61.191 87.7824 61.4267 87.7824C61.6624 87.7824 62.016 87.6999 62.2046 87.6057C62.3814 87.5114 62.6524 87.4289 62.7939 87.4289C62.9235 87.4289 63.1946 87.3464 63.3831 87.2522C63.5599 87.1579 63.831 87.0754 63.9724 87.0754C64.1021 87.0754 64.326 86.993 64.4439 86.8987C64.5735 86.8044 64.7856 86.722 64.9271 86.722C65.0685 86.722 65.2806 86.6395 65.4103 86.5452C65.5281 86.4509 65.7285 86.3685 65.8346 86.3685C65.9406 86.3685 66.1763 86.2978 66.3649 86.2035C66.5417 86.1092 67.072 85.8736 67.5199 85.6615C67.9795 85.4612 68.4274 85.2373 68.5217 85.1902C68.616 85.1313 68.9342 84.9663 69.2288 84.8249C70.0892 84.3889 72.2342 83.1046 72.6231 82.7747C72.8117 82.6097 73.012 82.4801 73.0592 82.4801C73.177 82.4801 75.4516 80.748 75.9466 80.2767C76.1706 80.0646 76.7834 79.5226 77.302 79.0749C77.8323 78.6271 78.5748 77.873 78.952 77.4017C79.3409 76.9186 79.8241 76.3766 80.0245 76.1763C80.4252 75.7874 82.193 73.478 82.193 73.3484C82.193 73.3013 82.3227 73.1127 82.4759 72.9242C82.8059 72.5354 84.1494 70.3202 84.5384 69.519C84.6798 69.2244 84.8448 68.9062 84.9037 68.812C84.9509 68.7177 85.1748 68.2582 85.3752 67.8104C85.5873 67.3509 85.823 66.8325 85.9173 66.6557C86.0116 66.4672 86.0823 66.2315 86.0823 66.1255C86.0823 66.0194 86.1648 65.8191 86.2591 65.7013C86.3534 65.5717 86.4359 65.3596 86.4359 65.2182C86.4359 65.0768 86.5184 64.8647 86.6126 64.7351C86.7069 64.6173 86.7894 64.3816 86.7894 64.2167C86.7894 64.0517 86.8719 63.816 86.9662 63.6982C87.0605 63.5686 87.143 63.3212 87.143 63.1444C87.143 62.9677 87.2255 62.6731 87.3198 62.4964C87.4141 62.3078 87.4966 61.9661 87.4966 61.7423C87.4966 61.5066 87.5437 61.2709 87.6144 61.2002C87.6734 61.1413 87.7794 60.7289 87.8384 60.3047C87.8973 59.8688 87.9798 59.4564 88.0269 59.3857C88.0741 59.3032 88.1566 58.7848 88.2037 58.231C88.2626 57.6654 88.3687 56.7699 88.4394 56.2279C88.6044 55.0614 88.5455 50.089 88.3451 48.84C88.2744 48.3805 88.1566 47.6735 88.0858 47.2493C88.0151 46.8251 87.9209 46.2124 87.8737 45.8943C87.8148 45.5644 87.7205 45.1166 87.6498 44.8927C87.5201 44.4921 87.3551 43.8794 87.143 43.0075C87.0369 42.5479 86.8012 41.8645 86.2473 40.3799C85.7051 38.9188 84.7152 36.8332 84.0787 35.761C83.8902 35.4311 83.678 35.054 83.6073 34.9126C83.3952 34.406 81.4977 31.7077 80.5195 30.4941C79.9891 29.8224 79.1405 28.8916 78.6573 28.4321C78.1741 27.9607 77.7263 27.5248 77.6556 27.4541C77.0427 26.7942 76.147 25.9577 75.7345 25.6513C75.4516 25.4392 74.9449 25.0386 74.6149 24.7676C72.6702 23.1416 68.4156 20.7143 65.811 19.7363C65.5163 19.6303 65.1274 19.4771 64.9271 19.3946C64.3024 19.1354 63.7603 18.9468 63.336 18.8644C63.1121 18.8172 62.8056 18.7112 62.6642 18.6405C62.5228 18.558 62.2517 18.4991 62.0749 18.4991C61.8864 18.4991 61.6742 18.4402 61.6035 18.3695C61.5328 18.2988 61.191 18.2045 60.8492 18.1456C60.4957 18.0867 59.9182 17.9806 59.5646 17.9099C57.9618 17.6036 57.3843 17.5329 55.3336 17.3679C52.9411 17.1912 52.5404 17.1912 50.4307 17.3326ZM54.6736 19.0765C55.1921 19.1472 56.0407 19.1943 56.5593 19.2061C57.0778 19.2061 57.7143 19.2885 57.9735 19.3828C58.2328 19.4771 58.6689 19.5596 58.9282 19.5596C59.1992 19.5596 59.6117 19.642 59.8357 19.7363C60.0714 19.8306 60.4367 19.913 60.6489 19.913C60.861 19.913 61.191 19.9955 61.3796 20.0898C61.5564 20.184 61.851 20.2665 62.0278 20.2665C62.2046 20.2665 62.4521 20.349 62.5817 20.4433C62.6996 20.5375 62.9706 20.62 63.1592 20.62C63.3596 20.62 63.6189 20.7025 63.7367 20.7968C63.8664 20.891 64.0785 20.9735 64.2081 20.9735C64.3496 20.9735 64.5617 21.056 64.6796 21.1502C64.8092 21.2445 65.0331 21.327 65.1746 21.327C65.316 21.327 65.4928 21.4095 65.5753 21.5037C65.6578 21.598 65.811 21.6805 65.9171 21.6805C66.0113 21.6805 66.4238 21.8336 66.8128 22.0222C68.0149 22.5995 68.5688 22.8705 68.8163 23.0119C70.5724 24.0253 71.1735 24.3905 71.8217 24.8383C74.6974 26.8414 77.1252 28.9623 78.4334 30.6355C80.1423 32.8153 80.7905 33.7226 80.7434 33.8522C80.7198 33.9464 80.1659 34.0407 79.2348 34.135C77.6673 34.2764 77.3256 34.3471 75.5931 34.9009C73.2477 35.6667 71.4799 36.8215 69.7474 38.7185C68.7692 39.7908 67.7085 41.1458 67.1781 42.0059C67.0603 42.1945 66.8835 42.4419 66.7892 42.5362C66.5653 42.7836 65.6813 44.0444 65.3513 44.5628C65.2099 44.8103 65.0449 45.0106 64.9978 45.0106C64.9506 45.0106 64.7621 45.258 64.5617 45.5644C64.3731 45.8707 64.0196 46.3538 63.7839 46.6366C63.5364 46.9194 63.336 47.1904 63.336 47.2375C63.336 47.2847 62.7703 47.9092 62.0749 48.6279C60.8021 49.9358 59.3996 50.9727 58.3271 51.3969C57.4196 51.7504 56.5357 51.9625 55.9346 51.9625C55.3571 51.9625 55.31 51.9389 55.0389 51.5029C54.6264 50.8549 54.0607 50.466 53.0707 50.1597C52.9646 50.1243 52.5993 49.6295 52.2575 49.0521C51.3854 47.6028 50.525 46.4834 49.7118 45.7175C49.0047 45.0459 47.7436 44.0562 47.4254 43.9148C47.3311 43.8676 47.0954 43.7262 46.895 43.5966C46.3411 43.2314 44.8443 42.5362 44.6204 42.5362C44.5143 42.5362 44.314 42.4537 44.1961 42.3594C44.0665 42.2652 43.7954 42.1827 43.6068 42.1827C43.4065 42.1709 43.1118 42.1002 42.9468 42.0059C42.7818 41.9117 42.4283 41.841 42.169 41.8292C41.8979 41.8292 41.4854 41.7467 41.2615 41.6524C41.0258 41.5582 40.5308 41.4757 40.1772 41.4757C39.8119 41.4757 39.4112 41.4168 39.2815 41.3461C39.1401 41.2754 38.4683 41.1811 37.7847 41.1222C37.0894 41.0633 36.3351 40.969 36.1112 40.8983C35.8872 40.8276 35.463 40.7687 35.1683 40.7687C34.8737 40.7687 34.3787 40.6863 34.0605 40.592C33.7423 40.4977 33.259 40.4152 32.988 40.4152C32.7287 40.4152 32.4458 40.3563 32.3869 40.2974C32.3162 40.2267 31.998 40.1207 31.6798 40.0618C30.4187 39.8379 28.8276 39.0838 27.2719 37.9644C26.388 37.3399 25.9755 36.9275 25.3037 36.0438C24.8323 35.4429 24.408 34.8184 24.3727 34.677C24.2784 34.3471 24.3962 34.1703 25.6455 32.4736C27.0716 30.5648 30.2773 27.3598 32.163 25.9694C33.5537 24.9443 35.0505 23.9192 35.404 23.7543C35.4983 23.7189 35.7458 23.5775 35.9344 23.4479C36.1347 23.3183 36.3705 23.1887 36.4647 23.1416C36.559 23.1062 36.724 23.0355 36.8183 22.9766C37.0187 22.8588 37.8554 22.4464 38.1147 22.3403C38.209 22.305 38.374 22.2225 38.4683 22.1636C38.5626 22.1047 38.8572 21.9633 39.1165 21.8572C39.3758 21.7394 39.7294 21.5744 39.9061 21.4802C40.0711 21.3977 40.3069 21.327 40.4365 21.327C40.5544 21.327 40.7547 21.2445 40.8726 21.1502C41.0022 21.056 41.2144 20.9735 41.3558 20.9735C41.4972 20.9735 41.6622 20.9146 41.7329 20.8439C41.8036 20.7732 42.0747 20.6671 42.3222 20.62C42.7465 20.5257 42.9704 20.4668 43.9251 20.1369C44.1254 20.0662 44.5733 19.9602 44.8915 19.913C45.2215 19.8659 45.634 19.7716 45.8108 19.7009C45.9993 19.6185 46.3529 19.5596 46.6004 19.5596C46.8597 19.5596 47.2957 19.4889 47.5668 19.3946C48.0147 19.2414 49.7472 19.0882 51.02 19.0882C51.2793 19.0882 51.6564 19.0411 51.845 18.9704C52.2104 18.8526 53.0707 18.8879 54.6736 19.0765ZM82.2402 35.9849C82.4052 36.2088 82.5466 36.468 82.5466 36.574C82.5466 36.6683 82.5937 36.7743 82.6409 36.8097C82.7352 36.8686 83.4777 38.3061 83.6545 38.7656C83.6898 38.8599 83.7723 39.0249 83.8312 39.1191C84.1494 39.6965 84.3144 40.0618 84.3144 40.2739C84.3144 40.4035 84.3969 40.5684 84.4912 40.6509C84.5855 40.7334 84.668 40.9101 84.668 41.0515C84.668 41.1929 84.7505 41.4168 84.8448 41.5464C84.9391 41.6642 85.0216 41.9117 85.0216 42.0766C85.0216 42.2416 85.1041 42.4772 85.1984 42.6069C85.2927 42.7247 85.3752 42.9957 85.3752 43.196C85.3752 43.3845 85.4577 43.6555 85.5519 43.7851C85.6462 43.903 85.7287 44.1976 85.7287 44.4214C85.7287 44.6453 85.8112 44.9634 85.9055 45.1284C85.9998 45.2934 86.0823 45.6351 86.0823 45.8943C86.0941 46.1535 86.1648 46.5777 86.2591 46.8369C86.3534 47.0961 86.4359 47.5439 86.4359 47.8385C86.4359 48.133 86.5184 48.6868 86.6126 49.0757C86.8601 50.1126 86.8601 56.2632 86.6126 57.0762C86.5184 57.3944 86.4359 57.9835 86.4359 58.3724C86.4241 58.773 86.3534 59.2207 86.2591 59.3857C86.1648 59.5506 86.0941 59.8806 86.0823 60.128C86.0823 60.3754 85.9998 60.7643 85.9055 60.9999C85.8112 61.2238 85.7287 61.5537 85.7287 61.7305C85.7169 61.8954 85.6462 62.1664 85.5519 62.3314C85.4577 62.4964 85.3869 62.7674 85.3752 62.9323C85.3752 63.0973 85.2927 63.3329 85.1984 63.4626C85.1041 63.5804 85.0216 63.8278 85.0216 63.9928C85.0216 64.1577 84.9391 64.3934 84.8448 64.523C84.7505 64.6408 84.668 64.8529 84.668 64.9943C84.668 65.1239 84.5855 65.336 84.4912 65.4656C84.3969 65.5835 84.3144 65.8073 84.3144 65.937C84.3144 66.0784 84.2319 66.2551 84.1377 66.3376C84.0434 66.4201 83.9609 66.5497 83.9609 66.6321C83.9609 66.7264 83.8902 66.9385 83.7959 67.127C83.7016 67.3038 83.4423 67.834 83.2066 68.3053C82.9827 68.7648 82.6762 69.354 82.5348 69.6014C82.0045 70.5441 81.6745 71.1096 81.6037 71.1686C81.5684 71.2039 81.2855 71.6281 80.9673 72.1112C78.7163 75.54 75.2513 79.0042 71.8217 81.2547C71.3385 81.5728 70.9142 81.8556 70.8788 81.9028C70.8317 81.9617 70.5135 82.1384 69.1699 82.9043C69.0403 82.9868 68.5335 83.2342 68.0503 83.4699C67.567 83.7173 67.0131 83.9765 66.8363 84.0708C66.6478 84.1651 66.4356 84.2475 66.3413 84.2475C66.2588 84.2475 66.1292 84.33 66.0467 84.4243C65.9642 84.5186 65.7874 84.601 65.646 84.601C65.5163 84.601 65.2924 84.6835 65.1746 84.7778C65.0449 84.872 64.8328 84.9545 64.7031 84.9545C64.5617 84.9545 64.3496 85.037 64.2317 85.1313C64.1021 85.2255 63.8664 85.308 63.7014 85.308C63.5364 85.308 63.2889 85.3905 63.171 85.4848C63.0414 85.579 62.8056 85.6615 62.6407 85.6615C62.4757 85.6733 62.2046 85.744 62.0396 85.8382C61.8746 85.9325 61.6035 86.0032 61.4385 86.015C61.2617 86.015 60.9317 86.0975 60.7078 86.1917C60.4721 86.286 60.0832 86.3685 59.8357 86.3685C59.5882 86.3802 59.2582 86.4509 59.0932 86.5452C58.9282 86.6395 58.4803 86.7102 58.0796 86.722C57.6907 86.722 57.1014 86.8044 56.7832 86.8987C56.1703 87.0872 54.7678 87.1344 54.5203 86.9812C54.4143 86.8987 54.4378 86.7573 54.6736 86.3331C54.8268 86.0268 55.0743 85.4965 55.2157 85.1548C55.3571 84.8249 55.5457 84.3772 55.6282 84.1651C55.7225 83.9648 55.7932 83.7173 55.7932 83.6231C55.7932 83.5288 55.8757 83.2931 55.97 83.1164C56.0643 82.9279 56.1468 82.6451 56.1468 82.4801C56.1468 82.3152 56.2293 81.9145 56.3353 81.5964C56.6064 80.7363 56.6182 77.0011 56.3589 76.1763C56.2528 75.8464 55.9935 75.0333 55.7814 74.3499C55.5811 73.6665 55.1686 72.5472 54.8857 71.8402C53.7071 68.918 53.2946 67.9165 53.2004 67.6926C53.1414 67.563 53 67.1859 52.8939 66.8678C52.7879 66.5379 52.6346 66.1137 52.5639 65.9252C52.3046 65.2889 52.1161 64.7587 52.0218 64.3345C51.9746 64.1106 51.8804 63.6864 51.7979 63.3919C51.5386 62.3314 51.3146 60.8468 51.3146 60.234C51.3146 59.2207 51.6918 57.8657 52.3754 56.3693C52.7643 55.5445 52.7996 55.5091 53.7071 55.1438C54.155 54.9671 54.5321 54.7079 54.8386 54.3662C55.4043 53.7181 55.6989 53.6121 56.8893 53.6121C57.891 53.6121 58.8928 53.4235 60.3896 52.9287C62.7939 52.151 65.0449 50.5721 66.7421 48.5101C67.1074 48.0623 67.626 47.4261 67.897 47.0844C68.1799 46.7544 68.6042 46.2006 68.8399 45.8472C69.606 44.7513 70.042 44.1504 70.5842 43.4199C70.867 43.031 71.2677 42.4301 71.4799 42.0884C71.6802 41.7585 71.8806 41.4757 71.9395 41.4757C72.0338 41.4757 73.0002 40.2149 73.0002 40.0853C73.0002 39.6611 77.0427 36.6447 77.6084 36.6447C77.6791 36.6447 77.9031 36.574 78.1034 36.4915C78.8459 36.1734 79.6709 35.9613 80.4252 35.8788C80.8495 35.8317 81.2973 35.7492 81.427 35.6903C81.8277 35.5371 81.922 35.5725 82.2402 35.9849ZM23.6302 36.9629C24.6555 38.6714 26.2584 40.4388 27.8848 41.6642C28.9809 42.4772 31.0433 43.5966 31.4558 43.5966C31.5737 43.5966 31.9037 43.6791 32.2101 43.7734C33.4948 44.174 34.0369 44.3036 34.4494 44.3036C34.6851 44.3036 35.1683 44.3861 35.5219 44.4803C35.8755 44.5746 36.4412 44.6571 36.783 44.6571C37.1247 44.6571 37.7022 44.7396 38.0794 44.8338C38.4447 44.9281 39.0222 45.0106 39.364 45.0106C39.694 45.0106 40.1183 45.0577 40.3069 45.1284C40.4954 45.1873 41.0494 45.2934 41.5326 45.3641C42.9468 45.5408 43.9251 45.7411 44.3258 45.9061C44.5261 46.0003 44.7972 46.071 44.9268 46.071C45.0565 46.071 45.3158 46.1535 45.4925 46.2478C45.6811 46.342 45.9404 46.4245 46.07 46.4245C46.1997 46.4245 46.4118 46.507 46.5297 46.6013C46.6593 46.6955 46.8243 46.778 46.9068 46.778C47.2604 46.778 48.8515 47.862 49.5704 48.5926C50.8668 49.9005 51.3618 50.737 51.0082 51.0316C50.7018 51.2791 50.2539 52.3277 50.2539 52.7873C50.2539 53.2114 50.7136 54.3426 50.9493 54.484C51.1732 54.6254 51.0907 54.9671 50.5486 56.0276C49.8179 57.4651 49.3582 58.6434 49.0518 59.8452C48.8397 60.7054 48.8043 61.1885 48.8043 63.0973C48.8043 64.3227 48.8632 65.5481 48.9339 65.8073C48.9929 66.0666 49.1461 66.5732 49.2522 66.9267C49.3582 67.2802 49.4879 67.7869 49.5586 68.0461C49.6293 68.3053 49.7236 68.5645 49.7943 68.6235C49.8532 68.6942 49.9004 68.8355 49.9004 68.9416C49.9004 69.0476 50.0064 69.3893 50.1479 69.7075C50.5132 70.5794 50.5604 70.6972 50.8432 71.4042C50.9729 71.7577 51.1379 72.1583 51.1968 72.2879C51.3854 72.6768 52.6818 76.0231 52.8821 76.5887C53.495 78.3915 53.6718 79.4519 53.6718 81.2311C53.6718 83.1046 53.4125 84.4125 52.7761 85.8618C52.6818 86.0621 52.6111 86.2624 52.6111 86.3096C52.6111 86.3567 52.505 86.5452 52.3636 86.7337L52.1279 87.0754H50.7372C49.8414 87.0754 49.1461 87.0165 48.7689 86.8987C48.4507 86.8044 47.8968 86.722 47.5315 86.722C47.1661 86.722 46.6711 86.6395 46.4472 86.5452C46.2115 86.4509 45.8225 86.3685 45.575 86.3685C45.3275 86.3567 44.9975 86.286 44.8325 86.1917C44.6675 86.0975 44.3493 86.015 44.1254 86.015C43.9015 86.015 43.6068 85.9325 43.489 85.8382C43.3593 85.744 43.0883 85.6615 42.8997 85.6615C42.6993 85.6615 42.4283 85.579 42.3104 85.4848C42.1808 85.3905 41.9451 85.308 41.7801 85.308C41.6151 85.308 41.3676 85.2255 41.2497 85.1313C41.1201 85.037 40.8961 84.9545 40.7547 84.9545C40.6133 84.9545 40.4365 84.872 40.354 84.7778C40.2715 84.6835 40.1065 84.601 39.9769 84.601C39.8472 84.601 39.5997 84.5303 39.4347 84.4361C39.2579 84.3418 39.034 84.2358 38.9397 84.2004C38.8454 84.1651 38.6804 84.0826 38.5862 84.0237C38.4919 83.9648 37.9969 83.7291 37.5019 83.4817C36.9951 83.246 36.559 82.9986 36.5237 82.9396C36.4765 82.8807 36.3705 82.8336 36.2762 82.8336C36.1819 82.8336 35.958 82.7276 35.7812 82.6097C35.6044 82.4919 34.8501 81.9852 34.1076 81.5021C33.3651 81.0073 32.3869 80.3121 31.9273 79.9586C31.4794 79.6051 30.7369 79.016 30.2773 78.6625C28.6862 77.437 26.5177 74.9509 24.5377 72.1112C24.0898 71.4631 23.7245 70.8622 22.7109 69.1066C22.5223 68.7766 22.1216 67.9518 21.7091 67.0445C21.5205 66.6204 21.2848 66.1255 21.1905 65.9487C21.0963 65.7602 21.0255 65.5246 21.0255 65.4067C21.0255 65.3007 20.943 65.1004 20.8488 64.9708C20.7545 64.8529 20.672 64.6408 20.672 64.4994C20.672 64.3698 20.5895 64.1577 20.4952 64.0281C20.4009 63.9103 20.3184 63.6393 20.3184 63.4508C20.3184 63.2505 20.2359 62.9912 20.1416 62.8734C20.0473 62.7438 19.9648 62.4964 19.9648 62.3196C19.9648 62.1429 19.8823 61.8483 19.7881 61.6716C19.6938 61.483 19.6113 61.1531 19.6113 60.941C19.6113 60.7289 19.5288 60.3637 19.4345 60.128C19.3402 59.9041 19.2577 59.4799 19.2577 59.1854C19.2577 58.9026 19.1988 58.5491 19.1163 58.4077C19.0456 58.2663 18.9395 57.4062 18.8923 56.4989C18.8452 55.5916 18.7391 54.4369 18.6566 53.9302C18.5388 53.2114 18.5388 52.8697 18.6566 52.2806C18.7273 51.88 18.7981 51.3851 18.7981 51.1966C18.7745 50.1715 18.9513 48.3098 19.0927 47.862C19.187 47.591 19.2577 47.1551 19.2577 46.8958C19.2577 46.6484 19.3166 46.2949 19.3991 46.1064C19.4698 45.9296 19.5641 45.5054 19.6113 45.1873C19.6584 44.8574 19.7645 44.4214 19.8352 44.2093C20.1652 43.2667 20.2241 43.0428 20.3184 42.6186C20.3656 42.3712 20.4716 42.1002 20.5423 42.0295C20.613 41.9588 20.672 41.7938 20.672 41.6524C20.672 41.5111 20.7545 41.299 20.8488 41.1693C20.943 41.0515 21.0255 40.8512 21.0255 40.7334C21.0255 40.6038 21.0963 40.3681 21.1788 40.2032C21.3555 39.8732 21.662 39.1898 21.7798 38.8835C21.8152 38.7892 21.8977 38.6242 21.9566 38.53C22.0155 38.4357 22.1805 38.1176 22.322 37.823C22.4516 37.5284 22.6166 37.2103 22.6755 37.116C22.7345 37.0218 22.8052 36.845 22.8405 36.7272C22.9466 36.3737 23.3473 36.4915 23.6302 36.9629Z" fill="black"/>
<path d="M49.429 25.3568C49.264 25.4275 48.7336 25.5217 48.2504 25.5689C47.3901 25.6631 46.6594 25.8163 45.9522 26.0637C45.7637 26.1344 45.4101 26.2169 45.1862 26.2405C44.9622 26.2758 44.7265 26.3465 44.6558 26.3937C44.5969 26.4408 44.3612 26.5233 44.149 26.5704C43.9369 26.6175 43.6187 26.7236 43.4419 26.8178C43.2651 26.9121 43.0647 26.9828 42.9822 26.9828C42.9115 26.9828 42.6994 27.0535 42.5108 27.1478C42.334 27.242 41.9922 27.3952 41.7683 27.4895C40.6605 27.949 39.8355 28.3732 38.7041 29.0684C36.9716 30.1288 36.7359 30.282 36.1819 30.7533C35.9226 30.989 35.5691 31.26 35.4041 31.366C34.8266 31.7313 33.6362 32.8978 33.6362 33.0981C33.6362 33.216 33.7659 33.428 33.9309 33.5812L34.2255 33.864L34.6144 33.487C35.133 32.9803 35.6162 32.9803 36.0994 33.4752C36.7712 34.1468 36.7476 34.7006 36.0169 35.0776C35.7341 35.219 35.4276 35.3958 35.3334 35.4665C35.0741 35.6904 35.1448 36.1381 35.5101 36.5505L35.8519 36.9393L38.3858 36.9747C41.1673 37.0218 41.2969 36.9865 41.2969 36.2913C41.2969 35.5961 41.2615 35.5843 39.8826 35.5843C38.433 35.5843 38.268 35.5018 38.3976 34.8184C38.4919 34.3471 39.093 33.8169 39.5526 33.8169C39.7058 33.8169 39.9415 33.7344 40.0712 33.6401C40.189 33.5459 40.4601 33.4634 40.6723 33.4634C40.9669 33.4634 41.0965 33.5459 41.2969 33.8758C41.4383 34.0997 41.7565 34.5003 42.004 34.7595C42.5226 35.3015 43.0294 35.384 43.4183 34.9952C43.7483 34.6652 43.713 34.2882 43.3005 33.7226C43.1119 33.4516 42.9469 33.1924 42.9469 33.157C42.9469 33.1217 42.7937 32.8507 42.5933 32.5561C42.4047 32.2733 42.2397 32.0023 42.2397 31.967C42.2397 31.9316 42.0394 31.5781 41.7919 31.1775C40.8137 29.6222 40.6251 28.9859 41.1555 28.9859C41.2851 28.9859 41.4501 28.9034 41.5326 28.8092C41.6151 28.7149 41.7683 28.6324 41.8862 28.6324C42.004 28.6324 42.1572 28.5499 42.2397 28.4557C42.3222 28.3614 42.5108 28.2789 42.6522 28.2789C42.7937 28.2789 43.2062 28.114 43.5715 27.9254C43.9369 27.7251 44.3376 27.572 44.4554 27.572C44.5733 27.572 44.7147 27.5248 44.7854 27.4541C44.8444 27.3952 45.139 27.2892 45.4219 27.2302C45.7165 27.1596 46.2704 27.0299 46.6594 26.9239C47.0483 26.8178 47.7083 26.6765 48.1326 26.6293C48.5569 26.5704 49.0401 26.4761 49.2051 26.4172C49.5822 26.2641 53.2829 26.0991 53.719 26.2051C53.9429 26.2641 54.0254 26.3583 54.0254 26.5586C54.0254 27.0535 53.7661 27.1831 52.6111 27.2538C51.1733 27.3481 50.7843 27.5602 50.7961 28.2671C50.8079 28.6206 50.8904 28.8445 51.1026 29.0802C51.5622 29.5633 51.6683 29.8578 51.6683 30.5648C51.6683 31.0833 51.6211 31.2364 51.4561 31.3307C51.1615 31.4839 50.9611 31.2836 50.9611 30.8476C50.9611 30.6709 50.7254 30.0346 50.4426 29.4336C50.1479 28.8327 49.8297 28.0315 49.7236 27.6544L49.5233 26.9828H48.8868C48.3211 26.9828 48.2269 27.0182 48.109 27.2774C48.0029 27.5013 48.0147 27.6898 48.1326 28.0668C48.2269 28.3496 48.3447 28.6324 48.3919 28.7149C48.4508 28.7856 48.4861 29.0095 48.4626 29.2098L48.4272 29.5633L47.944 29.3512C47.6729 29.2333 47.2133 28.8799 46.9186 28.5853L46.3765 28.0433H45.4337C44.5615 28.0433 44.479 28.0668 44.2551 28.3496C43.9487 28.7502 43.9369 29.2687 44.2433 29.575C44.4319 29.7636 44.5733 29.7989 44.9976 29.74C45.4101 29.6811 45.6104 29.7164 45.9287 29.9167C46.6476 30.3527 46.6829 30.9065 46.0347 31.6017C45.6458 32.0141 45.5162 32.073 45.0919 32.073C44.7972 32.0612 44.4201 31.9552 44.1726 31.8138C43.7719 31.5663 43.7483 31.5663 43.5362 31.7549C43.4065 31.8727 43.3005 32.073 43.3005 32.2026C43.3005 32.5208 43.7483 33.1099 43.9958 33.1099C44.1137 33.1099 44.2787 33.1924 44.3612 33.2866C44.479 33.428 44.7854 33.4634 45.7047 33.4634C46.8715 33.4634 46.9186 33.4516 47.2133 33.1335C47.4961 32.8389 47.6376 32.3676 47.8379 31.0715C47.8851 30.7887 48.0029 30.5648 48.1915 30.447C48.3447 30.3409 48.5097 30.1642 48.5451 30.0346C48.6511 29.6929 48.8161 29.7636 48.8986 30.1878C48.9929 30.6473 49.6647 31.8963 50.089 32.3911C50.3836 32.7446 50.4072 32.7564 51.4679 32.7564C52.6111 32.7564 52.6465 32.7446 53.0236 32.2969C53.224 32.073 53.2711 31.802 53.3183 30.5295C53.3772 29.0919 53.389 29.0448 53.6482 29.0095C54.1786 28.927 54.2611 29.1509 54.2611 30.5648C54.2611 31.5663 54.3082 31.9434 54.4497 32.1437C54.6854 32.4854 55.145 32.4736 55.4986 32.1084L55.7932 31.8256V29.0448V26.2758H56.1939C56.5947 26.2758 56.8186 26.5115 56.6536 26.7825C56.6182 26.8414 56.5357 27.8076 56.4886 28.9152C56.4414 30.0228 56.3354 31.1893 56.2529 31.5074C56.1114 32.0848 56.1114 32.0966 56.4532 32.3676C56.8539 32.6857 57.1722 32.7093 57.5375 32.4501C57.7614 32.2969 57.7968 32.1673 57.7968 31.366C57.8086 30.8712 57.8793 30.1406 57.9736 29.7518C58.0679 29.363 58.1504 28.5264 58.1504 27.8901C58.1504 26.5822 58.2093 26.4997 58.9871 26.7472C59.5646 26.9357 60.0007 27.4306 60.1068 27.9961C60.1893 28.4439 60.0125 28.9859 59.7886 28.9859C59.7061 28.9859 59.4232 29.1037 59.1404 29.2451C58.5393 29.5397 58.3861 29.8814 58.3861 30.9183C58.3979 32.0494 58.5511 32.5208 59.0814 33.0156C59.5529 33.4634 59.5646 33.4634 60.5664 33.4634C61.415 33.4634 61.5918 33.4987 61.6507 33.6637C61.8628 34.2293 62.2046 34.5239 62.6407 34.5239C63.2771 34.5239 63.6189 34.0408 64.1493 32.4029C64.2082 32.238 64.3732 31.8963 64.5264 31.637C64.8093 31.1657 65.0214 30.6709 65.2335 29.9521C65.4221 29.3512 65.811 29.2333 66.471 29.5868C67.5789 30.176 68.8635 31.0361 69.6767 31.7667C70.2189 32.238 70.3014 32.3558 70.2306 32.6268C70.0303 33.4163 69.6414 33.4163 68.781 32.5915C67.4964 31.3896 67.0367 31.1068 66.365 31.1068C65.5635 31.1068 65.0921 31.4367 64.7621 32.2262C64.6207 32.5561 64.5146 32.9332 64.5146 33.0628C64.5146 33.2042 64.4321 33.5105 64.3378 33.7344C64.161 34.1821 64.1021 35.4311 64.2553 35.6432C64.3496 35.7728 64.656 35.9731 65.0685 36.1852C65.7285 36.5269 66.2825 35.7846 66.2825 34.5239C66.2825 33.2395 66.86 33.0039 67.8146 33.8876C68.6042 34.6181 68.5924 34.8302 67.6967 35.8789C67.1546 36.5152 66.9896 36.7862 66.9896 37.0807C66.9896 37.9291 67.9207 38.2472 68.4274 37.5756C68.5807 37.3753 69.1935 36.6919 69.7946 36.0438C70.3839 35.4076 70.8789 34.8066 70.8789 34.7242C70.8789 34.4178 71.3621 34.029 71.6449 34.0997C72.4463 34.3 73.0474 33.7815 72.741 33.157C72.6231 32.9332 72.5642 32.3676 72.5524 31.5192C72.5406 30.8005 72.4581 29.9167 72.3521 29.5397C72.2578 29.1626 72.1753 28.7267 72.1753 28.5617C72.1753 28.2082 71.586 27.572 71.2678 27.572C70.9731 27.572 70.4074 28.1611 70.4074 28.4675C70.4074 28.5853 70.4899 28.8445 70.5842 29.033C70.6785 29.2098 70.761 29.4454 70.761 29.5397C70.761 29.634 70.8435 29.8932 70.9496 30.1171C71.3385 30.9183 70.8789 31.4132 70.2778 30.8358C69.9831 30.553 68.7928 29.6929 68.6985 29.6929C68.6749 29.6929 68.3096 29.469 67.8971 29.1862C67.2371 28.762 65.2689 27.7133 64.5735 27.4423C64.4439 27.3952 64.1021 27.242 63.8075 27.1242C63.5128 26.9946 62.8293 26.7472 62.2753 26.5704C61.7214 26.3937 61.0614 26.1816 60.8021 26.0873C60.5311 25.993 60.1775 25.9224 60.0007 25.9224C59.8239 25.9224 59.4821 25.8399 59.2464 25.7456C59.0225 25.6513 58.61 25.5689 58.3271 25.5689C58.0561 25.5689 57.5729 25.4864 57.2547 25.3921C56.795 25.2507 55.9582 25.2154 53.2004 25.2272C51.0083 25.2272 49.6176 25.2743 49.429 25.3568ZM62.9589 27.8312C63.2418 27.949 63.5128 28.1729 63.56 28.3025C63.666 28.6088 63.4893 29.2569 63.0178 30.2467C62.4875 31.3896 61.25 32.0966 60.4957 31.696C60.3779 31.6253 60.2718 31.4721 60.2718 31.3543C60.2718 31.1186 60.6489 30.6355 60.8375 30.6355C61.1439 30.6355 61.5918 30.3291 61.8157 29.9639C62.0161 29.6457 62.0514 29.4336 62.0043 28.7738C61.9807 28.3378 61.91 27.8665 61.8628 27.7133C61.7803 27.4659 61.8039 27.4423 62.1103 27.5248C62.2989 27.572 62.6761 27.7016 62.9589 27.8312ZM39.1519 30.5412C39.2344 30.6237 39.2933 30.9654 39.2933 31.3071C39.2933 31.8845 39.2698 31.9552 38.9162 32.1673C38.3741 32.4972 37.9026 32.4736 37.5019 32.0848C36.9362 31.5428 37.0423 31.3778 38.4094 30.6002C38.8337 30.3645 38.9633 30.3527 39.1519 30.5412Z" fill="black"/>
<path d="M75.2159 54.5311C74.4617 55.1556 73.8842 55.5798 73.507 55.7801C73.0474 56.0158 72.8824 56.2868 72.8824 56.8406C72.8824 57.2648 73.1181 57.5004 73.507 57.5004C73.6131 57.5004 74.0727 57.2059 74.5324 56.8524C75.2513 56.3104 75.4281 56.2279 75.6167 56.3339C75.8877 56.4871 75.8642 56.7817 75.4988 57.6772C75.3692 57.9953 75.1924 58.5727 75.1099 58.9497C74.9331 59.7981 74.7681 59.9513 74.2613 59.751C74.0492 59.6803 73.5777 59.5035 73.1888 59.3621L72.5052 59.1265L72.2342 59.3975C71.9631 59.6803 71.8924 59.8452 71.9277 60.2341C71.9395 60.4933 73.0474 60.9999 74.5913 61.4477C74.9802 61.5655 75.4634 61.7187 75.652 61.8012C75.8524 61.8837 76.2059 62.0368 76.4534 62.1429C76.7009 62.2489 76.9602 62.3314 77.0545 62.3314C77.137 62.3314 77.3138 62.4492 77.4552 62.6024L77.7145 62.8734L77.4434 63.1326C77.2902 63.274 77.0899 63.3919 76.9838 63.3919C76.8895 63.3919 76.3238 63.1562 75.7345 62.8616C75.1452 62.5671 74.6149 62.3314 74.5559 62.3314C74.497 62.3314 73.9667 62.0958 73.3892 61.8012C72.7999 61.5184 72.1163 61.2474 71.8688 61.212C71.4681 61.1413 71.3738 61.1767 71.1145 61.4477C70.8317 61.7423 70.8317 61.7541 71.032 62.1311C71.1735 62.3903 71.4327 62.6024 71.857 62.7909C72.1988 62.9441 72.7881 63.2033 73.1652 63.3801C73.5424 63.545 74.3909 63.9575 75.0509 64.2874C76.4299 64.9826 76.5241 65.1357 75.982 65.9134C75.7934 66.1726 75.4752 66.7382 75.2749 67.1624C75.0745 67.5866 74.7327 68.0932 74.5088 68.2935C74.2967 68.4939 73.8842 68.9887 73.6013 69.3894C73.2124 69.9432 73.0238 70.1081 72.8352 70.0845C72.6702 70.061 72.576 69.9549 72.5524 69.7546C72.4699 69.0359 71.7156 68.3407 71.0203 68.3407C70.596 68.3407 70.4074 68.1404 70.4074 67.6926C70.4074 67.2449 69.8417 66.5968 69.3113 66.4436C68.8046 66.3022 67.9678 66.3022 67.6849 66.4554C67.296 66.6675 66.6713 67.3627 66.5888 67.6808C66.5535 67.8458 66.4592 67.9872 66.4003 67.9872C66.3296 67.9872 66.2824 68.0932 66.2824 68.2111C66.2824 68.5292 66.1174 68.5999 65.7756 68.4467C65.5281 68.3407 65.4221 68.3525 65.1864 68.5292C65.0214 68.6588 64.8092 68.8945 64.7031 69.0594C64.5028 69.4011 64.3967 69.2126 66.4592 72.1112C67.9088 74.1496 67.9678 74.2439 68.0267 74.8566C68.0621 75.163 68.121 75.4458 68.1799 75.4811C68.4746 75.6578 70.1717 74.3853 70.1717 73.9847C70.1717 73.914 69.936 73.6194 69.6413 73.3248C69.3467 73.042 69.0285 72.6414 68.9224 72.4293C68.8163 72.2172 68.5806 71.8873 68.4038 71.6988C68.2153 71.4985 67.9206 71.0507 67.7438 70.6973C67.4492 70.1081 67.4374 70.0256 67.5671 69.519C67.6496 69.1773 67.8499 68.8473 68.121 68.5881C68.6396 68.105 68.7574 68.2111 68.7574 69.1773C68.7574 69.7075 68.8046 69.8842 69.0285 70.0845C69.3467 70.3909 69.5353 70.4027 70.0067 70.167C70.1953 70.0728 70.4781 70.0256 70.6195 70.0728C70.867 70.1317 70.8788 70.1788 70.8081 70.8269C70.761 71.2628 70.7845 71.6399 70.867 71.852C71.0085 72.1937 71.5388 72.5825 71.8688 72.5825C71.9749 72.5825 72.6467 72.0169 73.3774 71.31C74.7209 70.0138 75.322 69.2126 76.7716 66.7618C77.2431 65.9605 77.5849 65.5128 77.7027 65.5128C78.1624 65.5128 78.8931 66.6086 78.8931 67.3038C78.8931 67.8576 77.8559 68.5056 76.7481 68.6588C76.1824 68.7295 75.9231 69.0359 75.9702 69.5425L76.0056 69.9314L77.0074 69.9549C77.9384 69.9903 78.0563 69.9667 78.7045 69.6014C79.1759 69.354 79.5766 69.0005 79.942 68.5292L80.4841 67.8458L80.4723 66.8796C80.4723 66.1373 80.4134 65.8427 80.2366 65.5717C79.9184 65.0886 79.3881 64.5702 78.7988 64.1931C78.2566 63.8278 78.2566 63.8632 78.7988 62.8027C78.9756 62.4492 79.1288 62.0604 79.1288 61.9544C79.1288 61.8483 79.1759 61.7305 79.2348 61.6951C79.2938 61.6598 79.3763 61.4359 79.4234 61.2003C79.4588 60.9646 79.5413 60.6818 79.6002 60.5758C79.7298 60.3048 79.9538 59.4328 80.0716 58.6905C80.1306 58.3488 80.2366 57.9128 80.3073 57.7361C80.3781 57.5711 80.4252 57.0527 80.4016 56.6049C80.3663 55.7919 80.3663 55.7919 80.0245 55.7919C79.6827 55.7919 79.6238 55.8626 79.3763 56.4871C79.2466 56.817 79.2231 56.817 78.5395 56.7699C77.962 56.7345 77.7734 56.6521 77.4788 56.3811C77.0663 55.9804 77.0545 55.9215 77.3609 55.5327C77.9502 54.7786 77.467 54.2012 76.2531 54.2012C75.7109 54.2012 75.5342 54.2601 75.2159 54.5311ZM78.3038 58.2899C78.4688 58.3959 78.6338 58.5491 78.6809 58.608C78.8341 58.8201 78.787 59.4093 78.5866 60.0338C78.4806 60.3519 78.3745 60.6936 78.3509 60.7643C78.292 60.9646 77.8206 60.9528 77.5495 60.7407C77.4199 60.6465 77.1959 60.564 77.0545 60.564C76.9131 60.564 76.6774 60.4579 76.5241 60.3401C76.2766 60.1516 76.2413 60.0102 76.2531 59.4093C76.2649 58.9497 76.3356 58.5845 76.4652 58.3959C76.6302 58.1249 76.7363 58.0896 77.3374 58.0896C77.7852 58.0896 78.1152 58.1603 78.3038 58.2899Z" fill="black"/>
<path d="M72.6703 64.2402C72.576 64.3345 72.5289 64.8058 72.5289 65.5599C72.5171 66.3729 72.47 66.8442 72.3521 67.0446C72.1635 67.3745 72.1282 67.8458 72.2814 68.0815C72.3285 68.1757 72.5996 68.27 72.8589 68.3053C73.3303 68.3642 73.3774 68.3407 73.8842 67.7987C74.1789 67.4805 74.4735 67.0328 74.5442 66.8089C74.6149 66.585 74.721 66.3494 74.7799 66.2787C74.9449 66.1137 74.9096 65.5717 74.7092 65.0768C74.4146 64.3345 73.1064 63.8043 72.6703 64.2402Z" fill="black"/>
<path d="M64.0077 71.6163C63.7249 71.9227 63.7602 72.5236 64.0667 72.8182C64.4085 73.1363 64.6442 73.1128 65.0449 72.7475C65.3159 72.5 65.3513 72.3822 65.2924 72.0759C65.257 71.8638 65.1274 71.6281 65.0213 71.5456C64.7384 71.3335 64.2317 71.3689 64.0077 71.6163Z" fill="black"/>
<path d="M65.5752 73.7962C65.3513 73.9022 65.2688 74.0554 65.2452 74.3853C65.1981 74.9862 65.3749 75.1748 65.9995 75.1748C66.4592 75.1748 66.5417 75.1394 66.6359 74.8684C66.7892 74.4796 66.6713 74.0318 66.3649 73.8197C66.0585 73.6076 65.9524 73.6076 65.5752 73.7962Z" fill="black"/>
<path d="M35.0505 51.5736C34.7441 51.6797 33.872 52.587 33.872 52.799C33.872 53.0347 34.4023 53.4942 34.6616 53.4942C34.9445 53.4942 35.9934 52.422 35.9934 52.1274C35.9934 51.7032 35.4984 51.4087 35.0505 51.5736Z" fill="black"/>
<path d="M25.6928 52.5045C25.5749 52.8227 25.6103 54.755 25.7517 55.1085C25.8224 55.2853 25.9285 55.9451 25.9874 56.5578C26.0464 57.1705 26.1642 58.0425 26.2585 58.502C26.3646 58.9497 26.4942 59.6449 26.5767 60.0338C26.6474 60.4226 26.7535 60.7879 26.8006 60.8586C26.8478 60.9175 26.9303 61.1649 26.9774 61.3888C27.0246 61.6127 27.1071 61.8719 27.1542 61.9779C27.2603 62.2018 27.7199 63.333 27.9085 63.8279C27.991 64.04 28.1324 64.2992 28.2267 64.417C28.321 64.5348 28.4978 64.8176 28.6038 65.0415C29.0871 65.9841 29.2403 66.2316 30.301 67.8105C31.7035 69.8843 32.116 70.3791 34.0488 72.3469C36.0052 74.3264 37.2191 75.2455 39.0577 76.1763C39.9298 76.6123 40.472 76.6948 40.7077 76.412C40.8138 76.2824 40.802 76.1881 40.6606 75.976C40.5545 75.8346 40.472 75.4811 40.472 75.1866C40.472 74.7506 40.5309 74.6092 40.8963 74.2793C41.3913 73.808 41.7448 73.7726 42.2045 74.1497C42.6641 74.5267 42.8998 74.5974 43.2298 74.4442C43.8191 74.185 43.8898 73.2306 43.4302 71.8991C43.3595 71.6988 43.2416 71.3453 43.1709 71.1332C43.1002 70.9329 43.0059 70.5441 42.9588 70.2731C42.8409 69.5897 42.4284 69.0477 42.0159 69.0477C41.5563 69.0477 41.2498 69.4247 41.3441 69.8371C41.3913 70.0139 41.4738 70.4263 41.5327 70.7562C41.5916 71.0743 41.6741 71.5221 41.7213 71.7224C41.7802 72.0641 41.7684 72.1112 41.5445 72.1112C41.403 72.1112 41.2027 72.0641 41.0848 72.0052C40.9788 71.9463 40.5781 71.7931 40.2009 71.6753C39.5645 71.4749 39.4938 71.4278 39.2698 70.9094L39.0223 70.3438L39.482 69.79C40.5191 68.5292 40.7313 67.9047 40.2598 67.4806C39.8827 67.1271 39.3523 67.2331 38.8927 67.7162C38.327 68.3407 37.5374 69.3305 37.0424 70.0374C36.3941 70.9683 35.5574 71.7577 35.2156 71.7577C35.0506 71.7577 34.7442 71.581 34.4849 71.3571C34.1195 71.0154 34.0724 70.9094 34.1784 70.7326C34.2492 70.6148 34.5438 70.4616 34.8384 70.3909C35.9581 70.1081 36.2763 69.7546 36.3116 68.7885C36.3234 68.3996 36.347 68.0697 36.3706 68.0579C36.3941 68.0343 36.7359 67.834 37.1366 67.5866C37.6906 67.2567 37.9145 67.0328 38.1031 66.6558C38.4331 65.9723 38.4095 65.7013 37.997 65.0768C37.5963 64.4877 37.4313 64.3345 36.3824 63.5686C35.7106 63.0973 35.4277 62.6849 35.7695 62.6849C35.8402 62.6849 35.8756 62.4846 35.852 62.1783L35.8167 61.6834L35.2863 61.648C34.7677 61.6127 34.0959 61.8483 33.3888 62.3432C33.2238 62.461 32.4931 62.8499 31.7742 63.2152C31.0435 63.5922 30.4188 63.9339 30.3835 63.9928C30.2774 64.1696 29.912 64.1107 29.6999 63.875C29.4642 63.6158 29.4878 63.2858 29.747 63.1445C29.9945 62.9913 33.8367 61.1649 34.4259 60.9057C34.9799 60.67 35.1684 60.2694 34.9563 59.7981C34.7206 59.2797 34.2609 59.2915 32.8113 59.857C32.4577 59.9984 32.0335 60.1516 31.8685 60.1987C31.5856 60.293 30.2067 60.9175 29.1931 61.4124C28.9221 61.542 28.6392 61.6245 28.5449 61.5891C28.321 61.5066 27.8613 60.1987 27.6374 58.9733C27.5903 58.7023 27.5078 58.4195 27.4488 58.3253C27.4017 58.2428 27.3074 57.8186 27.2603 57.3944C27.2131 56.9702 27.1188 56.3929 27.0481 56.1219C26.9656 55.7919 26.9538 55.5327 27.0363 55.3206C27.1424 55.0378 27.2013 55.0143 27.7081 55.0496L28.2738 55.085L28.2974 56.8053L28.321 58.5256L28.6981 59.1029C28.9103 59.4211 29.146 59.7156 29.2049 59.7628C29.3935 59.8924 30.4188 59.8806 30.6663 59.7392C30.7724 59.6803 31.2085 59.4918 31.621 59.315C32.446 58.9851 33.4713 58.3724 33.872 57.9718C34.1549 57.689 34.1784 57.2648 33.931 56.7935C33.7777 56.4989 33.6717 56.44 33.3063 56.44C33.0235 56.44 32.7052 56.546 32.4224 56.7464C31.3499 57.4769 30.4424 57.689 30.2185 57.2766C29.971 56.8053 30.1713 55.1321 30.5131 54.8022C30.5838 54.7433 31.1378 54.6372 31.7506 54.5783C32.3635 54.5076 33.0117 54.4016 33.2002 54.3309C33.4831 54.2248 33.5185 54.1423 33.5185 53.6828C33.5185 53.294 33.4595 53.1172 33.3181 53.0465C33.1413 52.964 28.3681 52.9758 27.0953 53.0583C26.836 53.0819 26.7417 53.023 26.7064 52.8462C26.6828 52.7166 26.6003 52.5399 26.5414 52.4574C26.3646 52.2571 25.7753 52.2806 25.6928 52.5045ZM35.0624 64.688C35.8167 65.0297 36.017 65.2182 35.9699 65.5364C35.9463 65.7603 35.8402 65.8192 35.4042 65.8781C34.7088 65.9841 34.2256 66.1727 33.9074 66.479C33.4949 66.8678 33.5656 67.2449 34.1195 67.7398C34.7206 68.27 34.697 68.6353 34.037 68.7649C33.2002 68.9181 32.7288 68.7649 32.057 68.0815C31.7035 67.7398 31.3381 67.2685 31.232 67.0446C31.1378 66.8207 30.9845 66.5379 30.902 66.4201C30.7724 66.2434 30.8078 66.1609 31.2203 65.8074C31.4795 65.5953 31.9745 65.2654 32.3163 65.0768C32.6699 64.9001 32.9999 64.6762 33.0706 64.5937C33.271 64.3699 34.4731 64.417 35.0624 64.688ZM38.7984 72.6179C39.3052 73.0892 38.9752 74.2321 38.327 74.2321C38.0559 74.2321 37.502 73.9494 37.3016 73.7255C36.9834 73.3366 37.8556 72.1466 38.327 72.3115C38.4331 72.3469 38.6452 72.4883 38.7984 72.6179Z" fill="black"/>
<path d="M33.872 73.8551C33.5774 74.0907 33.4713 74.6327 33.6481 74.9627C33.7306 75.1276 33.9074 75.1748 34.3788 75.1748C35.0977 75.1748 35.2863 75.0334 35.2863 74.5267C35.2863 74.0672 35.1802 73.9375 34.7913 73.8433C34.6263 73.7962 34.4023 73.7372 34.3198 73.7019C34.2256 73.6665 34.0252 73.7255 33.872 73.8551Z" fill="black"/>
<path d="M88.0742 22.5406C87.7089 22.8116 87.2964 23.118 87.1432 23.2122C87.0017 23.3065 86.66 23.5539 86.3889 23.7543C86.1296 23.9428 85.6582 24.2727 85.3635 24.473C85.0571 24.6733 84.4678 25.1682 84.0435 25.5688C82.7707 26.7589 82.6293 27.5248 83.3718 29.033C83.8432 29.9874 84.4914 30.7415 85.1867 31.1539C85.9057 31.5781 86.9192 31.5781 87.7089 31.1775C88.911 30.553 92.4703 28.0197 92.6824 27.6426C92.8238 27.3598 92.8121 27.3009 92.4821 26.8296C91.9753 26.1344 91.6453 26.1344 90.7378 26.806C90.3489 27.1006 89.7831 27.5012 89.4767 27.7015C89.1585 27.9018 88.911 28.1139 88.911 28.161C88.911 28.22 88.6871 28.3731 88.416 28.5145C88.1332 28.6441 87.6617 28.9152 87.3553 29.1155C86.4125 29.74 85.5757 29.5396 85.1042 28.597C84.7507 27.89 84.9039 27.3362 85.6464 26.7118C85.9882 26.429 86.4832 26.0401 86.7542 25.8516C87.0371 25.6631 87.7914 25.1446 88.4514 24.6851C89.1114 24.2374 89.7242 23.7425 89.8185 23.6011C89.9835 23.3536 89.9717 23.2947 89.7949 23.0001C89.5003 22.5406 89.0053 22.034 88.8639 22.0457C88.7932 22.0457 88.4396 22.2696 88.0742 22.5406Z" fill="black"/>
<path d="M15.4274 23.2947C15.2035 23.5304 15.0149 23.8014 15.0149 23.9192C15.0149 24.1785 15.5688 24.6733 17.0185 25.722C18.8806 27.0653 18.9513 27.1242 18.7627 27.2302C18.6684 27.2774 18.3738 27.2774 18.1027 27.2067C17.4663 27.0653 13.412 26.8767 13.0585 26.971C12.7756 27.0417 12.0685 27.9725 12.0685 28.2907C12.0685 28.4556 12.8935 29.0684 16.4763 31.5545C18.4681 32.9331 18.7509 33.1099 18.9277 33.1099C19.1517 33.1099 19.7292 32.2615 19.7292 31.9316C19.7292 31.6017 19.4345 31.3425 17.7963 30.2349C17.042 29.7282 16.4292 29.2215 16.4292 29.1273C16.4292 28.9741 16.771 28.9623 19.1281 29.0212L21.827 29.0801L22.1216 28.7738C22.5931 28.2671 22.817 27.8312 22.7345 27.6073C22.6991 27.4895 22.3691 27.2067 22.0038 26.9828C21.6384 26.7589 20.837 26.1933 20.2124 25.7456C19.1752 24.9915 17.7845 24.0253 16.5117 23.1769C16.2524 23.0002 15.9931 22.8588 15.9342 22.8588C15.887 22.8588 15.6631 23.0473 15.4274 23.2947Z" fill="black"/>
<path d="M93.1538 30.7416C92.5999 30.989 91.6453 31.425 91.0324 31.7195C89.6888 32.3676 88.6281 32.8507 87.6499 33.2867C87.2492 33.4634 86.8957 33.6637 86.8721 33.7462C86.7896 33.9583 87.3789 35.1012 87.6146 35.1719C87.7206 35.2073 88.1331 35.0776 88.5339 34.8773C88.9228 34.6888 89.2764 34.5239 89.3235 34.5239C89.3589 34.5239 89.8774 34.2882 90.4667 33.9936C92.0224 33.2277 92.1403 33.3456 91.1856 34.7359C90.9028 35.1483 90.6788 35.5136 90.6788 35.549C90.6788 35.5843 90.5256 35.8082 90.3253 36.0556C90.1367 36.3031 89.9717 36.5387 89.9717 36.5741C89.9717 36.6094 89.736 36.9865 89.4413 37.4224C88.911 38.1883 88.8167 38.4593 89.0171 38.5772C89.076 38.6125 89.1585 38.7893 89.2056 38.966C89.3235 39.4491 89.7242 39.8379 90.0188 39.7555C90.2781 39.6848 90.7613 39.4727 92.3878 38.7068C92.9063 38.4593 93.6488 38.1176 94.0378 37.9409C96.3124 36.904 96.8899 36.5976 97.1138 36.3266C97.3495 36.0438 97.3613 36.0321 97.1492 35.6314C96.8663 35.0541 96.6895 34.8773 96.4538 34.8773C96.336 34.8773 95.4638 35.2426 94.5092 35.7021C92.8592 36.4916 92.3288 36.6566 92.3288 36.4091C92.3288 36.3502 92.9653 35.3487 93.7431 34.1704C94.5327 33.0039 95.1927 31.967 95.2281 31.8727C95.3931 31.4603 94.7331 30.282 94.356 30.282C94.2499 30.282 93.7078 30.4941 93.1538 30.7416Z" fill="black"/>
<path d="M11.4202 31.8138C10.4302 32.0377 9.46382 32.9214 8.87453 34.1468C8.52097 34.8656 8.48561 35.0305 8.48561 35.9967C8.48561 36.8804 8.53275 37.1514 8.76846 37.6463C9.44025 39.0131 11.2081 40.1089 13.1527 40.3799C13.5652 40.4389 14.567 40.1914 15.0149 39.9322C15.1091 39.8733 15.2977 39.779 15.4274 39.7201C16.1345 39.402 16.9948 38.0116 17.2659 36.7272C17.4427 35.926 17.2659 34.7242 16.877 34.0879C16.5116 33.487 15.4274 32.5679 14.6259 32.1791C14.0131 31.8963 13.6713 31.8256 12.8227 31.7784C12.2452 31.7549 11.6206 31.7667 11.4202 31.8138ZM12.8934 33.6519C13.9541 34.0408 14.3784 34.2764 14.8616 34.7477C15.8163 35.7021 15.8045 36.904 14.8381 37.7877C14.2959 38.2826 14.2606 38.2944 13.4709 38.2944C13.0231 38.2944 12.5634 38.2472 12.4456 38.1883C12.3395 38.1294 12.0095 37.9644 11.7149 37.8231C10.3713 37.175 9.86453 35.9967 10.4067 34.8184C10.6542 34.2646 10.9606 33.9701 11.5734 33.6873C12.1274 33.428 12.2452 33.428 12.8934 33.6519Z" fill="black"/>
<path d="M97.3967 38.8835C97.3024 38.9424 97.1138 39.0013 96.9842 39.0013C96.8545 39.0013 96.5952 39.0838 96.4067 39.1781C96.2299 39.2723 95.9588 39.3548 95.8174 39.3548C95.6877 39.3666 95.4402 39.4373 95.2752 39.5315C95.1103 39.6258 94.8628 39.6965 94.7213 39.7083C94.5799 39.7083 94.2853 39.779 94.0731 39.8732C93.861 39.9557 93.366 40.1207 92.977 40.2385C92.5881 40.3446 92.0931 40.5095 91.881 40.6038C91.6688 40.698 91.3978 40.7687 91.2799 40.7687C91.1621 40.7687 90.8203 40.8748 90.5138 41.0044C90.1014 41.1929 89.9717 41.3108 89.9717 41.5229C89.9717 41.6642 90.0071 41.8292 90.066 41.8763C90.1131 41.9235 90.2074 42.1591 90.2664 42.3948C90.3606 42.7247 90.4667 42.8425 90.6788 42.8661C90.9381 42.9132 91.8574 42.6776 92.5646 42.383C92.7296 42.3241 93.0478 42.2298 93.2717 42.1827C93.4956 42.1238 93.8728 42.0295 94.0967 41.947C95.0631 41.6171 95.2281 41.57 95.511 41.5111C95.676 41.4757 95.9706 41.3815 96.1827 41.2872C96.3831 41.1929 96.6424 41.1222 96.772 41.1222C96.8899 41.1105 97.1138 41.0398 97.2788 40.9455C97.4438 40.8512 97.7149 40.7805 97.8917 40.7687C98.257 40.7687 98.5752 40.4977 98.5752 40.1678C98.5752 40.05 98.4574 39.6847 98.3159 39.3548C98.0567 38.7539 97.7974 38.6243 97.3967 38.8835Z" fill="black"/>
<path d="M6.68256 40.863C6.54114 40.9455 6.27007 42.3123 6.36435 42.4066C6.48221 42.5362 7.34256 42.7954 7.89648 42.8897C8.22648 42.9368 8.61541 43.0429 8.74505 43.1136C8.87469 43.1843 9.15755 43.2432 9.3579 43.2432C9.55826 43.2432 9.91183 43.3257 10.1475 43.4199C10.3715 43.5142 10.7133 43.5967 10.89 43.5967C11.0668 43.5967 11.4086 43.6792 11.6325 43.7734C11.8682 43.8677 12.21 43.9502 12.3986 43.9502C12.5872 43.9502 12.9407 44.0326 13.1647 44.1269C13.4004 44.2212 13.8129 44.3036 14.0722 44.3036C14.5907 44.3036 14.6025 44.2919 14.9089 43.2668C14.9914 42.9957 15.015 42.7365 14.9679 42.6894C14.8147 42.5362 14.0014 42.277 13.424 42.1945C13.1057 42.1474 12.7168 42.0531 12.5754 41.9706C12.434 41.8882 12.1629 41.8292 11.9743 41.8292C11.7857 41.8292 11.3968 41.7468 11.1258 41.6525C10.8547 41.5582 10.454 41.4758 10.2536 41.4758C10.0533 41.464 9.75862 41.3933 9.59362 41.299C9.42862 41.2047 9.13398 41.1341 8.93362 41.1223C8.73327 41.1223 8.36791 41.0398 8.14398 40.9455C7.68434 40.757 6.91828 40.7099 6.68256 40.863Z" fill="black"/>
<path d="M98.2805 42.3948C96.5834 43.3727 96.0766 43.6555 94.6152 44.4332C93.967 44.7749 93.4012 45.0813 93.3305 45.1284C93.2716 45.1873 92.8473 45.423 92.3877 45.6586C91.1855 46.3067 91.1502 46.342 91.2327 47.0608C91.268 47.3907 91.4095 47.8267 91.5391 48.027C91.7984 48.4158 92.1166 48.5101 94.0612 48.7929C94.4737 48.84 94.9098 48.946 95.0277 49.0167C95.1573 49.0757 95.4284 49.1346 95.6287 49.1346C95.8409 49.1346 96.3241 49.2053 96.7248 49.2995C98.6812 49.7591 100.013 49.9594 100.166 49.818C100.237 49.7591 100.272 49.4174 100.26 49.0521C100.213 48.2155 99.9069 47.8502 99.2234 47.8385C98.9641 47.8267 98.5162 47.7795 98.2216 47.7088C97.9269 47.6381 97.2787 47.5439 96.7719 47.485C96.2769 47.4261 95.7584 47.32 95.6287 47.2493C95.5109 47.1904 95.1809 47.1315 94.898 47.1315C94.1202 47.1315 93.9905 46.9783 94.5327 46.672C94.7802 46.5188 95.063 46.3656 95.1573 46.3185C97.8798 44.9163 99.0819 44.2329 99.2351 43.9855C99.3176 43.8441 99.3412 43.4906 99.2941 43.0075C99.2234 42.3005 99.1998 42.2416 98.9287 42.218C98.7637 42.2062 98.4809 42.2769 98.2805 42.3948Z" fill="black"/>
<path d="M6.02238 44.2683C5.91631 44.5157 5.77488 45.1637 5.71596 45.7175C5.64524 46.2713 5.50381 47.2493 5.39774 47.8974C5.29167 48.5454 5.1856 49.3938 5.15024 49.7944L5.09132 50.5132L5.60988 50.6428C6.04595 50.7606 6.15202 50.7488 6.41131 50.5603C6.65881 50.3836 6.71773 50.2186 6.78845 49.5352C6.89452 48.5219 7.03595 48.3805 7.94344 48.4865C8.29701 48.5337 8.68594 48.6161 8.79201 48.675C8.89808 48.734 9.21629 48.7811 9.49915 48.7811C9.782 48.7811 10.3831 48.8518 10.8309 48.9461C11.2906 49.0403 12.0802 49.1817 12.5988 49.2524L13.5298 49.3938L13.8127 49.0757C14.0366 48.8164 14.072 48.6397 14.0484 48.1448L14.013 47.5439L13.3413 47.4614C12.9641 47.4143 12.5516 47.32 12.4338 47.2493C12.3041 47.1904 11.9388 47.1315 11.6323 47.1315C11.3141 47.1315 10.772 47.0608 10.4184 46.9665C10.0649 46.884 9.41665 46.778 8.98058 46.7427C8.54451 46.6955 8.01416 46.5777 7.8138 46.4716L7.43666 46.2831L7.50737 45.3051C7.57809 44.1622 7.49559 44.0326 6.69416 43.903C6.22274 43.8205 6.21095 43.8323 6.02238 44.2683Z" fill="black"/>
<path d="M12.5399 51.3733C11.8916 51.7504 5.82204 54.6725 5.71597 54.6725C5.51561 54.6725 5.23276 55.2617 5.23276 55.6977C5.23276 56.2632 5.42133 56.9231 5.6099 57.0527C5.6924 57.0998 5.90454 57.1469 6.08132 57.1469C6.25811 57.1469 6.42311 57.1941 6.47025 57.253C6.5056 57.3119 6.70596 57.3944 6.9181 57.4415C7.11846 57.4887 7.67238 57.6418 8.12024 57.7832C8.57988 57.9364 9.49916 58.231 10.1827 58.4431C10.8663 58.6434 11.6324 58.8908 11.8916 58.9733C12.1509 59.0558 12.5399 59.1618 12.7402 59.209C12.9524 59.2561 13.1527 59.3386 13.1881 59.3975C13.4356 59.7863 14.072 59.1854 14.072 58.5727C14.072 57.9482 13.7302 57.5593 12.9524 57.3237C11.9388 57.0056 11.9624 57.0291 11.9506 55.4973C11.9388 54.755 11.9388 54.0716 11.9388 53.9891C11.9506 53.9067 12.2334 53.7063 12.587 53.5414C12.9406 53.3882 13.3177 53.1054 13.4356 52.9287C13.8009 52.3631 13.5652 51.1259 13.082 51.1377C13.0113 51.1377 12.7638 51.2437 12.5399 51.3733ZM10.1592 54.9318C10.3713 55.1439 10.3359 56.1454 10.112 56.3339C9.9588 56.4518 9.81737 56.4518 9.26345 56.275C8.06131 55.898 8.01417 55.8744 8.19095 55.6623C8.34417 55.4738 9.65237 54.8139 9.89987 54.8022C9.9588 54.7904 10.0767 54.8493 10.1592 54.9318Z" fill="black"/>
<path d="M91.822 52.0449C91.7748 52.0803 91.7395 53.4353 91.7395 55.0496C91.7395 57.8186 91.7512 57.9835 91.9752 58.2074C92.2816 58.5137 92.6823 58.502 93.083 58.1956L93.3894 57.9599V55.9215C93.3894 54.5076 93.4366 53.8477 93.5309 53.7535C93.743 53.5414 95.0984 53.5649 95.2751 53.7888C95.3812 53.9184 95.4166 54.4722 95.4048 55.7919L95.3812 57.6065L95.7348 57.7832C96.1826 58.0189 96.3712 58.0189 96.8073 57.795L97.1608 57.6065V55.733C97.1608 54.0009 97.1726 53.8477 97.3848 53.7299C97.6912 53.5649 98.2569 53.5767 98.4337 53.7535C98.528 53.8477 98.5751 54.5076 98.5751 55.9333V57.9717L98.8816 58.0896C99.2941 58.2545 100.037 58.231 100.202 58.066C100.308 57.9599 100.343 57.1469 100.343 55.1321C100.343 53.5885 100.308 52.257 100.272 52.151C100.213 51.986 99.7301 51.9625 96.053 51.9625C93.7666 51.9625 91.8573 51.9978 91.822 52.0449Z" fill="black"/>
<path d="M91.4684 59.586C91.433 59.6449 91.3034 59.9866 91.1737 60.3637L90.9262 61.0353L91.2444 61.3299C91.433 61.5066 91.7041 61.6245 91.9162 61.6245C92.1048 61.6362 92.3994 61.7069 92.5644 61.8012C92.7294 61.8955 93.0477 61.9662 93.2834 61.9779C93.5191 61.9779 93.8373 62.0722 93.9787 62.19C94.2262 62.3903 94.238 62.4375 94.1084 62.8381C93.9669 63.2623 93.4484 63.7454 93.1301 63.7454C93.0477 63.7454 92.8709 63.8279 92.753 63.9221C92.6234 64.0164 92.4112 64.0989 92.2698 64.0989C92.1284 64.0989 91.9162 64.1813 91.7866 64.2756C91.6687 64.3699 91.4684 64.4524 91.3505 64.4524C91.0677 64.4524 90.4902 64.7587 90.1837 65.0651C89.9598 65.2889 89.8066 65.6896 89.6534 66.479C89.5709 66.9032 89.842 67.0092 90.4902 66.8207C90.7612 66.75 91.1384 66.6322 91.3269 66.5733C92.1519 66.3258 92.7648 66.0666 93.1301 65.7838C93.5662 65.4539 93.9198 65.501 93.8255 65.8663C93.7666 66.1137 94.0966 66.8325 94.4973 67.2567C95.2516 68.0933 96.6776 68.2347 97.5969 67.5748C98.1037 67.2095 98.4101 66.6558 98.7519 65.4539C98.858 65.0651 98.9994 64.582 99.0583 64.3817C99.1173 64.1931 99.2115 63.7925 99.2705 63.4979C99.3412 63.2152 99.459 62.7203 99.5298 62.4139C99.6712 61.8955 99.6594 61.8248 99.4473 61.6127C99.3176 61.4831 98.9523 61.3299 98.6223 61.271C97.974 61.1531 97.1962 60.9646 96.5716 60.7643C96.3476 60.6936 95.9469 60.5994 95.6876 60.5522C95.0866 60.4344 94.3087 60.2341 93.6251 60.022C93.3305 59.9277 92.9769 59.857 92.8473 59.857C92.7059 59.857 92.3994 59.7746 92.1755 59.6803C91.6923 59.48 91.5391 59.4682 91.4684 59.586ZM97.0783 62.9677C97.4673 63.1445 97.5144 63.2034 97.5144 63.604C97.5026 63.8396 97.4319 64.1696 97.3376 64.3345C97.2433 64.4995 97.1726 64.7823 97.1608 64.9708C97.1608 65.4775 96.7483 65.8663 96.2062 65.8663C95.5462 65.8663 95.393 65.6424 95.393 64.7116C95.4048 64.252 95.4755 63.8043 95.5698 63.6276C95.6641 63.4626 95.7348 63.2152 95.7466 63.0738C95.7466 62.6378 96.2062 62.6024 97.0783 62.9677Z" fill="black"/>
<path d="M13.5416 60.0927C13.412 60.1516 13.0702 60.1987 12.7755 60.1987C12.4809 60.2105 11.9505 60.2812 11.597 60.3755C11.2434 60.4579 10.5952 60.564 10.1591 60.5993C9.71128 60.6465 9.25164 60.729 9.13378 60.7997C9.00414 60.8586 8.65057 60.9175 8.33235 60.9175C7.84914 60.9175 6.10487 61.2945 5.97523 61.4359C5.95166 61.4595 5.97523 61.813 6.02237 62.2254L6.11665 62.9795L6.96522 63.0148C7.49557 63.0384 8.06129 62.9795 8.43843 62.8617C8.76842 62.7674 9.29878 62.6849 9.6052 62.6849C9.89985 62.6849 10.3831 62.6024 10.6541 62.5082C10.9252 62.4139 11.432 62.3314 11.7738 62.3314C12.1155 62.3314 12.6223 62.2489 12.8934 62.1547C13.1645 62.0604 13.5888 61.9779 13.8245 61.9779C14.3666 61.9662 14.7791 61.4948 14.567 61.1414C14.4845 61.0235 14.4255 60.8114 14.4255 60.67C14.4255 60.0809 14.0837 59.857 13.5416 60.0927Z" fill="black"/>
<path d="M12.3868 63.8161C12.3397 63.8632 12.3043 64.2403 12.3043 64.6409V65.395L12.7757 65.6306C13.0232 65.7603 13.3768 65.8663 13.5536 65.8663C14.2372 65.8663 14.9089 67.0092 14.7322 67.8694C14.5554 68.7885 13.1175 69.684 11.385 69.955C10.5483 70.0846 9.58183 69.3187 9.40505 68.3643C9.31076 67.8694 9.55826 67.0682 9.8529 66.915C10.1711 66.7382 10.1122 66.373 9.64076 65.7367C9.29898 65.2654 9.16934 65.1711 8.95719 65.2182C8.2147 65.4421 7.41328 67.1035 7.59006 68.1051C7.89649 69.8136 8.50934 70.768 9.75862 71.4396C10.2654 71.7224 10.454 71.7577 11.4793 71.7577C13.2 71.7577 14.3079 71.3218 15.3332 70.226C16.2172 69.2833 16.4293 68.7767 16.4293 67.6573C16.4293 65.937 15.5925 64.5584 14.19 63.9928C13.7186 63.8043 12.5165 63.6865 12.3868 63.8161Z" fill="black"/>
<path d="M89.1465 68.541C88.6633 68.8592 88.2036 69.3187 88.2036 69.4719C88.2036 69.5543 88.1329 69.6722 88.0386 69.7193C87.9561 69.7664 87.7204 70.1788 87.5083 70.6148C87.2019 71.2864 87.1429 71.5574 87.1429 72.3115C87.1429 73.4073 87.3904 73.8433 88.3804 74.5149C88.7576 74.7742 88.9579 74.8213 89.6651 74.8213C90.1247 74.8095 90.6197 74.7506 90.7611 74.6681C90.9025 74.5856 91.5861 73.9847 92.2697 73.3131C93.3775 72.2408 93.5661 72.0994 93.8843 72.1348C94.3911 72.1819 94.5325 72.4412 94.3557 73.0303C94.1318 73.7726 93.625 74.2321 93.0593 74.2321C92.5408 74.2321 92.305 74.4678 91.9868 75.2573C91.8454 75.5872 91.8572 75.6814 92.0222 75.9407C92.199 76.1999 92.2933 76.2352 92.9415 76.2352C94.179 76.2352 94.9215 75.6107 95.7464 73.914C96.3239 72.7239 96.1943 71.3571 95.4282 70.6737C95.11 70.3791 94.2025 69.9903 93.8254 69.9903C93.2125 69.9903 92.6704 70.332 91.3504 71.581C90.2661 72.5943 89.9715 72.8182 89.6651 72.8182C88.6279 72.8182 88.6751 71.1333 89.7476 70.3556C90.0304 70.1435 90.2779 70.0728 90.6904 70.0846C91.3033 70.0964 91.4447 69.9903 91.7629 69.2716C91.9515 68.8474 91.9515 68.8356 91.6922 68.5882C91.4683 68.3761 91.2915 68.3407 90.4311 68.3525C89.724 68.3525 89.3586 68.4114 89.1465 68.541Z" fill="black"/>
<path d="M14.6377 72.5118C13.8481 72.9125 12.481 74.1261 12.1981 74.6799C11.9742 75.0923 11.7149 76.0231 11.7149 76.3766C11.7149 77.4017 12.4338 78.9571 13.2942 79.7465C14.072 80.4653 14.7438 80.7127 15.9106 80.7127C16.4645 80.7127 16.9949 80.6656 17.1127 80.5949C17.2188 80.536 17.5724 80.371 17.8906 80.2296C18.5859 79.9351 18.6566 79.8879 19.4934 79.0631C20.4363 78.1441 20.672 77.5903 20.672 76.3177C20.672 75.2101 20.5659 74.8684 19.8706 73.7844C19.6113 73.3838 19.1988 72.9832 18.7391 72.665L18.0202 72.1701L16.7238 72.1348C15.4509 72.1112 15.4156 72.1112 14.6377 72.5118ZM17.6313 74.1143C18.7981 74.6328 19.2695 76.0114 18.6213 77.0483C17.9731 78.0734 16.8299 78.745 15.7102 78.7568C15.0384 78.7686 14.8734 78.7214 14.4492 78.4269C13.5417 77.8024 13.3177 76.3648 13.9895 75.4811C14.5199 74.7859 16.052 73.9258 16.7945 73.8904C16.9713 73.8787 17.3366 73.9847 17.6313 74.1143Z" fill="black"/>
<path d="M85.0335 74.9391C84.5738 75.6107 84.5974 75.9407 85.1042 76.2588C85.281 76.3766 85.7524 76.7066 86.1413 77.0011C86.5303 77.2957 87.0724 77.6374 87.3552 77.767C87.6263 77.9084 87.8502 78.0616 87.8502 78.1205C87.8502 78.1676 88.0977 78.3797 88.416 78.58C88.7224 78.7803 89.3824 79.2281 89.8774 79.5934C90.3724 79.9468 90.9617 80.3121 91.1856 80.4064C91.5745 80.5596 91.6099 80.5596 91.822 80.3239C92.0459 80.0647 92.4466 79.2634 92.4466 79.0749C92.4466 79.016 92.2699 78.8628 92.0695 78.7332C91.8574 78.5918 91.3388 78.2501 90.9145 77.9555C90.4902 77.661 89.8892 77.225 89.5592 77.0129C89.2409 76.789 88.6752 76.4002 88.3217 76.1528C86.4124 74.8095 85.7053 74.35 85.5756 74.35C85.4931 74.35 85.2574 74.6092 85.0335 74.9391Z" fill="black"/>
<path d="M81.9337 78.8864C81.6862 79.0985 81.4859 79.3931 81.4859 79.5227C81.4859 79.6641 81.7098 79.9468 82.028 80.2061C82.5112 80.6067 83.8076 81.6907 84.8448 82.5626C86.8012 84.224 86.7423 84.0591 85.764 85.1313C85.4223 85.5084 85.1394 85.8619 85.1394 85.9208C85.1394 86.0622 86.1176 86.9577 86.259 86.9459C86.3887 86.9341 87.6262 85.5908 88.0858 84.9546C88.2508 84.7307 88.4865 84.4479 88.6162 84.3183C88.9462 83.9884 89.5119 83.2932 89.7947 82.8926C89.9244 82.704 90.1483 82.433 90.3015 82.2799C90.6433 81.9028 90.6315 81.7968 90.1483 81.2665C89.7594 80.8541 89.3351 80.701 89.2408 80.9366C89.1347 81.2312 88.0033 82.4802 87.8383 82.4802C87.7322 82.4802 87.249 82.1267 86.7658 81.6789C86.2708 81.243 85.5637 80.642 85.1865 80.3239C84.7976 80.0175 84.1612 79.4755 83.7487 79.122C82.8648 78.3326 82.5583 78.2972 81.9337 78.8864Z" fill="black"/>
<path d="M21.4969 79.2398C20.9666 79.5344 20.5305 79.9232 20.2477 80.3828C20.012 80.748 19.9648 80.9837 19.9648 81.6789C19.9648 82.4094 20.0237 82.6333 20.3891 83.3874C20.6248 83.8587 20.8723 84.2829 20.9194 84.3182C20.9784 84.3536 21.0255 84.4714 21.0255 84.5892C21.0255 84.7071 21.108 84.872 21.2023 84.9545C21.6148 85.2962 21.2848 86.015 20.7191 86.015C20.3773 86.015 19.7527 85.5908 19.5995 85.2491C19.5405 85.1195 19.4345 84.9192 19.352 84.8131C19.2341 84.6482 19.2459 84.5421 19.4109 84.2593C19.517 84.0708 19.6112 83.8234 19.6112 83.6937C19.6112 83.4345 18.6212 82.3623 18.3738 82.3623C18.2795 82.3623 18.0438 82.5862 17.8434 82.8572C17.5252 83.2931 17.4898 83.4227 17.4898 84.2475C17.4898 84.9192 17.537 85.202 17.6666 85.308C17.7609 85.3905 17.8434 85.5201 17.8434 85.6026C17.8434 85.85 19.2577 87.3111 19.7291 87.5467C20.177 87.7706 20.7073 87.8531 21.5087 87.806C21.8505 87.7824 22.0627 87.6646 22.5341 87.1815C23.0291 86.6866 23.1351 86.4981 23.2059 86.015C23.3237 85.1666 23.1823 84.5539 22.593 83.4345C21.9448 82.162 21.8387 81.5493 22.2041 81.184C22.5694 80.8187 23.1823 80.9483 23.7598 81.5139C24.3255 82.0677 24.4669 82.7982 24.1487 83.4699C23.9719 83.8234 23.9601 83.953 24.078 84.1651C24.2194 84.4243 25.0562 85.0723 25.2448 85.0723C25.4334 85.0723 25.8694 84.4596 26.1051 83.8587C26.388 83.1517 26.3408 82.5744 25.9519 81.6789C25.6691 81.019 24.2784 79.6287 23.5712 79.2869C23.0291 79.0277 21.9448 79.0042 21.4969 79.2398Z" fill="black"/>
<path d="M78.2568 82.5508L77.6911 83.0693L78.0093 83.4934C78.1861 83.7173 78.7871 84.4007 79.3528 84.9899C79.9186 85.5908 80.8614 86.6277 81.4507 87.3111C82.9003 88.9843 83.4307 89.4791 83.631 89.3613C83.7135 89.3142 83.9846 89.1021 84.2203 88.9136C84.7625 88.4658 84.8096 88.0652 84.3617 87.6528C84.185 87.4996 83.6782 86.9458 83.2185 86.4274C81.1207 84.0355 79.1996 82.0088 79.0228 82.0088C78.9168 82.0206 78.575 82.2562 78.2568 82.5508Z" fill="black"/>
<path d="M75.6521 84.6011C75.2043 84.9074 74.0729 85.6851 73.1536 86.3096C71.8454 87.1933 71.4682 87.5114 71.4682 87.7117C71.4682 88.0181 72.0104 88.8429 72.2107 88.8429C72.2932 88.8429 73.1418 88.3127 74.1082 87.6646C75.0746 87.0166 75.9232 86.4863 75.9939 86.4863C76.1825 86.4863 77.0193 87.7942 76.9839 88.0181C76.9486 88.1831 76.7246 88.3598 74.8507 89.6206C74.3911 89.9387 74.0375 90.2686 73.9904 90.4218C73.8961 90.8224 74.3675 91.553 74.7211 91.553C74.8861 91.553 75.6404 91.1288 76.4889 90.5396C77.3021 89.9858 78.0446 89.5617 78.1271 89.597C78.3393 89.6677 78.9285 90.6928 78.846 90.8224C78.8107 90.8813 78.41 91.1759 77.9621 91.4823C77.5025 91.7886 77.1018 92.0832 77.0664 92.1303C77.0311 92.1892 76.7836 92.3542 76.5125 92.4956C75.9821 92.7666 75.4871 93.2733 75.4754 93.5325C75.4754 93.7799 76.0764 94.4987 76.2886 94.4987C76.3946 94.4987 77.5614 93.7681 78.8932 92.8726C80.555 91.7651 81.321 91.1877 81.3446 91.0227C81.3682 90.8813 81.2503 90.5985 81.0853 90.3747C80.5668 89.6559 79.1878 87.6175 79.0935 87.429C78.8107 86.8634 76.7953 84.0708 76.6539 84.0473C76.5596 84.0355 76.1118 84.2829 75.6521 84.6011Z" fill="black"/>
<path d="M28.0617 84.4714C27.7552 84.5893 27.2485 84.9192 26.9302 85.2137C26.4706 85.6379 26.3527 85.85 26.2349 86.3803C26.011 87.4289 26.2938 88.1712 27.331 89.3731C28.1559 90.3157 28.5095 90.9874 28.3445 91.3055C28.1442 91.6708 27.7906 91.7179 27.2485 91.4351C26.5767 91.0816 26.341 90.7635 26.3292 90.1743C26.3292 89.4909 26.2585 89.3731 25.6338 88.9254C25.1152 88.5483 25.0681 88.5365 24.8442 88.7133C24.4553 89.0314 24.2903 89.8091 24.4553 90.5632C24.5378 90.9167 24.6674 91.2584 24.7617 91.3291C24.8442 91.3998 24.9149 91.5294 24.9149 91.6236C24.9149 91.8239 25.7517 92.4956 26.5767 92.9551C27.4252 93.4264 28.5567 93.4735 29.2874 93.0611C30.3245 92.4838 30.737 91.1641 30.2302 90.1036C30.0888 89.8091 29.9002 89.5381 29.8059 89.5027C29.7117 89.4674 29.6292 89.3613 29.6292 89.2671C29.6292 89.1728 29.3817 88.8193 29.087 88.4658C28.0734 87.2875 27.932 86.7102 28.5684 86.3685C28.9102 86.1799 29.2638 86.2271 29.9238 86.5334C30.6545 86.8869 30.8077 87.1697 30.8077 88.1948C30.8077 88.9961 30.902 89.1728 31.5031 89.4909C32.0216 89.7502 32.2809 89.6088 32.5638 88.8782C32.8702 88.0888 32.8702 87.9238 32.6109 87.1697C32.222 86.0621 31.0199 85.0017 29.5584 84.495C28.757 84.2122 28.7924 84.2122 28.0617 84.4714Z" fill="black"/>
<path d="M33.9545 87.8532C33.8249 87.9828 33.8485 96.325 33.9781 96.6667C34.0959 96.9495 34.7206 97.303 35.4395 97.4915C35.7106 97.5505 35.852 97.4915 36.347 97.0202C36.677 96.7139 36.9363 96.4075 36.9363 96.3486C36.9363 96.2779 37.3488 95.8184 37.8556 95.3235C38.3624 94.8404 39.1756 93.9567 39.6823 93.3793C40.8256 92.0361 41.0613 91.7769 41.4738 91.4587C41.7684 91.2231 41.792 91.1641 41.6623 90.9167C41.4855 90.5986 40.7784 90.2569 40.2834 90.2569C40.0006 90.2569 39.812 90.3865 39.3641 90.9049C38.7631 91.6119 38.6688 91.6472 38.162 91.3762C37.9734 91.282 37.7377 91.1995 37.6434 91.1995C37.5374 91.1995 37.4077 91.1524 37.3488 91.1052C37.2781 91.0463 36.9834 90.9049 36.6652 90.7989C35.8284 90.4925 35.7577 90.3747 35.7577 89.3849C35.7577 88.4187 35.7224 88.3716 34.9327 88.077C34.1077 87.7825 34.0488 87.7589 33.9545 87.8532ZM36.9009 92.6724C37.3841 92.8727 37.4077 93.1672 36.9716 93.6739C36.1231 94.6754 36.0288 94.7697 35.8992 94.6872C35.7459 94.593 35.6988 92.5899 35.8402 92.4485C35.9345 92.3542 36.3352 92.4367 36.9009 92.6724Z" fill="black"/>
<path d="M67.8146 88.9843C66.5299 89.5617 66.1764 89.7737 65.7521 90.2097C65.0803 90.8931 64.8682 91.7297 65.1392 92.6841C65.3749 93.4971 65.7757 94.0391 66.3649 94.3337C66.8481 94.5812 67.956 94.6165 69.771 94.4398C70.5842 94.3691 70.7492 94.3808 70.9142 94.5576C71.3267 94.9582 71.091 95.4295 70.2778 95.7948C69.5942 96.1011 69.3231 96.0894 68.8988 95.7359C68.4746 95.3824 68.1328 95.3706 67.4964 95.677C66.7892 96.0187 66.7421 96.3015 67.296 96.8788C67.8146 97.4208 68.5335 97.7861 69.0638 97.7979C70.0185 97.7979 71.9513 96.9142 72.5053 96.219C73.2949 95.2057 73.071 93.6032 72.0338 92.8844L71.5506 92.5545L69.4763 92.5781C67.1781 92.6134 66.9896 92.5663 66.9896 91.8475C66.9896 91.2348 67.8499 90.5985 68.6867 90.5868C69.1346 90.575 69.3113 90.6457 69.7592 91.0227L70.3131 91.4705L70.9967 91.1406C71.751 90.7753 71.9042 90.5868 71.6685 90.2686C71.4563 89.9741 70.5017 89.1375 70.2071 88.9725C69.8888 88.8075 68.2035 88.8193 67.8146 88.9843Z" fill="black"/>
</svg>
