<svg width="96" height="96" viewBox="0 0 96 96" fill="none" xmlns="http://www.w3.org/2000/svg">
<path d="M43.2181 0.170701C43.1327 0.298755 42.8232 0.362782 41.9373 0.426809C41.2861 0.469502 40.5924 0.565542 40.3896 0.62957C40.1868 0.693597 39.8238 0.746953 39.589 0.746953C39.3542 0.746953 38.9699 0.821651 38.7351 0.907021C38.5003 0.99239 38.116 1.05642 37.8812 1.06709C37.6464 1.06709 37.3369 1.14179 37.1874 1.22716C37.038 1.31253 36.7285 1.38722 36.4936 1.38722C36.2588 1.38722 35.9493 1.46192 35.7998 1.5473C35.6504 1.63267 35.3942 1.70737 35.2128 1.70737C35.042 1.70737 34.7965 1.78207 34.6898 1.86744C34.5723 1.95281 34.3268 2.0275 34.1454 2.0275C33.9639 2.0275 33.7718 2.07019 33.7184 2.12354C33.6544 2.18757 33.4196 2.27294 33.1848 2.33697C32.7898 2.43301 32.5977 2.48636 31.6371 2.82785C30.7511 3.14799 29.5663 3.61752 28.7551 3.96968C28.2108 4.21511 24.9339 5.83714 24.507 6.08259C24.3469 6.16796 23.984 6.38138 23.6851 6.54145C23.3969 6.70152 23.0127 6.92561 22.8312 7.043C22.6604 7.16038 22.3722 7.33112 22.1908 7.42716C22.02 7.52321 21.7531 7.69394 21.6037 7.81133C21.1981 8.1208 20.6217 8.50496 20.2802 8.70772C20.1094 8.80376 19.7251 9.07054 19.4263 9.29464C19.1274 9.51873 18.551 9.95625 18.1454 10.2657C17.7398 10.5752 17.0567 11.1514 16.6404 11.5463C16.2241 11.9518 15.8399 12.2719 15.7972 12.2719C15.5837 12.2719 11.9973 15.8575 11.9973 16.0709C11.9973 16.1136 11.6771 16.4977 11.2715 16.9139C10.8766 17.3301 10.3002 18.0131 9.99065 18.4186C9.68111 18.8241 9.24349 19.4003 9.01934 19.6991C8.79519 19.9979 8.52834 20.3821 8.43228 20.5528C8.22948 20.8943 7.84522 21.4706 7.53568 21.8761C7.41827 22.0255 7.24749 22.2816 7.15143 22.463C7.05536 22.6337 6.88458 22.9218 6.76717 23.1033C6.64976 23.274 6.42561 23.6582 6.2655 23.957C6.1054 24.2451 5.89192 24.6186 5.80653 24.7786C5.56104 25.2055 3.93862 28.4816 3.69313 29.0258C3.34089 29.8368 2.87124 31.0213 2.55103 31.907C2.20947 32.8675 2.1561 33.0595 2.06004 33.4544C1.996 33.6892 1.91061 33.9239 1.84656 33.9773C1.79319 34.0413 1.7505 34.2334 1.7505 34.4148C1.7505 34.5962 1.67578 34.8417 1.59039 34.959C1.505 35.0657 1.43029 35.3005 1.43029 35.4819C1.43029 35.6527 1.35557 35.9194 1.27018 36.0688C1.18479 36.2182 1.11007 36.5277 1.11007 36.7625C1.11007 36.9972 1.03536 37.3067 0.949966 37.4561C0.864576 37.6055 0.789859 37.915 0.789859 38.1497C0.779185 38.3845 0.715143 38.7687 0.629753 39.0034C0.544362 39.2382 0.469646 39.6224 0.469646 39.8571C0.469646 40.0919 0.416277 40.4547 0.352234 40.6575C0.096064 41.4578 0 43.5494 0 48.074C0 52.6307 0.096064 54.7756 0.352234 55.4159C0.416277 55.5866 0.469646 55.9387 0.469646 56.2162C0.48032 56.4937 0.544362 56.9098 0.629753 57.1446C0.715143 57.3794 0.789859 57.7208 0.789859 57.9129C0.789859 58.0943 0.843228 58.3825 0.907271 58.5532C0.981987 58.7133 1.06738 59.0654 1.12075 59.3322C1.22748 59.9832 1.43029 60.6981 1.60107 61.125C1.68646 61.3171 1.7505 61.5838 1.7505 61.7226C1.7505 61.8613 1.82522 62.1174 1.91061 62.2775C1.996 62.4482 2.07071 62.6616 2.07071 62.7577C2.07071 62.8537 2.14543 63.0778 2.23082 63.2379C2.31621 63.4086 2.39092 63.6221 2.39092 63.7181C2.39092 63.8141 2.46564 64.0382 2.55103 64.1983C2.63642 64.369 2.71114 64.5931 2.71114 64.6892C2.71114 64.7852 2.75383 64.8919 2.8072 64.924C2.86057 64.956 2.93529 65.116 2.97798 65.2761C3.01 65.4468 3.19146 65.8737 3.36224 66.2472C3.53302 66.61 3.67178 66.9622 3.67178 67.0155C3.67178 67.0795 3.71447 67.2076 3.76784 67.3143C3.82121 67.4104 4.3122 68.3814 4.84589 69.4699C5.37958 70.5477 5.96664 71.6469 6.13742 71.903C6.3082 72.1484 6.44696 72.3938 6.44696 72.4365C6.44696 72.4792 6.67111 72.842 6.93795 73.2582C7.2048 73.6637 7.49299 74.1333 7.57838 74.2933C7.65309 74.4427 7.79185 74.6348 7.86657 74.7202C7.95196 74.8055 8.10139 75.019 8.19746 75.2111C8.29352 75.3925 8.4643 75.5952 8.58171 75.6592C8.69912 75.7233 8.79519 75.8513 8.79519 75.9474C8.79519 76.1395 9.57437 77.1959 10.8125 78.7006C11.8159 79.9171 15.9466 84.1002 16.587 84.5484C16.8539 84.7298 17.3342 85.1247 17.6651 85.4235C18.7218 86.3625 21.9986 88.6675 22.543 88.8596C22.6497 88.8916 22.8099 88.9983 22.9166 89.0944C23.2261 89.3612 24.3789 89.9801 26.6204 91.0899C27.7625 91.6448 28.7978 92.157 28.9152 92.1997C29.3315 92.3811 29.8866 92.6052 30.3562 92.7866C30.6231 92.8827 30.986 93.0321 31.1567 93.1068C31.3382 93.1815 31.6371 93.2775 31.8185 93.3095C32.0106 93.3522 32.1921 93.4376 32.2241 93.4909C32.2668 93.5443 32.3949 93.587 32.523 93.587C32.6511 93.587 32.8966 93.6617 33.0673 93.747C33.2275 93.8324 33.473 93.9071 33.601 93.9071C33.7184 93.9178 33.9426 93.9818 34.092 94.0672C34.2415 94.1526 34.5083 94.2273 34.6791 94.2273C34.8605 94.2273 35.0954 94.302 35.2021 94.3873C35.3195 94.4727 35.5864 94.5474 35.7892 94.5474C36.0026 94.5581 36.2908 94.6221 36.4403 94.7075C36.5897 94.7928 36.8992 94.8675 37.1341 94.8675C37.3689 94.8675 37.6784 94.9422 37.8278 95.0276C37.9773 95.113 38.3188 95.177 38.5857 95.1877C38.8632 95.1877 39.2902 95.2624 39.5357 95.3477C39.7812 95.4331 40.2401 95.5078 40.5603 95.5078C40.8699 95.5078 41.2541 95.5612 41.4249 95.6252C42.5777 96.0841 53.2835 96.0841 54.1267 95.6252C54.2548 95.5612 54.6497 95.5078 55.0126 95.5078C55.3649 95.5078 55.8345 95.4331 56.048 95.3477C56.2508 95.2624 56.635 95.1877 56.8805 95.1877C57.126 95.1877 57.5103 95.113 57.7131 95.0276C57.9266 94.9422 58.2468 94.8675 58.4282 94.8675C58.6097 94.8675 58.8552 94.8142 58.9726 94.7501C59.09 94.6861 59.4102 94.6007 59.6877 94.5474C60.2961 94.43 61.022 94.2486 61.5236 94.0672C61.7264 93.9925 62.068 93.8751 62.2708 93.8111C62.4736 93.7364 62.7938 93.6403 62.9646 93.587C63.4769 93.4482 64.0106 93.2562 64.3308 93.0961C64.5016 93.0107 64.7044 92.9467 64.7898 92.9467C64.8752 92.9467 65.0246 92.904 65.1314 92.84C65.3342 92.7333 65.7077 92.5732 66.7538 92.1464C67.8318 91.6982 70.2334 90.5243 71.2688 89.9161C71.7918 89.6173 72.3468 89.3078 72.4963 89.2224C73.4889 88.6995 76.9366 86.2878 77.3635 85.8076C77.4809 85.6796 77.6303 85.5835 77.7051 85.5835C77.7798 85.5835 78.2174 85.2314 78.6764 84.8045C79.1353 84.3777 79.7544 83.8441 80.0426 83.6093C80.8645 82.9691 82.4976 81.347 83.17 80.5147C83.5009 80.0985 84.12 79.3942 84.547 78.9353C84.9739 78.4765 85.3261 78.0389 85.3261 77.9642C85.3261 77.8895 85.4222 77.7401 85.5503 77.6228C86.0306 77.1959 88.4429 73.7491 88.9659 72.7567C89.0513 72.6073 89.3608 72.0524 89.6597 71.5295C90.2681 70.4944 91.4422 68.0933 91.8905 67.0155C92.3175 65.9697 92.4776 65.5962 92.5843 65.3935C92.6483 65.2868 92.691 65.1374 92.691 65.052C92.691 64.9666 92.7551 64.7639 92.8405 64.5931C93.0006 64.273 93.1927 63.7394 93.3315 63.2272C93.3848 63.0458 93.4809 62.7363 93.5556 62.5336C93.6197 62.3308 93.7371 61.9894 93.8118 61.7866C93.9932 61.2851 94.1747 60.5594 94.2921 59.9511C94.3455 59.6737 94.4309 59.3535 94.4949 59.2362C94.559 59.1188 94.6123 58.8733 94.6123 58.6919C94.6123 58.5105 94.687 58.1904 94.7724 57.977C94.8578 57.7742 94.9325 57.39 94.9325 57.1446C94.9325 56.8992 95.0072 56.515 95.0926 56.3122C95.178 56.0988 95.2527 55.6293 95.2527 55.2771C95.2527 54.9143 95.3061 54.5195 95.3702 54.3914C95.4769 54.21 95.6477 52.0117 95.6797 50.6031C95.6797 50.4644 95.7437 50.3683 95.8398 50.3683C95.9786 50.3683 95.9999 50.0375 95.9999 48.074C95.9999 46.2172 95.9679 45.7797 95.8505 45.7797C95.701 45.7797 95.573 44.6806 95.573 43.2719C95.573 42.8558 95.4982 42.2582 95.4128 41.938C95.3275 41.6179 95.2527 41.1057 95.2527 40.8069C95.2527 40.5081 95.178 40.0492 95.0926 39.8038C95.0072 39.5583 94.9325 39.1315 94.9325 38.854C94.9219 38.5873 94.8578 38.2458 94.7724 38.0964C94.687 37.947 94.6123 37.6375 94.6123 37.4028C94.6123 37.168 94.5376 36.8585 94.4522 36.7091C94.3668 36.5597 94.3028 36.2716 94.2921 36.0582C94.2921 35.8554 94.2174 35.5886 94.132 35.4713C94.0466 35.3645 93.9719 35.1191 93.9719 34.9484C93.9719 34.767 93.8972 34.5108 93.8118 34.3614C93.7264 34.212 93.6623 33.9879 93.6517 33.8706C93.6517 33.7425 93.577 33.4971 93.4916 33.337C93.4062 33.1663 93.3315 32.9208 93.3315 32.7928C93.3315 32.6647 93.2888 32.5367 93.2354 32.494C93.182 32.462 93.0966 32.2805 93.0539 32.0885C93.0219 31.907 92.9259 31.6083 92.8511 31.4268C92.7764 31.2561 92.627 30.8933 92.5309 30.6265C92.3495 30.157 92.1253 29.6021 91.9439 29.1859C91.9012 29.0685 91.3888 28.0334 90.8338 26.8916C89.7237 24.6506 89.1047 23.4981 88.8378 23.1886C88.7417 23.0819 88.635 22.9218 88.603 22.8151C88.4109 22.2709 86.1053 18.9948 85.166 17.9384C84.8672 17.6076 84.4722 17.1273 84.2908 16.8606C83.8425 16.2203 79.6584 12.0905 78.4416 11.0874C76.9366 9.84954 75.8798 9.07054 75.6877 9.07054C75.5917 9.07054 75.4636 8.97449 75.3995 8.85711C75.3355 8.73973 75.1327 8.56899 74.9406 8.47295C74.7484 8.37691 74.4816 8.1955 74.3322 8.08879C73.9479 7.78999 72.2614 6.72286 72.1761 6.72286C72.1334 6.72286 71.8879 6.58413 71.6424 6.41339C71.3862 6.24265 70.2868 5.65573 69.2087 5.12217C68.12 4.5886 67.1487 4.09773 67.0526 4.04437C66.9459 3.99102 66.8178 3.94833 66.7538 3.94833C66.7004 3.94833 66.3482 3.80961 65.9853 3.63886C65.6117 3.46812 65.1847 3.28671 65.0139 3.2547C64.8538 3.21201 64.6937 3.13731 64.6617 3.08396C64.6297 3.0306 64.523 2.98792 64.4269 2.98792C64.3308 2.98792 64.1067 2.91322 63.9359 2.82785C63.7758 2.74248 63.5516 2.66778 63.4556 2.66778C63.3595 2.66778 63.146 2.59308 62.9753 2.50771C62.8152 2.42234 62.591 2.34764 62.4949 2.34764C62.3989 2.34764 62.1854 2.27294 62.0146 2.18757C61.8545 2.1022 61.5983 2.0275 61.4596 2.0275C61.3208 2.0275 61.054 1.96348 60.8618 1.87811C60.4349 1.70737 59.7198 1.50461 59.0687 1.3979C58.8018 1.34454 58.4496 1.25917 58.2895 1.18447C58.1187 1.12044 57.8305 1.06709 57.649 1.06709C57.4569 1.06709 57.1154 0.99239 56.8805 0.907021C56.6457 0.821651 56.2401 0.757624 55.9733 0.746953C55.7064 0.746953 55.2581 0.672254 54.9699 0.586885C54.6817 0.501515 54.1267 0.416138 53.7424 0.416138C52.8672 0.394796 52.3869 0.298755 52.4189 0.128016C52.4402 0.0319752 51.3729 -3.83304e-05 47.8825 -3.83304e-05C43.8479 -3.83304e-05 43.3142 0.0213041 43.2181 0.170701ZM52.6964 1.87811C53.102 1.96348 53.6784 2.0275 53.9773 2.0275C54.2868 2.0275 54.7991 2.1022 55.1194 2.18757C55.4396 2.27294 55.8879 2.34764 56.112 2.34764C56.3362 2.34764 56.6244 2.401 56.7418 2.46502C56.8699 2.53972 57.2434 2.6251 57.5637 2.67845C58.14 2.75315 58.4816 2.83852 59.7091 3.16933C61.0753 3.54282 61.4916 3.67087 61.8118 3.80961C61.9933 3.88431 62.2174 3.94833 62.3028 3.94833C62.3882 3.94833 62.6017 4.02303 62.7618 4.1084C62.9326 4.19377 63.146 4.26847 63.2421 4.26847C63.3382 4.26847 63.5623 4.34317 63.7224 4.42854C63.8932 4.51391 64.1067 4.5886 64.2027 4.5886C64.2881 4.5886 64.4055 4.63129 64.4696 4.67397C64.523 4.72733 64.8111 4.85539 65.0993 4.9621C67.0953 5.67707 71.1087 7.77931 73.4783 9.33732C74.3001 9.88155 74.5776 10.0843 75.8905 11.0661C76.3068 11.3755 76.7017 11.6316 76.7658 11.6316C76.8298 11.6316 76.9366 11.717 76.9899 11.8237C77.054 11.9304 77.5236 12.368 78.0466 12.7841C79.2101 13.7125 82.1987 16.6792 82.8605 17.5542C83.1167 17.9064 83.565 18.4292 83.8318 18.728C84.1093 19.0162 84.4616 19.4537 84.6217 19.6884C84.7818 19.9232 85.102 20.3821 85.3368 20.7022C86.0947 21.748 87.3115 23.6155 87.9412 24.7039C89.1367 26.7635 90.7271 30.1463 91.3568 31.9604C91.4529 32.2485 91.581 32.59 91.6237 32.7074C91.8158 33.1876 92.0399 33.9026 92.104 34.2227C92.1467 34.4148 92.2214 34.5962 92.2748 34.6282C92.3281 34.6709 92.3708 34.8203 92.3708 34.9804C92.3708 35.1404 92.4455 35.4072 92.5309 35.578C92.6163 35.738 92.691 35.9941 92.691 36.1329C92.691 36.2716 92.7551 36.5704 92.8405 36.7838C92.9259 37.0079 93.0219 37.4241 93.0539 37.7229C93.0966 38.011 93.1714 38.2991 93.2247 38.3525C93.2888 38.4165 93.3315 38.6513 93.3315 38.8861C93.3421 39.1315 93.4062 39.5157 93.4916 39.7504C93.577 39.9852 93.6517 40.3907 93.6517 40.6575C93.6517 40.9243 93.705 41.3084 93.7584 41.5112C93.8225 41.7139 93.9185 42.4609 93.9719 43.1652C94.0359 43.8695 94.1213 44.9047 94.1854 45.4596C94.3135 46.7828 94.3135 49.3973 94.1747 50.7418C94.1213 51.3288 94.0253 52.3105 93.9719 52.9294C93.8758 54.1673 93.7157 55.1918 93.4809 56.2375C93.3955 56.6217 93.3315 57.0699 93.3315 57.23C93.3315 57.39 93.2567 57.6995 93.1714 57.9129C93.086 58.1157 93.0113 58.4465 93.0113 58.6386C93.0113 58.8307 92.9365 59.1295 92.8511 59.2895C92.7658 59.4603 92.691 59.7484 92.691 59.9405C92.691 60.1219 92.6483 60.3033 92.595 60.346C92.5309 60.378 92.4562 60.6234 92.4135 60.9009C92.3708 61.1677 92.2748 61.5198 92.2 61.6692C92.1147 61.8186 92.0506 62.0214 92.0506 62.1067C92.0399 62.2561 91.7944 62.9925 91.5383 63.6327C91.4636 63.8035 91.4102 63.9742 91.4102 64.0276C91.4102 64.0809 91.3355 64.305 91.2394 64.5291C91.1433 64.7532 91.0259 65.0307 90.9726 65.148C90.4602 66.4073 89.9479 67.5811 89.7451 67.9759C89.6063 68.2427 89.4889 68.4882 89.4889 68.5202C89.4889 68.5629 89.2648 68.9897 88.9979 69.4806C88.7204 69.9715 88.3575 70.6438 88.1867 70.9639C87.7384 71.8176 86.4362 73.9412 86.2014 74.208C86.0947 74.3253 85.6463 74.9229 85.2087 75.5312C84.7711 76.1395 84.2374 76.8758 84.0133 77.1852C82.8818 78.7539 78.4949 83.1398 76.9259 84.271C76.6163 84.4951 75.8798 85.0286 75.2714 85.4661C74.663 85.9037 74.0653 86.3519 73.9479 86.4586C73.5103 86.8534 68.9739 89.4785 68.3015 89.7346C68.2481 89.756 67.8105 89.9587 67.3408 90.1722C66.8712 90.3963 66.1774 90.7057 65.7931 90.8551C65.4089 91.0152 65.0033 91.1859 64.8859 91.2286C64.7685 91.282 64.4909 91.3994 64.2668 91.4954C64.0426 91.5914 63.8185 91.6661 63.7651 91.6661C63.7117 91.6661 63.541 91.7195 63.3702 91.7942C62.7298 92.0503 61.9933 92.2958 61.8438 92.3064C61.7584 92.3064 61.5556 92.3705 61.4062 92.4558C61.2568 92.5305 60.9045 92.6266 60.6377 92.6692C60.3602 92.7119 60.1147 92.7866 60.0827 92.8507C60.04 92.904 59.8585 92.9467 59.6771 92.9467C59.4849 92.9467 59.1967 93.0214 59.026 93.1068C58.8659 93.1921 58.567 93.2668 58.3749 93.2668C58.1827 93.2668 57.8518 93.3415 57.649 93.4269C57.4356 93.5123 57.126 93.587 56.9659 93.587C56.8058 93.587 56.3575 93.651 55.9733 93.7364C54.9272 93.9711 53.9025 94.1312 52.6644 94.2273C52.0453 94.2806 51.0633 94.3766 50.4763 94.43C49.1314 94.5687 46.5163 94.5687 45.1928 94.4407C44.6377 94.3766 43.6024 94.2913 42.8979 94.2273C42.1934 94.1739 41.4463 94.0779 41.2435 94.0138C41.0407 93.9605 40.6564 93.9071 40.3896 93.9071C40.1227 93.9071 39.7171 93.8324 39.4823 93.747C39.2475 93.6617 38.8632 93.5976 38.6284 93.587C38.3829 93.587 38.1481 93.5443 38.084 93.4803C38.0307 93.4269 37.7425 93.3522 37.4543 93.3095C37.1554 93.2775 36.7391 93.1815 36.515 93.0961C36.3015 93.0107 36.0026 92.9467 35.8639 92.9467C35.7251 92.9467 35.4689 92.872 35.3088 92.7866C35.1381 92.7013 34.8926 92.6266 34.7752 92.6266C34.6471 92.6266 34.4016 92.5519 34.2415 92.4665C34.0707 92.3811 33.8572 92.3064 33.7718 92.3064C33.601 92.2958 32.619 91.9756 32.4376 91.8582C32.3842 91.8262 32.1601 91.7622 31.9573 91.7195C31.7545 91.6768 31.5197 91.6021 31.4236 91.5488C31.3382 91.4954 30.6124 91.1859 29.8225 90.8551C26.567 89.4999 23.2581 87.6538 20.4296 85.5942C20.1094 85.3594 19.6504 85.0393 19.4156 84.8792C19.1808 84.7192 18.7538 84.367 18.455 84.0895C18.1668 83.8228 17.6331 83.3746 17.2808 83.1185C16.4056 82.4568 13.4383 79.4689 12.5097 78.3057C12.0934 77.7828 11.6558 77.3133 11.549 77.2493C11.4423 77.1959 11.3569 77.0892 11.3569 77.0252C11.3569 76.9611 11.1007 76.5663 10.7912 76.1501C9.8092 74.8376 9.6064 74.5601 9.06203 73.7384C7.50366 71.3694 5.40093 67.357 4.68579 65.3615C4.57905 65.0627 4.45096 64.7852 4.39759 64.7212C4.3549 64.6678 4.3122 64.5505 4.3122 64.4544C4.3122 64.369 4.23749 64.1556 4.1521 63.9849C4.06671 63.8248 3.99199 63.6007 3.99199 63.5047C3.99199 63.4086 3.91727 63.1952 3.83188 63.0245C3.74649 62.8644 3.67178 62.651 3.67178 62.5656C3.67178 62.4802 3.60773 62.2561 3.53302 62.0747C3.39426 61.7546 3.26617 61.3384 2.89259 59.9725C2.56171 58.7453 2.47632 58.4038 2.4016 57.8276C2.34823 57.5074 2.26284 57.1339 2.18812 57.0059C2.12408 56.8885 2.07071 56.6004 2.07071 56.3763C2.07071 56.1522 1.996 55.704 1.91061 55.3838C1.82522 55.0637 1.7505 54.5515 1.7505 54.242C1.7505 53.9432 1.67578 53.335 1.57972 52.9081C1.32355 51.7663 1.32355 44.4244 1.57972 43.1652C1.67578 42.6957 1.7505 42.0661 1.7505 41.778C1.7505 41.4792 1.82522 41.0096 1.91061 40.7215C1.996 40.4334 2.07071 40.0172 2.07071 39.8038C2.07071 39.5797 2.14543 39.1955 2.23082 38.9501C2.31621 38.7046 2.39092 38.3632 2.39092 38.2031C2.39092 38.043 2.46564 37.7336 2.55103 37.5308C2.63642 37.3174 2.71114 36.9866 2.71114 36.7838C2.71114 36.5917 2.75383 36.389 2.81788 36.325C2.87124 36.2716 2.96731 36.0048 3.02068 35.7487C3.19146 34.9804 3.37291 34.3294 3.52234 33.9666C3.60773 33.7852 3.67178 33.5398 3.67178 33.433C3.67178 33.3263 3.71447 33.1876 3.76784 33.1236C3.82121 33.0702 3.91727 32.8568 3.97064 32.654C4.09873 32.2165 4.58972 30.8826 4.72848 30.5731C4.97398 30.0609 5.27284 29.3566 5.27284 29.2926C5.27284 29.2499 5.68912 28.3962 6.19079 27.3931C7.13008 25.515 8.13341 23.7755 8.99799 22.4843C9.26483 22.0788 9.6064 21.5666 9.75583 21.3532C10.2148 20.6702 10.7592 19.9339 11.1007 19.5391C11.2822 19.3256 11.581 18.9415 11.7732 18.6747C12.7445 17.2981 17.1528 12.8909 18.3482 12.0905C18.583 11.9411 18.9673 11.6423 19.2021 11.4289C20.0347 10.6926 21.8279 9.47605 23.9946 8.16348C25.3822 7.33112 28.2641 5.85849 29.3956 5.39962C29.7798 5.23955 30.1854 5.06882 30.3028 5.01546C30.6017 4.86606 31.9359 4.37518 32.3842 4.24713C32.587 4.19377 32.8005 4.09773 32.8645 4.04437C32.9179 3.99102 33.0567 3.94833 33.1634 3.94833C33.2701 3.94833 33.5156 3.88431 33.6971 3.79894C34.06 3.64953 34.7111 3.46812 35.4796 3.29738C35.7358 3.24403 36.0026 3.14799 36.056 3.09463C36.12 3.0306 36.3228 2.98792 36.515 2.98792C36.7178 2.98792 37.0487 2.91322 37.2621 2.82785C37.4649 2.74248 37.7745 2.66778 37.9346 2.66778C38.0947 2.66778 38.4363 2.59308 38.6818 2.50771C38.9272 2.42234 39.3115 2.34764 39.5357 2.34764C39.7491 2.34764 40.1654 2.27294 40.4536 2.18757C40.7418 2.1022 41.2435 2.0275 41.5637 2.0275C41.8839 2.0275 42.3429 1.97415 42.5777 1.91012C43.7625 1.60066 51.2341 1.56864 52.6964 1.87811Z" fill="black"/>
<path d="M46.0788 5.1115C45.8653 5.29291 45.8333 5.41029 45.844 6.10392C45.844 6.84024 45.9507 7.92871 46.1108 8.93181C46.2175 9.64678 45.94 9.51873 45.2889 8.56899C44.9794 8.12079 44.5844 7.54454 44.403 7.2991C44.2215 7.05367 43.8159 6.48809 43.4957 6.0399C42.8766 5.18619 42.7913 5.14351 41.9374 5.20754C41.2863 5.27156 41.1048 5.58103 41.2436 6.3707C41.3076 6.71219 41.4037 7.92871 41.457 9.07054C41.4997 10.2124 41.5744 11.2261 41.6171 11.3328C41.6492 11.4289 41.7239 11.8344 41.7559 12.2399L41.8306 12.9655L42.1935 12.9976C42.8233 13.0616 43.2396 12.9335 43.2929 12.6668C43.3356 12.3893 43.2289 10.2871 43.1115 9.25195C43.0581 8.81443 43.0688 8.53697 43.1328 8.53697C43.1862 8.53697 43.421 8.80375 43.6558 9.13456C43.88 9.46537 44.2002 9.87088 44.371 10.0416C44.5311 10.2124 44.6592 10.3938 44.6592 10.4471C44.6592 10.5752 45.6732 11.9518 46.0681 12.3466C46.3563 12.6454 46.4844 12.6988 46.9007 12.6988C47.3063 12.6988 47.445 12.6454 47.6905 12.4L47.9787 12.0905L47.872 11.1408C47.8186 10.6179 47.7332 9.59343 47.7012 8.85711C47.6692 8.12079 47.5731 6.94695 47.5091 6.24265L47.381 4.9621L46.8473 4.94075C46.4524 4.91941 46.2496 4.9621 46.0788 5.1115Z" fill="black"/>
<path d="M50.455 5.17552C50.3163 5.27156 50.2095 5.46364 50.2095 5.60237C50.2095 5.74109 50.1348 6.13593 50.0494 6.47741C49.964 6.80822 49.8893 7.30977 49.8893 7.57655C49.8786 7.84333 49.8146 8.34488 49.7292 8.69703C49.6438 9.04918 49.5691 9.57208 49.5691 9.87087C49.5691 10.159 49.4944 10.6926 49.409 11.0447C49.2169 11.8344 49.2062 12.4213 49.3877 12.56C49.4517 12.6241 49.7079 12.6988 49.9427 12.7308C50.1775 12.7735 50.6151 12.8482 50.9033 12.9122C51.2022 12.9762 52.0134 13.0296 52.7179 13.0402C53.8066 13.0616 54.0628 13.0296 54.3723 12.8588C55.5998 12.1759 56.3043 10.6926 56.3149 8.75039C56.3149 8.18481 56.1121 7.34178 55.8666 6.88292C55.5037 6.21063 54.6391 5.59169 53.9454 5.49565C53.6785 5.45297 53.3476 5.38894 53.1982 5.33558C53.0488 5.28223 52.5684 5.2182 52.1308 5.18619C51.6932 5.15417 51.1915 5.10082 51.0101 5.0688C50.7966 5.02612 50.6045 5.05813 50.455 5.17552ZM53.5718 7.05366C54.5538 7.52319 54.7459 8.2275 54.351 9.97758C54.0414 11.3969 53.4437 11.7704 51.9707 11.4929C51.2662 11.3648 51.2235 11.3328 51.1915 11.0447C51.1702 10.8846 51.2022 10.5432 51.2769 10.3084C51.341 10.063 51.437 9.43335 51.4904 8.91046C51.6185 7.74729 51.7359 7.03232 51.8533 6.84023C51.9921 6.62681 52.9313 6.74419 53.5718 7.05366Z" fill="black"/>
<path d="M37.6144 6.15735C37.2942 6.27473 37.1981 6.52017 37.2622 7.08575C37.2942 7.38454 37.3903 7.75804 37.465 7.9181C37.5504 8.07817 37.6144 8.35563 37.6144 8.53704C37.6144 8.71845 37.6891 9.03859 37.7745 9.25201C37.8599 9.45477 37.9346 9.7749 37.9346 9.94565C37.9346 10.1164 38.0093 10.4259 38.0947 10.6393C38.1801 10.842 38.2548 11.1942 38.2548 11.4076C38.2655 11.621 38.3295 11.9092 38.4149 12.0586C38.5003 12.208 38.5644 12.4854 38.575 12.6668C38.575 13.1897 38.8846 13.8727 39.1087 13.8727C39.2261 13.8727 39.3436 13.8193 39.3756 13.766C39.4076 13.7019 39.5997 13.6592 39.7919 13.6592C40.2935 13.6592 40.539 13.4458 40.475 13.0617C40.3896 12.6135 40.1868 11.7598 40.0053 11.1942C39.9199 10.9167 39.8559 10.5646 39.8559 10.4152C39.8559 10.2551 39.7812 9.95632 39.6958 9.74289C39.6104 9.54014 39.5357 9.22 39.5357 9.04926C39.5357 8.87852 39.461 8.56905 39.3756 8.35563C39.2902 8.15287 39.2155 7.85408 39.2155 7.69401C39.2155 7.30984 38.8526 6.29607 38.6711 6.17869C38.511 6.08265 37.8706 6.0613 37.6144 6.15735Z" fill="black"/>
<path d="M58.695 6.61615C58.5883 6.73354 58.4709 7.00032 58.4282 7.22441C58.3748 7.44851 58.2894 7.78999 58.2254 7.9714C58.1614 8.16349 58.0546 8.48362 57.9906 8.66504C57.9265 8.85712 57.8305 9.20927 57.7878 9.44404C57.7451 9.67881 57.649 10.0416 57.5743 10.2444C57.2648 11.1408 57.2221 11.2795 57.158 11.685C57.1153 11.9198 57.0193 12.2186 56.9552 12.3466C56.8805 12.4747 56.8271 12.6881 56.8271 12.8268C56.8271 12.9656 56.7738 13.1363 56.7204 13.1897C56.5283 13.3817 56.8271 13.8726 57.1687 13.9473C57.3395 13.9793 57.4996 14.054 57.5316 14.0967C57.7131 14.4062 58.3535 13.958 58.4602 13.4458C58.5136 13.1897 58.5776 12.9869 58.8552 12.1652C58.9299 11.9625 59.0259 11.5996 59.0686 11.3649C59.1113 11.1301 59.2074 10.7779 59.2714 10.5859C59.581 9.68948 59.6343 9.52941 59.7091 9.17726C59.9225 8.31288 60.0613 7.82201 60.2107 7.44851C60.4028 6.97898 60.3495 6.86159 59.7731 6.60548C59.2074 6.34937 58.9299 6.34937 58.695 6.61615Z" fill="black"/>
<path d="M31.3169 8.16343C31.0394 8.31283 29.6304 8.96378 29.5557 8.96378C29.5344 8.96378 29.1715 9.12384 28.7339 9.3266C28.3069 9.51868 27.8479 9.71076 27.7198 9.75345C27.1328 9.93486 27.1648 10.0949 28.3282 12.6454C28.4884 12.9975 28.8192 13.7658 29.0754 14.3421C29.3209 14.9183 29.5664 15.4732 29.6091 15.5693C29.6625 15.6653 29.8012 15.9641 29.9293 16.2523C30.2282 16.8925 30.4737 17.0313 30.986 16.8605C31.2102 16.7965 31.4984 16.6471 31.6371 16.5404C31.8613 16.3696 31.8826 16.3163 31.7759 16.0922C31.7012 15.9641 31.5517 15.6013 31.4236 15.3132C31.2956 15.0144 31.0714 14.5342 30.922 14.2247C30.7725 13.9259 30.6658 13.6271 30.6978 13.5524C30.7192 13.4884 31.1141 13.2643 31.5837 13.0615C33.0247 12.4426 33.4517 12.2292 33.4517 12.1118C33.4517 11.9304 32.982 11.1834 32.8112 11.066C32.6831 10.9913 32.3202 11.1087 31.477 11.4609C30.8366 11.7383 30.2175 11.9517 30.1001 11.9304C29.8226 11.8877 29.4063 10.9486 29.5557 10.7139C29.6198 10.6285 30.2815 10.2763 31.0394 9.94553C32.491 9.29458 32.6618 9.14519 32.4697 8.64364C32.2348 8.0247 31.8399 7.86463 31.3169 8.16343Z" fill="black"/>
<path d="M62.2708 10.4792C61.0647 11.6743 59.7731 12.9229 59.4102 13.2644C59.0473 13.5952 58.7485 13.9367 58.7485 14.022C58.7485 14.2141 59.0687 14.4809 59.4209 14.5663C59.581 14.6089 59.7411 14.6836 59.7731 14.737C59.9333 14.9931 60.3282 14.801 60.8192 14.2461C61.0967 13.926 61.3956 13.6592 61.481 13.6592C61.5663 13.6592 62.0894 13.8726 62.6337 14.1394C63.1888 14.4062 63.6904 14.6196 63.7545 14.6196C63.9679 14.6196 64.0854 15.0465 64.0854 15.8468V16.6578L64.6724 16.9246C64.9926 17.074 65.3662 17.1807 65.4943 17.1594C65.7398 17.1274 65.7398 17.0847 65.8679 14.8864C66.0173 12.0372 66.0387 9.32667 65.8999 9.07056C65.8145 8.91049 64.7471 8.32357 64.5337 8.32357C64.5016 8.32357 63.4876 9.29465 62.2708 10.4792ZM64.3522 11.653C64.2455 12.6988 64.1921 12.9015 63.9786 12.9656C63.7118 13.0509 62.8045 12.5921 62.8045 12.368C62.8045 12.1332 63.9786 10.9914 64.2241 10.9914C64.4056 10.9914 64.4162 11.0554 64.3522 11.653Z" fill="black"/>
<path d="M70.2654 11.8344C69.8491 12.3573 69.4328 12.9442 69.23 13.307C69.134 13.4884 68.8137 13.958 68.5149 14.3528C67.4262 15.7934 67.2554 16.0495 67.1166 16.4017C67.0312 16.5938 66.9138 16.7538 66.8604 16.7538C66.7537 16.7538 66.22 17.6075 66.22 17.789C66.22 17.853 66.4442 18.0664 66.711 18.2798L67.202 18.664L67.5115 18.4292C67.6823 18.3119 67.9171 18.0557 68.0346 17.8743C68.1413 17.7036 68.4829 17.2127 68.7817 16.8072C69.0699 16.391 69.4115 15.8575 69.5396 15.6014C69.657 15.3452 69.8171 15.1638 69.8811 15.1852C70.0626 15.2385 70.0946 16.4017 69.9452 17.6502C69.8704 18.2478 69.7957 19.1122 69.7744 19.5924L69.7317 20.4461L70.3401 20.8516C70.6817 21.065 71.0232 21.2251 71.1086 21.2144C71.2474 21.1824 71.9625 20.3287 72.4108 19.6351C72.4962 19.507 72.763 19.1229 72.9979 18.7921C73.2327 18.4613 73.5529 18.0024 73.7237 17.7676C73.8838 17.5329 74.3428 16.8606 74.759 16.2736C75.1646 15.6867 75.5062 15.1211 75.5062 15.0251C75.5062 14.8437 74.6416 14.1927 74.3961 14.1927C74.1933 14.1927 73.9372 14.5236 72.7524 16.2736C72.5496 16.5618 72.24 16.9886 72.0586 17.2127C71.5142 17.885 71.5035 17.8103 71.7811 14.3848C71.8985 12.9122 71.8985 12.7841 71.717 12.432C71.5035 12.0478 71.1193 11.7063 70.735 11.589C70.5642 11.5356 70.4575 11.5996 70.2654 11.8344Z" fill="black"/>
<path d="M22.938 12.8055C22.906 12.8588 22.7886 12.9122 22.6819 12.9122C22.5858 12.9122 22.4043 12.9869 22.2976 13.0722C22.1802 13.1576 21.86 13.403 21.5825 13.6058C20.2589 14.5982 19.8213 16.487 20.5791 18.013C20.9634 18.8027 21.0274 18.8988 21.6785 19.5497C22.7139 20.5955 23.9414 21.0223 25.0087 20.6915C27.0261 20.0726 28.1682 18.728 28.1575 16.9673C28.1575 16.295 28.1041 16.0495 27.8159 15.4199C27.6238 15.0037 27.3143 14.5129 27.1221 14.3208C25.7025 12.8481 25.4037 12.6987 24.0161 12.6987C23.461 12.6987 22.97 12.7414 22.938 12.8055ZM24.8059 14.5662C25.8947 15.2598 26.5991 16.6258 26.3643 17.6075C26.1295 18.5679 25.5744 18.9948 24.5498 18.9948C23.5358 18.9948 22.8633 18.5146 22.2549 17.3514C21.7959 16.487 21.7959 15.7827 22.2442 15.1745C22.9167 14.2461 23.92 14.0113 24.8059 14.5662Z" fill="black"/>
<path d="M45.673 15.6974C44.9685 15.7507 44.0292 15.8467 43.5916 15.9108C43.154 15.9748 42.4709 16.0602 42.0759 16.1135C41.681 16.1669 41.2647 16.2523 41.1473 16.3163C41.0299 16.3803 40.7844 16.4337 40.603 16.4337C40.4215 16.4337 40.1013 16.5084 39.8878 16.5937C39.685 16.6791 39.3755 16.7538 39.226 16.7538C39.0659 16.7538 38.8418 16.8285 38.7244 16.9139C38.6176 16.9992 38.4042 17.0739 38.2547 17.0739C38.1053 17.0739 37.8491 17.1486 37.6784 17.234C37.5182 17.3194 37.2941 17.3941 37.198 17.3941C37.0913 17.3941 36.9205 17.4688 36.8031 17.5542C36.6964 17.6395 36.5149 17.7142 36.4188 17.7142C36.3121 17.7142 35.9065 17.8636 35.5116 18.045C35.106 18.2158 34.647 18.4292 34.4655 18.5039C33.7291 18.824 32.9392 19.2295 32.4375 19.5283C32.1493 19.6991 31.7864 19.8912 31.6477 19.9552C30.9325 20.2647 27.5703 22.655 26.6737 23.4874C26.2574 23.8715 23.5996 26.5287 23.2154 26.9449C22.7351 27.4678 21.7851 28.695 21.134 29.666C20.7924 30.1676 20.4509 30.6478 20.3762 30.7332C20.3014 30.8185 20.088 31.1814 19.8958 31.5335C19.7037 31.8857 19.4155 32.4086 19.2447 32.7074C18.9459 33.2196 18.5403 34.0306 18.2307 34.7349C18.156 34.9056 17.9425 35.3752 17.7718 35.7807C17.5903 36.1755 17.4409 36.581 17.4409 36.6877C17.4409 36.7838 17.3662 36.9652 17.2808 37.0719C17.1954 37.1893 17.1207 37.36 17.1207 37.4667C17.1207 37.5628 17.0459 37.7869 16.9606 37.9469C16.8752 38.1177 16.8005 38.3738 16.8005 38.5232C16.8005 38.6726 16.7257 38.886 16.6403 38.9927C16.555 39.1101 16.4802 39.3342 16.4802 39.4943C16.4802 39.6437 16.4055 39.9531 16.3201 40.1559C16.2347 40.3693 16.16 40.6895 16.16 40.8709C16.16 41.0523 16.1067 41.2977 16.0426 41.4151C15.9786 41.5325 15.8932 41.9487 15.8398 42.3435C15.7971 42.7383 15.7011 43.3679 15.6477 43.7521C15.5836 44.1363 15.4769 45.2888 15.4129 46.3132C15.3168 47.8606 15.3168 48.5542 15.4556 50.3149C15.6157 52.3211 15.669 52.7373 15.9465 54.21C16.0106 54.5301 16.1067 55.053 16.16 55.3731C16.2134 55.6826 16.2988 55.9921 16.3628 56.0561C16.4269 56.1201 16.4802 56.3122 16.4802 56.4829C16.4802 56.643 16.5336 56.8884 16.6083 57.0165C16.6724 57.1446 16.7684 57.422 16.8111 57.6248C16.8858 58.0089 17.0566 58.4998 17.2914 59.0654C17.3662 59.2361 17.5049 59.5989 17.601 59.8657C18.0279 60.9969 19.2447 63.526 19.7037 64.2196C19.8638 64.4757 20.0026 64.6998 20.0026 64.7212C20.0026 64.8279 21.7424 67.3356 22.1587 67.8372C22.4149 68.136 22.7671 68.5948 22.9592 68.8509C23.2367 69.2244 23.8238 69.854 24.5816 70.5904C24.6457 70.6437 25.0406 71.0599 25.4676 71.4974C25.8945 71.9349 26.7271 72.6926 27.3248 73.1621C28.4028 74.0372 30.9005 75.7873 31.3488 75.99C31.4769 76.0434 31.8291 76.2355 32.1173 76.4062C32.6403 76.7157 34.1453 77.4733 34.7858 77.7401C34.9672 77.8148 35.2768 77.9535 35.4796 78.0389C35.9492 78.2416 36.7497 78.5404 37.9345 78.9673C38.1373 79.0313 38.4789 79.138 38.6817 79.1807C39.4715 79.3728 40.0266 79.5222 40.3895 79.6396C40.5923 79.7036 41.0086 79.789 41.2968 79.8423C41.5956 79.885 42.14 79.9704 42.5242 80.0344C44.2 80.3119 46.6763 80.5573 47.701 80.5573C48.4268 80.5573 51.0206 80.3439 51.3835 80.2585C51.6503 80.1945 52.0986 80.1411 52.3868 80.1411C52.675 80.1411 53.1873 80.0664 53.5076 79.9811C53.8384 79.8957 54.3294 79.7997 54.607 79.7676C54.8845 79.7356 55.1406 79.6609 55.1727 79.5969C55.2154 79.5435 55.4182 79.5009 55.6316 79.5009C55.8451 79.5009 56.1653 79.4262 56.3361 79.3408C56.4962 79.2554 56.7417 79.1807 56.8698 79.1807C56.9872 79.1807 57.2327 79.106 57.4035 79.0207C57.5636 78.9353 57.8091 78.8606 57.9372 78.8606C58.0546 78.8606 58.2574 78.7859 58.3641 78.7005C58.4815 78.6151 58.6737 78.5404 58.8017 78.5404C58.9298 78.5404 59.122 78.4657 59.2394 78.3804C59.3461 78.295 59.5276 78.2203 59.6236 78.2203C59.7197 78.2203 59.9332 78.1563 60.1039 78.0709C60.2641 77.9855 60.7444 77.7721 61.15 77.58C61.5663 77.3986 61.9719 77.1959 62.0572 77.1532C62.1426 77.0998 62.4308 76.9504 62.6977 76.8224C63.4769 76.4275 65.4195 75.2644 65.7717 74.9656C65.9425 74.8162 66.124 74.6988 66.1666 74.6988C66.2734 74.6988 68.3334 73.1301 68.7817 72.7033C68.9845 72.5112 69.5396 72.0203 70.0092 71.6148C70.4895 71.2093 71.162 70.5263 71.5035 70.0995C71.8558 69.662 72.2934 69.1711 72.4748 68.9897C72.8378 68.6375 74.4388 66.5459 74.4388 66.4286C74.4388 66.3859 74.5562 66.2151 74.695 66.0444C74.9939 65.6922 76.2107 63.686 76.5629 62.9604C76.691 62.6936 76.8404 62.4055 76.8938 62.3201C76.9365 62.2347 77.1393 61.8186 77.3207 61.4131C77.5129 60.9969 77.7263 60.5273 77.8117 60.3673C77.8971 60.1965 77.9612 59.9831 77.9612 59.8871C77.9612 59.791 78.0359 59.6096 78.1213 59.5029C78.2067 59.3855 78.2814 59.1934 78.2814 59.0654C78.2814 58.9373 78.3561 58.7452 78.4415 58.6279C78.5269 58.5211 78.6016 58.3077 78.6016 58.1583C78.6016 58.0089 78.6763 57.7955 78.7617 57.6888C78.8471 57.5714 78.9218 57.3473 78.9218 57.1872C78.9218 57.0272 78.9965 56.7604 79.0819 56.6003C79.1673 56.4296 79.242 56.1201 79.242 55.9174C79.242 55.7039 79.2847 55.4905 79.3488 55.4265C79.4021 55.3731 79.4982 54.9996 79.5516 54.6155C79.6049 54.2206 79.6796 53.8471 79.7223 53.7831C79.765 53.7084 79.8397 53.2389 79.8824 52.7373C79.9358 52.2251 80.0319 51.4141 80.0959 50.9232C80.2454 49.8667 80.192 45.3635 80.0105 44.2323C79.9465 43.8161 79.8397 43.1759 79.7757 42.7917C79.7117 42.4075 79.6263 41.8526 79.5836 41.5645C79.5302 41.2657 79.4448 40.8602 79.3808 40.6574C79.2634 40.2946 79.1139 39.7397 78.9218 38.95C78.8257 38.5339 78.6123 37.9149 78.1106 36.5703C77.6196 35.2471 76.723 33.3583 76.1466 32.3872C75.9758 32.0884 75.7837 31.7469 75.7197 31.6189C75.5275 31.16 73.8091 28.7163 72.9231 27.6172C72.4428 27.0089 71.6743 26.1659 71.2367 25.7497C70.7991 25.3228 70.3935 24.928 70.3294 24.864C69.7744 24.2664 68.9632 23.5087 68.5896 23.2313C68.3334 23.0392 67.8744 22.6764 67.5756 22.4309C65.8144 20.9583 61.9612 18.76 59.6023 17.8743C59.3354 17.7783 58.9832 17.6395 58.8017 17.5648C58.236 17.3301 57.745 17.1593 57.3608 17.0846C57.158 17.0419 56.8805 16.9459 56.7524 16.8819C56.6243 16.8072 56.3788 16.7538 56.2187 16.7538C56.0479 16.7538 55.8558 16.7005 55.7917 16.6364C55.7277 16.5724 55.4182 16.487 55.1086 16.4337C54.7884 16.3803 54.2654 16.2843 53.9452 16.2202C52.4935 15.9428 51.9705 15.8788 50.1133 15.7294C47.9465 15.5693 47.5836 15.5693 45.673 15.6974ZM49.5156 17.2767C49.9852 17.3407 50.7537 17.3834 51.2234 17.3941C51.693 17.3941 52.2694 17.4688 52.5042 17.5542C52.739 17.6395 53.134 17.7142 53.3688 17.7142C53.6143 17.7142 53.9879 17.7889 54.1907 17.8743C54.4042 17.9597 54.735 18.0344 54.9272 18.0344C55.1193 18.0344 55.4182 18.1091 55.5889 18.1944C55.749 18.2798 56.0159 18.3545 56.176 18.3545C56.3361 18.3545 56.5603 18.4292 56.6777 18.5146C56.7844 18.5999 57.0299 18.6746 57.2007 18.6746C57.3821 18.6746 57.617 18.7493 57.7237 18.8347C57.8411 18.9201 58.0332 18.9948 58.1506 18.9948C58.2787 18.9948 58.4709 19.0695 58.5776 19.1548C58.695 19.2402 58.8978 19.3149 59.0259 19.3149C59.154 19.3149 59.3141 19.3896 59.3888 19.475C59.4635 19.5604 59.6023 19.635 59.6983 19.635C59.7837 19.635 60.1573 19.7738 60.5095 19.9445C61.5983 20.4674 62.0999 20.7128 62.3241 20.8409C63.9145 21.7586 64.4588 22.0894 65.0459 22.4949C67.6503 24.3091 69.8491 26.2299 71.0339 27.7452C72.5816 29.7194 73.1686 30.5411 73.1259 30.6585C73.1046 30.7438 72.6029 30.8292 71.7597 30.9146C70.3401 31.0426 70.0306 31.1067 68.4615 31.6082C66.3374 32.3018 64.7364 33.3476 63.1673 35.0657C62.2814 36.0368 61.3208 37.264 60.8404 38.043C60.7337 38.2137 60.5736 38.4378 60.4882 38.5232C60.2854 38.7473 59.4849 39.8891 59.186 40.3587C59.0579 40.5827 58.9085 40.7642 58.8658 40.7642C58.8231 40.7642 58.6523 40.9883 58.4709 41.2657C58.3001 41.5432 57.9799 41.9807 57.7664 42.2368C57.5422 42.4929 57.3608 42.7383 57.3608 42.781C57.3608 42.8237 56.8484 43.3893 56.2187 44.0402C55.0659 45.2248 53.7957 46.1638 52.8244 46.548C52.0026 46.8681 51.202 47.0602 50.6577 47.0602C50.1346 47.0602 50.0919 47.0389 49.8464 46.644C49.4729 46.0571 48.9605 45.705 48.0639 45.4275C47.9679 45.3955 47.637 44.9473 47.3274 44.4244C46.5376 43.1118 45.7584 42.0981 45.0219 41.4044C44.3815 40.7962 43.2394 39.8998 42.9512 39.7717C42.8658 39.729 42.6523 39.601 42.4709 39.4836C41.9692 39.1528 40.6136 38.5232 40.4108 38.5232C40.3148 38.5232 40.1333 38.4485 40.0266 38.3631C39.9092 38.2778 39.6637 38.2031 39.4929 38.2031C39.3114 38.1924 39.0446 38.1284 38.8952 38.043C38.7457 37.9576 38.4255 37.8936 38.1907 37.8829C37.9452 37.8829 37.5716 37.8082 37.3688 37.7228C37.1553 37.6375 36.707 37.5628 36.3868 37.5628C36.0559 37.5628 35.693 37.5094 35.5756 37.4454C35.4475 37.3814 34.8391 37.296 34.22 37.2426C33.5903 37.1893 32.9072 37.1039 32.7044 37.0399C32.5016 36.9759 32.1173 36.9225 31.8505 36.9225C31.5836 36.9225 31.1353 36.8478 30.8471 36.7624C30.5589 36.6771 30.1213 36.6024 29.8758 36.6024C29.641 36.6024 29.3848 36.549 29.3315 36.4957C29.2674 36.4316 28.9792 36.3356 28.691 36.2822C27.5489 36.0795 26.108 35.3965 24.699 34.3827C23.8985 33.8172 23.5249 33.4437 22.9165 32.6433C22.4896 32.0991 22.1053 31.5335 22.0733 31.4055C21.9879 31.1067 22.0946 30.9466 23.2261 29.4099C24.5176 27.6812 27.4209 24.7786 29.1287 23.5194C30.3882 22.591 31.7437 21.6626 32.0639 21.5132C32.1493 21.4812 32.3735 21.3531 32.5443 21.2357C32.7257 21.1184 32.9392 21.001 33.0246 20.9583C33.11 20.9263 33.2594 20.8622 33.3448 20.8089C33.5263 20.7022 34.2841 20.3287 34.5189 20.2326C34.6043 20.2006 34.7537 20.1259 34.8391 20.0726C34.9245 20.0192 35.1914 19.8912 35.4262 19.7951C35.661 19.6884 35.9812 19.539 36.1413 19.4536C36.2908 19.3789 36.5042 19.3149 36.6216 19.3149C36.7284 19.3149 36.9098 19.2402 37.0166 19.1548C37.134 19.0695 37.3261 18.9948 37.4542 18.9948C37.5823 18.9948 37.7317 18.9414 37.7958 18.8774C37.8598 18.8134 38.1053 18.7173 38.3295 18.6746C38.7137 18.5893 38.9165 18.5359 39.7811 18.2371C39.9625 18.1731 40.3681 18.077 40.6563 18.0344C40.9552 17.9917 41.3288 17.9063 41.4889 17.8423C41.6597 17.7676 41.9799 17.7142 42.204 17.7142C42.4389 17.7142 42.8338 17.6502 43.0793 17.5648C43.4849 17.4261 45.0539 17.2874 46.2067 17.2874C46.4415 17.2874 46.7831 17.2447 46.9539 17.1807C47.2847 17.0739 48.0639 17.106 49.5156 17.2767ZM74.4815 32.59C74.6309 32.7927 74.759 33.0275 74.759 33.1235C74.759 33.2089 74.8017 33.3049 74.8444 33.337C74.9298 33.3903 75.6023 34.6922 75.7624 35.1084C75.7944 35.1938 75.8691 35.3432 75.9225 35.4285C76.2107 35.9514 76.3601 36.2822 76.3601 36.4743C76.3601 36.5917 76.4348 36.7411 76.5202 36.8158C76.6056 36.8905 76.6803 37.0506 76.6803 37.1786C76.6803 37.3067 76.755 37.5094 76.8404 37.6268C76.9258 37.7335 77.0005 37.9576 77.0005 38.107C77.0005 38.2564 77.0752 38.4698 77.1606 38.5872C77.246 38.6939 77.3207 38.9394 77.3207 39.1208C77.3207 39.2915 77.3955 39.537 77.4808 39.6543C77.5662 39.7611 77.641 40.0278 77.641 40.2306C77.641 40.4334 77.7157 40.7215 77.8011 40.8709C77.8864 41.0203 77.9612 41.3297 77.9612 41.5645C77.9718 41.7993 78.0359 42.1834 78.1213 42.4182C78.2067 42.653 78.2814 43.0585 78.2814 43.3253C78.2814 43.592 78.3561 44.0936 78.4415 44.4457C78.6656 45.3848 78.6656 50.9552 78.4415 51.6915C78.3561 51.9797 78.2814 52.5132 78.2814 52.8654C78.2707 53.2282 78.2067 53.6337 78.1213 53.7831C78.0359 53.9325 77.9718 54.2313 77.9612 54.4554C77.9612 54.6795 77.8864 55.0316 77.8011 55.2451C77.7157 55.4478 77.641 55.7466 77.641 55.9067C77.6303 56.0561 77.5662 56.3015 77.4808 56.4509C77.3955 56.6003 77.3314 56.8458 77.3207 56.9952C77.3207 57.1446 77.246 57.358 77.1606 57.4754C77.0752 57.5821 77.0005 57.8062 77.0005 57.9556C77.0005 58.105 76.9258 58.3184 76.8404 58.4358C76.755 58.5425 76.6803 58.7346 76.6803 58.8626C76.6803 58.98 76.6056 59.1721 76.5202 59.2895C76.4348 59.3962 76.3601 59.5989 76.3601 59.7163C76.3601 59.8444 76.2854 60.0045 76.2 60.0792C76.1146 60.1539 76.0399 60.2712 76.0399 60.3459C76.0399 60.4313 75.9758 60.6234 75.8905 60.7941C75.8051 60.9542 75.5702 61.4344 75.3568 61.8613C75.154 62.2774 74.8764 62.811 74.7484 63.0351C74.268 63.8888 73.9692 64.401 73.9051 64.4544C73.8731 64.4864 73.6169 64.8706 73.3287 65.3081C71.2901 68.4134 68.152 71.5508 65.0459 73.589C64.6083 73.8771 64.224 74.1332 64.192 74.1759C64.1493 74.2293 63.8611 74.3893 62.6443 75.083C62.5269 75.1577 62.0679 75.3817 61.6303 75.5952C61.1927 75.8193 60.691 76.054 60.5309 76.1394C60.3601 76.2248 60.168 76.2995 60.0826 76.2995C60.0079 76.2995 59.8905 76.3742 59.8158 76.4595C59.741 76.5449 59.5809 76.6196 59.4528 76.6196C59.3354 76.6196 59.1326 76.6943 59.0259 76.7797C58.9085 76.8651 58.7164 76.9398 58.5989 76.9398C58.4709 76.9398 58.2787 77.0145 58.172 77.0998C58.0546 77.1852 57.8411 77.2599 57.6917 77.2599C57.5422 77.2599 57.3181 77.3346 57.2114 77.42C57.0939 77.5053 56.8805 77.58 56.731 77.58C56.5816 77.5907 56.3361 77.6547 56.1867 77.7401C56.0372 77.8255 55.7917 77.8895 55.6423 77.9002C55.4822 77.9002 55.1833 77.9749 54.9805 78.0602C54.7671 78.1456 54.4148 78.2203 54.1907 78.2203C53.9665 78.231 53.6677 78.295 53.5182 78.3804C53.3688 78.4657 52.9632 78.5298 52.6003 78.5404C52.2481 78.5404 51.7144 78.6151 51.4262 78.7005C50.8711 78.8713 49.601 78.9139 49.3768 78.7752C49.2807 78.7005 49.3021 78.5725 49.5156 78.1883C49.6543 77.9108 49.8785 77.4306 50.0066 77.1212C50.1346 76.8224 50.3054 76.4169 50.3801 76.2248C50.4655 76.0434 50.5296 75.8193 50.5296 75.7339C50.5296 75.6485 50.6043 75.4351 50.6897 75.275C50.7751 75.1043 50.8498 74.8482 50.8498 74.6988C50.8498 74.5494 50.9245 74.1866 51.0206 73.8984C51.2661 73.1194 51.2767 69.7366 51.0419 68.9897C50.9459 68.6909 50.711 67.9545 50.5189 67.3356C50.3374 66.7167 49.9639 65.7029 49.7077 65.0626C48.6403 62.4162 48.2667 61.5091 48.1813 61.3063C48.128 61.189 47.9999 60.8475 47.9038 60.5594C47.8078 60.2606 47.669 59.8764 47.605 59.7057C47.3701 59.1294 47.1994 58.6492 47.114 58.265C47.0713 58.0623 46.9859 57.6781 46.9112 57.4113C46.6763 56.4509 46.4735 55.1063 46.4735 54.5514C46.4735 53.6337 46.8151 52.4065 47.4342 51.0513C47.7864 50.3043 47.8184 50.2723 48.6403 49.9414C49.0459 49.7814 49.3875 49.5466 49.665 49.2371C50.1773 48.6502 50.4442 48.5542 51.5222 48.5542C52.4295 48.5542 53.3368 48.3834 54.6923 47.9353C56.8698 47.2309 58.9085 45.801 60.4455 43.9335C60.7764 43.528 61.246 42.9518 61.4915 42.6423C61.7477 42.3435 62.132 41.842 62.3454 41.5218C63.0392 40.5294 63.4342 39.9852 63.9252 39.3235C64.1813 38.9714 64.5442 38.4272 64.7364 38.1177C64.9178 37.8189 65.0993 37.5628 65.1526 37.5628C65.238 37.5628 66.1133 36.421 66.1133 36.3036C66.1133 35.9194 69.7744 33.1876 70.2867 33.1876C70.3508 33.1876 70.5536 33.1235 70.735 33.0488C71.4075 32.7607 72.1546 32.5686 72.8378 32.4939C73.222 32.4512 73.6276 32.3765 73.745 32.3232C74.1079 32.1845 74.1933 32.2165 74.4815 32.59ZM21.4008 33.4757C22.3295 35.023 23.7811 36.6237 25.2541 37.7335C26.2467 38.4698 28.1147 39.4836 28.4882 39.4836C28.595 39.4836 28.8938 39.5583 29.1714 39.6437C30.3348 40.0065 30.8258 40.1239 31.1994 40.1239C31.4128 40.1239 31.8505 40.1986 32.1707 40.284C32.4909 40.3693 33.0032 40.444 33.3128 40.444C33.6223 40.444 34.1453 40.5187 34.4869 40.6041C34.8178 40.6895 35.3408 40.7642 35.6503 40.7642C35.9492 40.7642 36.3335 40.8068 36.5042 40.8709C36.675 40.9242 37.1767 41.0203 37.6143 41.0843C38.8952 41.2444 39.7811 41.4258 40.144 41.5752C40.3254 41.6605 40.5709 41.7246 40.6884 41.7246C40.8058 41.7246 41.0406 41.7993 41.2007 41.8846C41.3715 41.97 41.6063 42.0447 41.7237 42.0447C41.8411 42.0447 42.0332 42.1194 42.14 42.2048C42.2574 42.2901 42.4068 42.3648 42.4815 42.3648C42.8018 42.3648 44.2427 43.3466 44.8938 44.0082C46.0679 45.1927 46.5162 45.9504 46.196 46.2172C45.9185 46.4413 45.5129 47.391 45.5129 47.8072C45.5129 48.1914 45.9292 49.2158 46.1427 49.3439C46.3455 49.4719 46.2707 49.7814 45.7797 50.7418C45.118 52.0437 44.7017 53.1108 44.4242 54.1993C44.232 54.9783 44.2 55.4158 44.2 57.1446C44.2 58.2544 44.2534 59.3642 44.3174 59.5989C44.3708 59.8337 44.5096 60.2926 44.6056 60.6127C44.7017 60.9329 44.8191 61.3917 44.8831 61.6265C44.9472 61.8613 45.0326 62.096 45.0966 62.1494C45.15 62.2134 45.1927 62.3415 45.1927 62.4375C45.1927 62.5335 45.2888 62.843 45.4168 63.1311C45.7477 63.9208 45.7904 64.0275 46.0466 64.6678C46.164 64.9879 46.3134 65.3508 46.3668 65.4681C46.5376 65.8203 47.7117 68.8509 47.8932 69.3632C48.4482 70.9959 48.6083 71.9563 48.6083 73.5676C48.6083 75.2644 48.3735 76.4489 47.7971 77.7614C47.7117 77.9429 47.6477 78.1243 47.6477 78.167C47.6477 78.2096 47.5516 78.3804 47.4235 78.5511L47.21 78.8606H45.9505C45.1393 78.8606 44.5096 78.8072 44.168 78.7005C43.8798 78.6151 43.3781 78.5404 43.0473 78.5404C42.7164 78.5404 42.2681 78.4657 42.0653 78.3804C41.8518 78.295 41.4996 78.2203 41.2754 78.2203C41.0513 78.2096 40.7524 78.1456 40.603 78.0602C40.4535 77.9749 40.1653 77.9002 39.9625 77.9002C39.7597 77.9002 39.4929 77.8255 39.3862 77.7401C39.2687 77.6547 39.0232 77.58 38.8525 77.58C38.671 77.58 38.4255 77.5053 38.3188 77.42C38.2014 77.3346 37.9879 77.2599 37.8385 77.2599C37.689 77.2599 37.4649 77.1852 37.3581 77.0998C37.2407 77.0145 37.0379 76.9398 36.9098 76.9398C36.7818 76.9398 36.6216 76.8651 36.5469 76.7797C36.4722 76.6943 36.3228 76.6196 36.2054 76.6196C36.088 76.6196 35.8638 76.5556 35.7144 76.4702C35.5543 76.3848 35.3515 76.2888 35.2661 76.2568C35.1807 76.2248 35.0313 76.1501 34.9459 76.0967C34.8605 76.0434 34.4122 75.8299 33.9639 75.6058C33.5049 75.3924 33.11 75.1683 33.078 75.115C33.0353 75.0616 32.9392 75.0189 32.8538 75.0189C32.7684 75.0189 32.5656 74.9229 32.4055 74.8162C32.2454 74.7095 31.5623 74.2506 30.8898 73.8131C30.2174 73.3649 29.3315 72.7353 28.9152 72.4151C28.5096 72.095 27.8371 71.5614 27.4209 71.2413C25.9799 70.1315 24.0159 67.8798 22.2227 65.3081C21.8171 64.7212 21.4862 64.1769 20.5683 62.5869C20.3975 62.2881 20.0346 61.5411 19.661 60.7194C19.4902 60.3353 19.2768 59.8871 19.1914 59.727C19.106 59.5563 19.0419 59.3428 19.0419 59.2361C19.0419 59.1401 18.9672 58.9587 18.8818 58.8413C18.7964 58.7346 18.7217 58.5425 18.7217 58.4144C18.7217 58.297 18.647 58.105 18.5616 57.9876C18.4762 57.8809 18.4015 57.6354 18.4015 57.4647C18.4015 57.2833 18.3268 57.0485 18.2414 56.9418C18.156 56.8244 18.0813 56.6003 18.0813 56.4403C18.0813 56.2802 18.0066 56.0134 17.9212 55.8533C17.8358 55.6826 17.7611 55.3838 17.7611 55.1917C17.7611 54.9996 17.6864 54.6688 17.601 54.4554C17.5156 54.2526 17.4409 53.8685 17.4409 53.6017C17.4409 53.3456 17.3875 53.0254 17.3128 52.8974C17.2488 52.7693 17.1527 51.9903 17.11 51.1686C17.0673 50.347 16.9712 49.3012 16.8965 48.8423C16.7898 48.1914 16.7898 47.8819 16.8965 47.3483C16.9606 46.9855 17.0246 46.5373 17.0246 46.3666C17.0033 45.4382 17.1634 43.7521 17.2914 43.3466C17.3768 43.1012 17.4409 42.7063 17.4409 42.4716C17.4409 42.2475 17.4942 41.9273 17.569 41.7566C17.633 41.5965 17.7184 41.2124 17.7611 40.9242C17.8038 40.6254 17.8999 40.2306 17.9639 40.0385C18.2628 39.1848 18.3161 38.9821 18.4015 38.5979C18.4442 38.3738 18.5403 38.1284 18.6043 38.0643C18.6684 38.0003 18.7217 37.8509 18.7217 37.7228C18.7217 37.5948 18.7964 37.4027 18.8818 37.2853C18.9672 37.1786 19.0419 36.9972 19.0419 36.8905C19.0419 36.7731 19.106 36.5597 19.1807 36.4103C19.3408 36.1115 19.6183 35.4926 19.7251 35.2151C19.7571 35.1297 19.8318 34.9803 19.8852 34.895C19.9385 34.8096 20.088 34.5215 20.2161 34.2547C20.3335 33.9879 20.4829 33.6998 20.5363 33.6144C20.5896 33.529 20.6537 33.369 20.6857 33.2623C20.7818 32.9421 21.1447 33.0488 21.4008 33.4757Z" fill="black"/>
<path d="M44.7658 22.9646C44.6164 23.0286 44.136 23.114 43.6984 23.1567C42.9192 23.242 42.2575 23.3807 41.617 23.6048C41.4463 23.6689 41.126 23.7436 40.9232 23.7649C40.7204 23.7969 40.507 23.861 40.4429 23.9036C40.3895 23.9463 40.1761 24.021 39.9839 24.0637C39.7918 24.1064 39.5036 24.2024 39.3435 24.2878C39.1834 24.3732 39.002 24.4372 38.9272 24.4372C38.8632 24.4372 38.6711 24.5012 38.5003 24.5866C38.3402 24.672 38.0306 24.8107 37.8278 24.8961C36.8245 25.3122 36.0773 25.6964 35.0527 26.326C33.4836 27.2864 33.2701 27.4252 32.7685 27.852C32.5337 28.0654 32.2134 28.3109 32.064 28.4069C31.541 28.7377 30.4629 29.7942 30.4629 29.9756C30.4629 30.0823 30.5804 30.2744 30.7298 30.4131L30.9966 30.6692L31.3489 30.3277C31.8185 29.8689 32.2561 29.8689 32.6938 30.3171C33.3022 30.9253 33.2808 31.4269 32.619 31.7684C32.3629 31.8964 32.0854 32.0565 32 32.1205C31.7651 32.3233 31.8292 32.7288 32.1601 33.1023L32.4696 33.4544L34.7645 33.4864C37.2835 33.5291 37.4009 33.4971 37.4009 32.8675C37.4009 32.2379 37.3689 32.2272 36.12 32.2272C34.8072 32.2272 34.6577 32.1525 34.7751 31.5336C34.8605 31.1067 35.4049 30.6265 35.8212 30.6265C35.9599 30.6265 36.1734 30.5518 36.2908 30.4665C36.3976 30.3811 36.6431 30.3064 36.8352 30.3064C37.102 30.3064 37.2194 30.3811 37.4009 30.6799C37.529 30.8826 37.8172 31.2455 38.0413 31.4802C38.511 31.9711 38.9699 32.0458 39.3222 31.6937C39.621 31.3949 39.589 31.0534 39.2154 30.5412C39.0447 30.2957 38.8952 30.061 38.8952 30.0289C38.8952 29.9969 38.7565 29.7515 38.575 29.4847C38.4042 29.2286 38.2548 28.9832 38.2548 28.9512C38.2548 28.9191 38.0733 28.599 37.8492 28.2362C36.9633 26.8276 36.7925 26.2513 37.2728 26.2513C37.3902 26.2513 37.5397 26.1766 37.6144 26.0913C37.6891 26.0059 37.8278 25.9312 37.9346 25.9312C38.0413 25.9312 38.1801 25.8565 38.2548 25.7711C38.3295 25.6857 38.5003 25.611 38.6284 25.611C38.7565 25.611 39.13 25.4616 39.4609 25.2909C39.7918 25.1095 40.1547 24.9708 40.2615 24.9708C40.3682 24.9708 40.4963 24.9281 40.5603 24.8641C40.6137 24.8107 40.8805 24.7147 41.1367 24.6613C41.4036 24.5973 41.9052 24.4799 42.2575 24.3838C42.6097 24.2878 43.2074 24.1598 43.5917 24.1171C43.9759 24.0637 44.4136 23.9783 44.563 23.925C44.9046 23.7863 48.2561 23.6369 48.651 23.7329C48.8538 23.7863 48.9286 23.8716 48.9286 24.053C48.9286 24.5012 48.6937 24.6186 47.6477 24.6826C46.3455 24.768 45.9933 24.9601 46.004 25.6004C46.0146 25.9205 46.0893 26.1233 46.2815 26.3367C46.6977 26.7742 46.7938 27.041 46.7938 27.6813C46.7938 28.1508 46.7511 28.2895 46.6017 28.3749C46.3348 28.5136 46.1534 28.3322 46.1534 27.9374C46.1534 27.7773 45.9399 27.2011 45.6837 26.6568C45.4169 26.1126 45.1287 25.3869 45.0326 25.0455L44.8512 24.4372H44.2748C43.7625 24.4372 43.6771 24.4692 43.5703 24.704C43.4743 24.9067 43.4849 25.0775 43.5917 25.419C43.6771 25.6751 43.7838 25.9312 43.8265 26.0059C43.8799 26.0699 43.9119 26.2727 43.8905 26.4541L43.8585 26.7742L43.4209 26.5821C43.1754 26.4754 42.7591 26.1553 42.4923 25.8885L42.0013 25.3976H41.1474C40.3575 25.3976 40.2828 25.419 40.08 25.6751C39.8025 26.0379 39.7918 26.5074 40.0693 26.7849C40.2401 26.9556 40.3682 26.9876 40.7525 26.9343C41.126 26.8809 41.3075 26.9129 41.5957 27.0944C42.2468 27.4892 42.2788 27.9907 41.6917 28.6203C41.3395 28.9938 41.2221 29.0472 40.8378 29.0472C40.571 29.0365 40.2294 28.9405 40.0053 28.8124C39.6424 28.5883 39.621 28.5883 39.4289 28.7591C39.3115 28.8658 39.2154 29.0472 39.2154 29.1646C39.2154 29.4527 39.621 29.9863 39.8452 29.9863C39.9519 29.9863 40.1014 30.061 40.1761 30.1463C40.2828 30.2744 40.5603 30.3064 41.3929 30.3064C42.4496 30.3064 42.4923 30.2957 42.7591 30.0076C43.0153 29.7408 43.1434 29.314 43.3248 28.1401C43.3675 27.884 43.4743 27.6813 43.645 27.5746C43.7838 27.4785 43.9332 27.3184 43.9653 27.2011C44.0613 26.8916 44.2108 26.9556 44.2855 27.3398C44.3709 27.756 44.9793 28.8871 45.3635 29.3353C45.6304 29.6555 45.6517 29.6661 46.6124 29.6661C47.6477 29.6661 47.6797 29.6555 48.0213 29.2499C48.2027 29.0472 48.2454 28.8018 48.2881 27.6493C48.3415 26.3474 48.3522 26.3047 48.587 26.2727C49.0673 26.198 49.142 26.4007 49.142 27.6813C49.142 28.5883 49.1847 28.9298 49.3128 29.1112C49.5263 29.4207 49.9426 29.41 50.2628 29.0792L50.5296 28.8231V26.3047V23.7969H50.8925C51.2554 23.7969 51.4582 24.0104 51.3088 24.2558C51.2768 24.3092 51.2021 25.1842 51.1594 26.1873C51.1167 27.1904 51.0206 28.2468 50.9459 28.535C50.8178 29.0579 50.8178 29.0685 51.1274 29.314C51.4903 29.6021 51.7785 29.6234 52.1093 29.3887C52.3122 29.2499 52.3442 29.1326 52.3442 28.4069C52.3548 27.9587 52.4189 27.2971 52.5043 26.945C52.5897 26.5928 52.6644 25.8351 52.6644 25.2589C52.6644 24.0744 52.7178 23.9997 53.4222 24.2238C53.9452 24.3945 54.3402 24.8427 54.4362 25.3549C54.5109 25.7604 54.3508 26.2513 54.148 26.2513C54.0733 26.2513 53.8172 26.358 53.561 26.4861C53.0166 26.7529 52.8779 27.0623 52.8779 28.0014C52.8885 29.0258 53.0273 29.4527 53.5076 29.9009C53.9346 30.3064 53.9452 30.3064 54.8525 30.3064C55.621 30.3064 55.7811 30.3384 55.8345 30.4878C56.0266 31 56.3362 31.2668 56.7311 31.2668C57.3075 31.2668 57.617 30.8293 58.0973 29.346C58.1507 29.1966 58.3001 28.8871 58.4389 28.6524C58.6951 28.2255 58.8872 27.7773 59.0793 27.1264C59.2501 26.5821 59.6023 26.4754 60.2001 26.7956C61.2034 27.3291 62.3668 28.1081 63.1033 28.7697C63.5943 29.1966 63.669 29.3033 63.605 29.5487C63.4235 30.2637 63.0713 30.2637 62.2921 29.5167C61.1287 28.4283 60.7124 28.1721 60.104 28.1721C59.3782 28.1721 58.9512 28.4709 58.6524 29.1859C58.5243 29.4847 58.4282 29.8262 58.4282 29.9436C58.4282 30.0716 58.3535 30.3491 58.2681 30.5518C58.108 30.9573 58.0546 32.0885 58.1934 32.2806C58.2788 32.398 58.5563 32.5794 58.9299 32.7715C59.5276 33.0809 60.0293 32.4086 60.0293 31.2668C60.0293 30.1036 60.5523 29.8902 61.4169 30.6906C62.132 31.3522 62.1213 31.5443 61.3101 32.494C60.8191 33.0703 60.6697 33.3157 60.6697 33.5825C60.6697 34.3508 61.5129 34.6389 61.9719 34.0307C62.1107 33.8493 62.6657 33.2303 63.2101 32.6434C63.7438 32.0672 64.1921 31.5229 64.1921 31.4482C64.1921 31.1708 64.6297 30.8186 64.8859 30.8826C65.6117 31.0641 66.156 30.5945 65.8785 30.0289C65.7718 29.8262 65.7184 29.314 65.7077 28.5456C65.6971 27.8947 65.6223 27.0944 65.5263 26.7529C65.4409 26.4114 65.3662 26.0166 65.3662 25.8672C65.3662 25.547 64.8325 24.9708 64.5443 24.9708C64.2774 24.9708 63.7651 25.5043 63.7651 25.7818C63.7651 25.8885 63.8398 26.1233 63.9252 26.294C64.0106 26.4541 64.0853 26.6675 64.0853 26.7529C64.0853 26.8382 64.16 27.073 64.2561 27.2758C64.6083 28.0014 64.1921 28.4496 63.6477 27.9267C63.3809 27.6706 62.3028 26.8916 62.2174 26.8916C62.1961 26.8916 61.8652 26.6888 61.4916 26.4327C60.8939 26.0486 59.1113 25.0988 58.4816 24.8534C58.3642 24.8107 58.0546 24.672 57.7878 24.5653C57.521 24.4479 56.9019 24.2238 56.4002 24.0637C55.8985 23.9036 55.3008 23.7116 55.066 23.6262C54.8205 23.5408 54.5003 23.4768 54.3402 23.4768C54.1801 23.4768 53.8705 23.4021 53.657 23.3167C53.4542 23.2314 53.0807 23.1567 52.8245 23.1567C52.579 23.1567 52.1414 23.082 51.8532 22.9966C51.4369 22.8685 50.6791 22.8365 48.1814 22.8472C46.1961 22.8472 44.9366 22.8899 44.7658 22.9646ZM57.0193 25.2055C57.2755 25.3122 57.521 25.515 57.5636 25.6324C57.6597 25.9098 57.4996 26.4968 57.0727 27.3931C56.5923 28.4283 55.4716 29.0685 54.7885 28.7057C54.6817 28.6417 54.5857 28.503 54.5857 28.3962C54.5857 28.1828 54.9272 27.7453 55.098 27.7453C55.3755 27.7453 55.7811 27.4678 55.9839 27.137C56.1654 26.8489 56.1974 26.6568 56.1547 26.0592C56.1334 25.6644 56.0693 25.2376 56.0266 25.0988C55.9519 24.8747 55.9733 24.8534 56.2508 24.9281C56.4216 24.9708 56.7631 25.0882 57.0193 25.2055ZM35.4583 27.6599C35.533 27.7346 35.5864 28.0441 35.5864 28.3536C35.5864 28.8765 35.565 28.9405 35.2448 29.1326C34.7538 29.4314 34.3268 29.41 33.9639 29.0579C33.4516 28.567 33.5477 28.4176 34.7858 27.7133C35.1701 27.4999 35.2875 27.4892 35.4583 27.6599Z" fill="black"/>
<path d="M68.1199 49.3866C67.4368 49.9521 66.9138 50.3363 66.5722 50.5177C66.1559 50.7311 66.0065 50.9766 66.0065 51.4781C66.0065 51.8623 66.22 52.0757 66.5722 52.0757C66.6683 52.0757 67.0845 51.8089 67.5008 51.4888C68.1519 50.9979 68.312 50.9232 68.4828 51.0193C68.7283 51.158 68.707 51.4248 68.3761 52.2358C68.2587 52.5239 68.0986 53.0468 68.0238 53.3883C67.8637 54.1566 67.7143 54.2953 67.2553 54.1139C67.0632 54.0499 66.6362 53.8898 66.284 53.7618L65.6649 53.5484L65.4194 53.7938C65.1739 54.0499 65.1099 54.1993 65.1419 54.5515C65.1526 54.7862 66.1559 55.2451 67.5542 55.6506C67.9064 55.7573 68.3441 55.896 68.5148 55.9707C68.6963 56.0454 69.0165 56.1842 69.2406 56.2802C69.4648 56.3762 69.6996 56.4509 69.785 56.4509C69.8597 56.4509 70.0198 56.5577 70.1479 56.6964L70.3827 56.9418L70.1372 57.1766C69.9985 57.3046 69.817 57.4114 69.721 57.4114C69.6356 57.4114 69.1232 57.1979 68.5895 56.9311C68.0559 56.6644 67.5755 56.4509 67.5222 56.4509C67.4688 56.4509 66.9885 56.2375 66.4655 55.9707C65.9318 55.7146 65.3127 55.4692 65.0886 55.4372C64.7256 55.3731 64.6403 55.4052 64.4054 55.6506C64.1493 55.9174 64.1493 55.928 64.3307 56.2695C64.4588 56.5043 64.6936 56.6964 65.0779 56.8671C65.3874 57.0058 65.9211 57.2406 66.2627 57.4007C66.6042 57.5501 67.3727 57.9236 67.9705 58.2224C69.2193 58.852 69.3047 58.9907 68.8137 59.695C68.6429 59.9298 68.3547 60.442 68.1733 60.8262C67.9918 61.2103 67.6823 61.6692 67.4795 61.8506C67.2873 62.032 66.9138 62.4802 66.6576 62.843C66.3054 63.3446 66.1346 63.494 65.9638 63.4726C65.8144 63.4513 65.729 63.3552 65.7076 63.1738C65.6329 62.5229 64.9498 61.8933 64.32 61.8933C63.9358 61.8933 63.765 61.7119 63.765 61.3064C63.765 60.9009 63.2527 60.3139 62.7723 60.1752C62.3134 60.0472 61.5555 60.0472 61.2994 60.1859C60.9471 60.378 60.3814 61.0076 60.3067 61.2957C60.2747 61.4451 60.1893 61.5731 60.1359 61.5731C60.0719 61.5731 60.0292 61.6692 60.0292 61.7759C60.0292 62.064 59.8797 62.1281 59.5702 61.9893C59.3461 61.8933 59.25 61.904 59.0365 62.064C58.8871 62.1814 58.695 62.3948 58.5989 62.5442C58.4174 62.8537 58.3214 62.683 60.1893 65.3081C61.5022 67.1542 61.5555 67.2396 61.6089 67.7945C61.6409 68.0719 61.6943 68.3281 61.7477 68.3601C62.0145 68.5201 63.5515 67.3676 63.5515 67.0048C63.5515 66.9408 63.3381 66.674 63.0712 66.4072C62.8044 66.1511 62.5162 65.7883 62.4201 65.5962C62.324 65.4041 62.1106 65.1053 61.9505 64.9346C61.7797 64.7532 61.5128 64.3477 61.3527 64.0275C61.0859 63.494 61.0752 63.4193 61.1926 62.9604C61.2673 62.6509 61.4488 62.3522 61.6943 62.1174C62.1639 61.6799 62.2707 61.7759 62.2707 62.6509C62.2707 63.1312 62.3134 63.2912 62.5162 63.4726C62.8044 63.7501 62.9751 63.7608 63.4021 63.5473C63.5729 63.462 63.829 63.4193 63.9571 63.462C64.1813 63.5153 64.192 63.558 64.1279 64.1449C64.0852 64.5398 64.1066 64.8812 64.1813 65.0733C64.3094 65.3828 64.7897 65.7349 65.0886 65.7349C65.1846 65.7349 65.793 65.2227 66.4548 64.5824C67.6716 63.4086 68.216 62.683 69.5288 60.4633C69.9558 59.7377 70.2653 59.3322 70.3721 59.3322C70.7883 59.3322 71.4501 60.3246 71.4501 60.9542C71.4501 61.4558 70.5108 62.0427 69.5075 62.1814C68.9952 62.2454 68.7603 62.5229 68.803 62.9818L68.835 63.3339L69.7423 63.3552C70.5855 63.3873 70.6923 63.3659 71.2793 63.0351C71.7063 62.811 72.0692 62.4909 72.4001 62.064L72.8911 61.4451L72.8804 60.57C72.8804 59.8978 72.827 59.631 72.6669 59.3855C72.3787 58.948 71.8984 58.4785 71.3647 58.137C70.8737 57.8062 70.8737 57.8382 71.3647 56.8778C71.5248 56.5577 71.6636 56.2055 71.6636 56.1095C71.6636 56.0134 71.7063 55.9067 71.7597 55.8747C71.813 55.8427 71.8877 55.6399 71.9304 55.4265C71.9625 55.2131 72.0372 54.957 72.0905 54.8609C72.208 54.6155 72.4108 53.8258 72.5175 53.1535C72.5709 52.8441 72.6669 52.4492 72.731 52.2891C72.795 52.1397 72.8377 51.6702 72.8164 51.2647C72.7843 50.5284 72.7843 50.5284 72.4748 50.5284C72.1653 50.5284 72.1119 50.5924 71.8877 51.158C71.7703 51.4568 71.749 51.4568 71.1299 51.4141C70.6069 51.3821 70.4361 51.3074 70.1693 51.0619C69.7957 50.6991 69.785 50.6458 70.0625 50.2936C70.5962 49.6107 70.1586 49.0878 69.0592 49.0878C68.5682 49.0878 68.4081 49.1411 68.1199 49.3866ZM70.9164 52.7907C71.0659 52.8867 71.2153 53.0255 71.258 53.0788C71.3968 53.2709 71.3541 53.8045 71.1726 54.37C71.0765 54.6582 70.9805 54.9676 70.9591 55.0317C70.9058 55.2131 70.4788 55.2024 70.2333 55.0103C70.1159 54.9249 69.9131 54.8502 69.785 54.8502C69.6569 54.8502 69.4435 54.7542 69.3047 54.6475C69.0805 54.4768 69.0485 54.3487 69.0592 53.8045C69.0699 53.3883 69.1339 53.0575 69.2513 52.8867C69.4008 52.6413 69.4968 52.6093 70.0412 52.6093C70.4468 52.6093 70.7457 52.6733 70.9164 52.7907Z" fill="black"/>
<path d="M65.8145 58.1797C65.7291 58.2651 65.6864 58.692 65.6864 59.3749C65.6757 60.1112 65.633 60.5381 65.5263 60.7195C65.3555 61.0183 65.3235 61.4451 65.4622 61.6586C65.5049 61.7439 65.7504 61.8293 65.9852 61.8613C66.4122 61.9147 66.4549 61.8933 66.9139 61.4025C67.1807 61.1143 67.4476 60.7088 67.5116 60.5061C67.5756 60.3033 67.6717 60.0899 67.7251 60.0259C67.8745 59.8765 67.8425 59.3856 67.661 58.9374C67.3942 58.2651 66.2094 57.7849 65.8145 58.1797Z" fill="black"/>
<path d="M57.9692 64.86C57.713 65.1374 57.745 65.6816 58.0225 65.9484C58.3321 66.2365 58.5455 66.2152 58.9085 65.8844C59.154 65.6603 59.186 65.5536 59.1326 65.2761C59.1006 65.084 58.9832 64.8706 58.8871 64.7959C58.6309 64.6038 58.172 64.6359 57.9692 64.86Z" fill="black"/>
<path d="M59.389 66.8342C59.1862 66.9302 59.1114 67.0689 59.0901 67.3677C59.0474 67.912 59.2075 68.0827 59.7732 68.0827C60.1895 68.0827 60.2642 68.0507 60.3496 67.8052C60.4884 67.4531 60.3816 67.0476 60.1041 66.8555C59.8266 66.6634 59.7305 66.6634 59.389 66.8342Z" fill="black"/>
<path d="M31.7437 46.7082C31.4662 46.8042 30.6764 47.6259 30.6764 47.818C30.6764 48.0314 31.1567 48.4476 31.3915 48.4476C31.6477 48.4476 32.5976 47.4765 32.5976 47.2097C32.5976 46.8255 32.1493 46.5588 31.7437 46.7082Z" fill="black"/>
<path d="M23.2688 47.5511C23.1621 47.8392 23.1941 49.5893 23.3222 49.9095C23.3862 50.0695 23.4823 50.6671 23.5357 51.222C23.589 51.7769 23.6958 52.5666 23.7812 52.9828C23.8772 53.3883 23.9946 54.0179 24.0694 54.37C24.1334 54.7222 24.2295 55.053 24.2722 55.117C24.3149 55.1704 24.3896 55.3945 24.4323 55.5972C24.475 55.8 24.5497 56.0348 24.5924 56.1308C24.6884 56.3336 25.1047 57.358 25.2755 57.8062C25.3502 57.9983 25.4783 58.233 25.5637 58.3398C25.6491 58.4465 25.8092 58.7026 25.9052 58.9053C26.3429 59.759 26.4816 59.9831 27.4423 61.4131C28.7124 63.2912 29.086 63.7394 30.8365 65.5215C32.6084 67.3143 33.7078 68.1467 35.3729 68.9897C36.1627 69.3845 36.6537 69.4592 36.8672 69.2031C36.9633 69.0857 36.9526 69.0004 36.8245 68.8083C36.7284 68.6802 36.6537 68.3601 36.6537 68.0933C36.6537 67.6985 36.7071 67.5704 37.038 67.2716C37.4863 66.8448 37.8065 66.8127 38.2228 67.1542C38.6391 67.4957 38.8525 67.5597 39.1514 67.421C39.6851 67.1862 39.7491 66.3219 39.3328 65.116C39.2688 64.9346 39.1621 64.6145 39.098 64.4224C39.034 64.241 38.9486 63.8888 38.9059 63.6434C38.7992 63.0244 38.4256 62.5336 38.052 62.5336C37.6357 62.5336 37.3582 62.875 37.4436 63.2485C37.4863 63.4086 37.561 63.7821 37.6144 64.0809C37.6677 64.369 37.7425 64.7745 37.7852 64.9559C37.8385 65.2654 37.8278 65.3081 37.625 65.3081C37.497 65.3081 37.3155 65.2654 37.2088 65.2121C37.1127 65.1587 36.7498 65.02 36.4082 64.9133C35.8319 64.7318 35.7678 64.6892 35.565 64.2196L35.3409 63.7074L35.7571 63.2059C36.6964 62.064 36.8886 61.4985 36.4616 61.1143C36.12 60.7941 35.6397 60.8902 35.2234 61.3277C34.7111 61.8933 33.996 62.7897 33.5477 63.43C32.9606 64.273 32.2028 64.988 31.8932 64.988C31.7438 64.988 31.4663 64.8279 31.2315 64.6251C30.9006 64.3157 30.8579 64.2196 30.9539 64.0596C31.018 63.9528 31.2848 63.8141 31.5517 63.7501C32.5657 63.494 32.8539 63.1738 32.8859 62.2988C32.8966 61.9466 32.9179 61.6478 32.9393 61.6372C32.9606 61.6158 33.2701 61.4344 33.6331 61.2103C34.1347 60.9115 34.3375 60.7088 34.5083 60.3673C34.8072 59.7484 34.7858 59.5029 34.4122 58.9373C34.0493 58.4038 33.8999 58.2651 32.9499 57.5714C32.3415 57.1446 32.0854 56.7711 32.3949 56.7711C32.4589 56.7711 32.491 56.5897 32.4696 56.3122L32.4376 55.864L31.9573 55.832C31.4876 55.8 30.8792 56.0134 30.2388 56.4616C30.0894 56.5683 29.4276 56.9205 28.7765 57.2513C28.1147 57.5928 27.549 57.9022 27.517 57.9556C27.4209 58.1157 27.09 58.0623 26.8979 57.8489C26.6844 57.6141 26.7058 57.3153 26.9406 57.1873C27.1647 57.0485 30.6444 55.3945 31.1781 55.1597C31.6798 54.9463 31.8505 54.5835 31.6584 54.1566C31.4449 53.6871 31.0287 53.6978 29.7158 54.21C29.3956 54.338 29.0113 54.4768 28.8619 54.5194C28.6057 54.6048 27.3569 55.1704 26.4389 55.6186C26.1934 55.736 25.9373 55.8107 25.8519 55.7787C25.6491 55.704 25.2328 54.5194 25.03 53.4096C24.9873 53.1642 24.9126 52.9081 24.8592 52.8227C24.8165 52.748 24.7311 52.3638 24.6884 51.9797C24.6457 51.5955 24.5603 51.0726 24.4963 50.8272C24.4216 50.5284 24.4109 50.2936 24.4856 50.1015C24.5817 49.8454 24.6351 49.8241 25.094 49.8561L25.6064 49.8881L25.6277 51.4461L25.6491 53.0041L25.9906 53.527C26.1828 53.8151 26.3962 54.0819 26.4496 54.1246C26.6204 54.242 27.549 54.2313 27.7732 54.1033C27.8692 54.0499 28.2641 53.8792 28.6377 53.7191C29.3849 53.4203 30.3135 52.8654 30.6764 52.5026C30.9326 52.2465 30.9539 51.8623 30.7298 51.4354C30.591 51.1687 30.495 51.1153 30.1641 51.1153C29.9079 51.1153 29.6197 51.2113 29.3635 51.3928C28.3922 52.0544 27.5704 52.2465 27.3676 51.873C27.1434 51.4461 27.3249 49.9308 27.6344 49.632C27.6984 49.5786 28.2001 49.4826 28.7551 49.4292C29.3102 49.3652 29.8972 49.2692 30.068 49.2052C30.3242 49.1091 30.3562 49.0344 30.3562 48.6182C30.3562 48.2661 30.3028 48.106 30.1748 48.042C30.0146 47.9673 25.6918 47.978 24.539 48.0527C24.3042 48.074 24.2188 48.0206 24.1868 47.8606C24.1654 47.7432 24.0907 47.5831 24.0373 47.5084C23.8772 47.327 23.3435 47.3484 23.2688 47.5511ZM31.7545 58.5852C32.4376 58.8947 32.619 59.0654 32.5764 59.3535C32.555 59.5563 32.4589 59.6096 32.064 59.663C31.4343 59.759 30.9966 59.9298 30.7084 60.2072C30.3349 60.5594 30.3989 60.9009 30.9006 61.3491C31.4449 61.8293 31.4236 62.1601 30.8259 62.2775C30.068 62.4162 29.6411 62.2775 29.0327 61.6585C28.7124 61.3491 28.3816 60.9222 28.2855 60.7194C28.2001 60.5167 28.0613 60.2606 27.9866 60.1539C27.8692 59.9938 27.9012 59.9191 28.2748 59.599C28.5096 59.4069 28.9579 59.1081 29.2675 58.9373C29.5877 58.7773 29.8866 58.5745 29.9506 58.4998C30.1321 58.2971 31.2208 58.3398 31.7545 58.5852ZM35.1381 65.767C35.597 66.1938 35.2982 67.2289 34.7111 67.2289C34.4656 67.2289 33.9639 66.9728 33.7825 66.7701C33.4943 66.4179 34.2842 65.3401 34.7111 65.4895C34.8072 65.5215 34.9993 65.6496 35.1381 65.767Z" fill="black"/>
<path d="M30.6764 66.8875C30.4096 67.1009 30.3135 67.5918 30.4736 67.8906C30.5483 68.04 30.7084 68.0827 31.1354 68.0827C31.7865 68.0827 31.9573 67.9546 31.9573 67.4958C31.9573 67.0796 31.8612 66.9622 31.509 66.8768C31.3595 66.8342 31.1567 66.7808 31.082 66.7488C30.9966 66.7168 30.8152 66.7701 30.6764 66.8875Z" fill="black"/>
<path d="M79.7651 20.4142C79.4343 20.6596 79.0607 20.937 78.9219 21.0224C78.7938 21.1078 78.4843 21.3319 78.2388 21.5133C78.004 21.684 77.577 21.9828 77.3102 22.1642C77.0327 22.3457 76.499 22.7938 76.1147 23.1567C74.9619 24.2345 74.8339 24.9281 75.5063 26.294C75.9333 27.1584 76.5203 27.8414 77.1501 28.2148C77.8012 28.599 78.7191 28.599 79.4343 28.2362C80.523 27.6706 83.7465 25.3763 83.9386 25.0348C84.0667 24.7787 84.056 24.7253 83.7571 24.2985C83.2982 23.6689 82.9993 23.6689 82.1774 24.2771C81.8252 24.5439 81.3128 24.9068 81.0353 25.0882C80.7471 25.2696 80.523 25.4617 80.523 25.5043C80.523 25.5577 80.3202 25.6964 80.0747 25.8245C79.8185 25.9419 79.3916 26.1873 79.114 26.3687C78.2601 26.9343 77.5023 26.7529 77.0754 25.8992C76.7551 25.2589 76.8939 24.7574 77.5663 24.1918C77.8759 23.9357 78.3242 23.5835 78.5697 23.4128C78.8258 23.242 79.509 22.7725 80.1067 22.3563C80.7044 21.9508 81.2595 21.5026 81.3449 21.3746C81.4943 21.1505 81.4836 21.0971 81.3235 20.8303C81.0567 20.4142 80.6084 19.9553 80.4803 19.966C80.4162 19.966 80.096 20.1687 79.7651 20.4142Z" fill="black"/>
<path d="M13.972 21.097C13.7692 21.3104 13.5984 21.5559 13.5984 21.6626C13.5984 21.8973 14.1001 22.3455 15.413 23.2953C17.0994 24.5118 17.1635 24.5652 16.9927 24.6612C16.9073 24.7039 16.6405 24.7039 16.395 24.6399C15.8186 24.5118 12.1468 24.3411 11.8266 24.4264C11.5704 24.4905 10.93 25.3335 10.93 25.6216C10.93 25.771 11.6772 26.3259 14.922 28.5776C16.7259 29.8261 16.982 29.9862 17.1421 29.9862C17.3449 29.9862 17.868 29.2178 17.868 28.919C17.868 28.6202 17.6011 28.3855 16.1175 27.3824C15.4343 26.9235 14.8793 26.4647 14.8793 26.3793C14.8793 26.2406 15.1888 26.2299 17.3236 26.2832L19.7679 26.3366L20.0347 26.0591C20.4617 25.6003 20.6645 25.2054 20.5898 25.0027C20.5577 24.896 20.2589 24.6399 19.928 24.4371C19.5971 24.2344 18.8713 23.7221 18.3056 23.3166C17.3663 22.6337 16.1068 21.7586 14.954 20.9903C14.7192 20.8302 14.4844 20.7022 14.431 20.7022C14.3883 20.7022 14.1855 20.8729 13.972 21.097Z" fill="black"/>
<path d="M84.3655 27.8413C83.8638 28.0654 82.9992 28.4603 82.4442 28.7271C81.2274 29.314 80.2668 29.7515 79.3808 30.1463C79.0179 30.3064 78.6977 30.4878 78.6764 30.5625C78.6016 30.7546 79.1353 31.7897 79.3488 31.8537C79.4449 31.8857 79.8185 31.7684 80.1814 31.587C80.5336 31.4162 80.8538 31.2668 80.8965 31.2668C80.9285 31.2668 81.3982 31.0534 81.9319 30.7866C83.3408 30.093 83.4475 30.1997 82.583 31.4589C82.3268 31.8324 82.124 32.1632 82.124 32.1952C82.124 32.2272 81.9852 32.43 81.8038 32.6541C81.633 32.8782 81.4836 33.0916 81.4836 33.1236C81.4836 33.1556 81.2701 33.4971 81.0032 33.8919C80.5229 34.5856 80.4375 34.831 80.619 34.9377C80.6724 34.9697 80.7471 35.1298 80.7898 35.2899C80.8965 35.7274 81.2594 36.0796 81.5263 36.0049C81.7611 35.9408 82.1987 35.7487 83.6717 35.0551C84.1413 34.831 84.8138 34.5216 85.166 34.3615C87.2261 33.4224 87.7491 33.145 87.9519 32.8995C88.1653 32.6434 88.176 32.6327 87.9839 32.2699C87.7277 31.747 87.5676 31.587 87.3541 31.587C87.2474 31.587 86.4575 31.9178 85.593 32.3339C84.0986 33.0489 83.6183 33.1983 83.6183 32.9742C83.6183 32.9209 84.1947 32.0138 84.8992 30.9467C85.6143 29.8902 86.212 28.9511 86.2441 28.8658C86.3935 28.4923 85.7958 27.4252 85.4542 27.4252C85.3581 27.4252 84.8672 27.6172 84.3655 27.8413Z" fill="black"/>
<path d="M10.343 28.8124C9.44639 29.0152 8.57114 29.8155 8.03745 30.9253C7.71724 31.5763 7.68522 31.7257 7.68522 32.6007C7.68522 33.4011 7.72792 33.6465 7.94139 34.0947C8.5498 35.3326 10.1509 36.325 11.912 36.5704C12.2856 36.6238 13.1929 36.3997 13.5985 36.1649C13.6839 36.1116 13.8547 36.0262 13.9721 35.9728C14.6125 35.6847 15.3917 34.4255 15.6372 33.2623C15.7973 32.5367 15.6372 31.4482 15.2849 30.872C14.9541 30.3277 13.9721 29.4954 13.2463 29.1432C12.6912 28.8871 12.3817 28.8231 11.6132 28.7804C11.0902 28.7591 10.5244 28.7697 10.343 28.8124ZM11.6772 30.4771C12.6379 30.8293 13.0221 31.0427 13.4597 31.4696C14.3243 32.3339 14.3136 33.4224 13.4384 34.2228C12.9474 34.671 12.9154 34.6816 12.2002 34.6816C11.7946 34.6816 11.3783 34.6389 11.2716 34.5856C11.1755 34.5322 10.8767 34.3828 10.6098 34.2548C9.39302 33.6679 8.93405 32.6007 9.42505 31.5336C9.64919 31.0321 9.92671 30.7653 10.4817 30.5092C10.9834 30.2744 11.0902 30.2744 11.6772 30.4771Z" fill="black"/>
<path d="M88.208 35.2151C88.1226 35.2684 87.9518 35.3218 87.8344 35.3218C87.717 35.3218 87.4822 35.3965 87.3114 35.4819C87.1513 35.5672 86.9058 35.6419 86.7777 35.6419C86.6603 35.6526 86.4361 35.7166 86.2867 35.802C86.1373 35.8874 85.9131 35.9514 85.785 35.9621C85.6569 35.9621 85.3901 36.0261 85.198 36.1115C85.0058 36.1862 84.5575 36.3356 84.2053 36.4423C83.8531 36.5383 83.4048 36.6877 83.2127 36.7731C83.0205 36.8585 82.775 36.9225 82.6683 36.9225C82.5616 36.9225 82.252 37.0185 81.9745 37.1359C81.6009 37.3067 81.4835 37.4134 81.4835 37.6055C81.4835 37.7335 81.5155 37.8829 81.5689 37.9256C81.6116 37.9683 81.697 38.1817 81.7503 38.3951C81.8357 38.6939 81.9318 38.8006 82.1239 38.822C82.3587 38.8647 83.1913 38.6512 83.8317 38.3845C83.9812 38.3311 84.2694 38.2457 84.4722 38.203C84.675 38.1497 85.0165 38.0643 85.2193 37.9896C86.0946 37.6908 86.244 37.6481 86.5002 37.5948C86.6496 37.5628 86.9165 37.4774 87.1086 37.392C87.29 37.3067 87.5249 37.2426 87.6423 37.2426C87.749 37.232 87.9518 37.1679 88.1012 37.0826C88.2507 36.9972 88.4962 36.9332 88.6563 36.9225C88.9872 36.9225 89.2754 36.6771 89.2754 36.3783C89.2754 36.2715 89.1686 35.9407 89.0405 35.6419C88.8057 35.0977 88.5709 34.9803 88.208 35.2151Z" fill="black"/>
<path d="M6.05209 37.0079C5.924 37.0826 5.67851 38.3205 5.7639 38.4059C5.87063 38.5232 6.64982 38.758 7.15149 38.8434C7.45035 38.8861 7.80259 38.9821 7.92 39.0461C8.03741 39.1102 8.29358 39.1635 8.47504 39.1635C8.65649 39.1635 8.9767 39.2382 9.19018 39.3236C9.39298 39.4089 9.70252 39.4836 9.86263 39.4836C10.0227 39.4836 10.3323 39.5583 10.5351 39.6437C10.7485 39.7291 11.0581 39.8038 11.2289 39.8038C11.3996 39.8038 11.7199 39.8785 11.9227 39.9639C12.1361 40.0492 12.5097 40.1239 12.7445 40.1239C13.2142 40.1239 13.2249 40.1133 13.5024 39.1849C13.5771 38.9394 13.5984 38.7046 13.5558 38.662C13.417 38.5232 12.6805 38.2885 12.1575 38.2138C11.8693 38.1711 11.5171 38.0857 11.389 38.011C11.2609 37.9363 11.0154 37.883 10.8446 37.883C10.6738 37.883 10.3216 37.8083 10.0761 37.7229C9.8306 37.6375 9.4677 37.5628 9.28624 37.5628C9.10479 37.5521 8.83794 37.4881 8.68851 37.4028C8.53908 37.3174 8.27223 37.2534 8.09078 37.2427C7.90933 37.2427 7.57844 37.168 7.37564 37.0826C6.95936 36.9119 6.26556 36.8692 6.05209 37.0079Z" fill="black"/>
<path d="M89.0086 38.3952C87.4716 39.2809 87.0126 39.537 85.689 40.2413C85.102 40.5508 84.5896 40.8282 84.5256 40.8709C84.4722 40.9243 84.088 41.1377 83.6717 41.3511C82.583 41.9381 82.551 41.9701 82.6257 42.621C82.6577 42.9198 82.7858 43.3146 82.9032 43.4961C83.138 43.8482 83.4262 43.9336 85.1874 44.1897C85.561 44.2324 85.9559 44.3284 86.0626 44.3924C86.18 44.4458 86.4255 44.4992 86.607 44.4992C86.7991 44.4992 87.2367 44.5632 87.5996 44.6486C89.3715 45.0647 90.5776 45.2461 90.7164 45.1181C90.7804 45.0647 90.8125 44.7553 90.8018 44.4245C90.7591 43.6668 90.4816 43.336 89.8625 43.3253C89.6277 43.3146 89.2221 43.272 88.9552 43.2079C88.6884 43.1439 88.1013 43.0585 87.6423 43.0052C87.194 42.9518 86.7244 42.8558 86.607 42.7918C86.5002 42.7384 86.2014 42.685 85.9452 42.685C85.2407 42.685 85.1233 42.5463 85.6143 42.2689C85.8385 42.1301 86.0946 41.9914 86.18 41.9487C88.6457 40.6788 89.7344 40.0599 89.8732 39.8358C89.9479 39.7078 89.9692 39.3876 89.9265 38.9501C89.8625 38.3098 89.8411 38.2565 89.5956 38.2351C89.4462 38.2245 89.19 38.2885 89.0086 38.3952Z" fill="black"/>
<path d="M5.45441 40.0919C5.35835 40.316 5.23026 40.9029 5.17689 41.4044C5.11285 41.906 4.98476 42.7917 4.8887 43.3786C4.79264 43.9655 4.69657 44.7339 4.66455 45.0967L4.61118 45.7476L5.08083 45.865C5.47576 45.9717 5.57182 45.9611 5.80664 45.7903C6.03079 45.6303 6.08416 45.4809 6.1482 44.8619C6.24427 43.9442 6.37235 43.8161 7.19423 43.9122C7.51445 43.9549 7.86668 44.0296 7.96275 44.0829C8.05881 44.1363 8.347 44.179 8.60317 44.179C8.85934 44.179 9.40371 44.243 9.80931 44.3284C10.2256 44.4137 10.9407 44.5418 11.4104 44.6058L12.2536 44.7339L12.5098 44.4457C12.7126 44.211 12.7446 44.0509 12.7232 43.6027L12.6912 43.0585L12.0828 42.9838C11.7413 42.9411 11.3677 42.8557 11.2609 42.7917C11.1435 42.7383 10.8126 42.685 10.5351 42.685C10.2469 42.685 9.75594 42.621 9.43573 42.5356C9.11551 42.4609 8.52846 42.3649 8.13353 42.3328C7.7386 42.2902 7.25828 42.1834 7.07682 42.0874L6.73526 41.9167L6.7993 41.0309C6.86335 39.9958 6.78863 39.8784 6.06281 39.7611C5.63586 39.6864 5.62519 39.697 5.45441 40.0919Z" fill="black"/>
<path d="M11.357 46.5266C10.7699 46.8681 5.27292 49.5146 5.17686 49.5146C4.99541 49.5146 4.73924 50.0482 4.73924 50.443C4.73924 50.9552 4.91002 51.5528 5.0808 51.6702C5.15551 51.7129 5.34764 51.7556 5.50775 51.7556C5.66785 51.7556 5.81729 51.7982 5.85998 51.8516C5.892 51.905 6.07346 51.9796 6.26559 52.0223C6.44704 52.065 6.94871 52.2037 7.35431 52.3318C7.77059 52.4705 8.60314 52.7373 9.22222 52.9294C9.8413 53.1108 10.5351 53.3349 10.7699 53.4096C11.0047 53.4843 11.357 53.5803 11.5384 53.623C11.7306 53.6657 11.912 53.7404 11.944 53.7938C12.1682 54.1459 12.7446 53.6017 12.7446 53.0468C12.7446 52.4812 12.435 52.129 11.7306 51.9156C10.8126 51.6275 10.834 51.6488 10.8233 50.2616C10.8126 49.5893 10.8126 48.9704 10.8126 48.8957C10.8233 48.821 11.0795 48.6395 11.3997 48.4901C11.7199 48.3514 12.0614 48.0953 12.1682 47.9352C12.4991 47.423 12.2856 46.3025 11.848 46.3132C11.7839 46.3132 11.5598 46.4092 11.357 46.5266ZM9.20087 49.7494C9.393 49.9414 9.36098 50.8485 9.15818 51.0192C9.01942 51.1259 8.89133 51.1259 8.38967 50.9659C7.30094 50.6244 7.25825 50.6031 7.41835 50.411C7.55711 50.2402 8.7419 49.6426 8.96605 49.632C9.01942 49.6213 9.12616 49.6747 9.20087 49.7494Z" fill="black"/>
<path d="M83.1594 47.1349C83.1167 47.1669 83.0847 48.3941 83.0847 49.8561C83.0847 52.3638 83.0953 52.5132 83.2981 52.716C83.5757 52.9934 83.9386 52.9828 84.3015 52.7053L84.579 52.4919V50.6457C84.579 49.3652 84.6217 48.7676 84.7071 48.6822C84.8992 48.4902 86.1267 48.5115 86.2868 48.7142C86.3829 48.8316 86.4149 49.3332 86.4042 50.5284L86.3829 52.1717L86.7031 52.3318C87.1087 52.5452 87.2795 52.5452 87.6744 52.3425L87.9946 52.1717V50.475C87.9946 48.9063 88.0053 48.7676 88.1974 48.6609C88.4749 48.5115 88.9873 48.5222 89.1474 48.6822C89.2328 48.7676 89.2755 49.3652 89.2755 50.6564V52.5025L89.553 52.6093C89.9266 52.7587 90.599 52.7373 90.7484 52.5879C90.8445 52.4919 90.8765 51.7556 90.8765 49.9308C90.8765 48.5328 90.8445 47.327 90.8125 47.2309C90.7591 47.0815 90.3215 47.0602 86.9913 47.0602C84.9206 47.0602 83.1914 47.0922 83.1594 47.1349Z" fill="black"/>
<path d="M82.8391 53.9645C82.807 54.0179 82.6896 54.3273 82.5722 54.6688L82.3481 55.2771L82.6363 55.5439C82.807 55.7039 83.0525 55.8106 83.2447 55.8106C83.4154 55.8213 83.6823 55.8853 83.8317 55.9707C83.9811 56.0561 84.2693 56.1201 84.4828 56.1308C84.6963 56.1308 84.9845 56.2161 85.1126 56.3229C85.3367 56.5043 85.3474 56.547 85.23 56.9098C85.1019 57.2939 84.6322 57.7315 84.3441 57.7315C84.2693 57.7315 84.1092 57.8062 84.0025 57.8915C83.8851 57.9769 83.693 58.0516 83.5649 58.0516C83.4368 58.0516 83.2447 58.1263 83.1272 58.2117C83.0205 58.297 82.8391 58.3717 82.7323 58.3717C82.4761 58.3717 81.9531 58.6492 81.6756 58.9266C81.4728 59.1294 81.3341 59.4922 81.1953 60.2072C81.1206 60.5914 81.3661 60.6874 81.9531 60.5167C82.1986 60.4526 82.5402 60.3459 82.711 60.2926C83.4581 60.0685 84.0132 59.8337 84.3441 59.5776C84.739 59.2788 85.0592 59.3215 84.9738 59.6523C84.9204 59.8764 85.2193 60.5273 85.5822 60.9115C86.2653 61.6692 87.5569 61.7972 88.3894 61.1996C88.8484 60.8688 89.1259 60.3673 89.4354 59.2788C89.5315 58.9266 89.6596 58.4891 89.713 58.3077C89.7663 58.137 89.8517 57.7741 89.9051 57.5074C89.9691 57.2513 90.0759 56.8031 90.1399 56.5256C90.268 56.0561 90.2573 55.992 90.0652 55.8C89.9478 55.6826 89.6169 55.5439 89.318 55.4905C88.731 55.3838 88.0265 55.213 87.4608 55.0316C87.258 54.9676 86.8951 54.8822 86.6603 54.8395C86.1159 54.7328 85.4114 54.5514 84.7924 54.3593C84.5255 54.274 84.2053 54.2099 84.0879 54.2099C83.9598 54.2099 83.6823 54.1352 83.4795 54.0499C83.0419 53.8685 82.9031 53.8578 82.8391 53.9645ZM87.9198 57.0272C88.272 57.1872 88.3147 57.2406 88.3147 57.6034C88.304 57.8168 88.24 58.1156 88.1546 58.265C88.0692 58.4144 88.0052 58.6705 87.9945 58.8413C87.9945 59.3001 87.6209 59.6523 87.1299 59.6523C86.5322 59.6523 86.3934 59.4495 86.3934 58.6065C86.4041 58.1903 86.4681 57.7848 86.5535 57.6247C86.6389 57.4754 86.703 57.2513 86.7136 57.1232C86.7136 56.7284 87.1299 56.6963 87.9198 57.0272Z" fill="black"/>
<path d="M12.2642 54.4234C12.1468 54.4768 11.8373 54.5195 11.5704 54.5195C11.3036 54.5302 10.8233 54.5942 10.5031 54.6796C10.1829 54.7543 9.5958 54.8503 9.20087 54.8823C8.79526 54.925 8.37899 54.9997 8.27225 55.0637C8.15484 55.1171 7.83462 55.1704 7.54643 55.1704C7.10881 55.1704 5.52909 55.5119 5.41168 55.64C5.39033 55.6613 5.41168 55.9815 5.45437 56.3549L5.53976 57.0379L6.30827 57.0699C6.78859 57.0913 7.30093 57.0379 7.6425 56.9312C7.94136 56.8458 8.42168 56.7711 8.6992 56.7711C8.96604 56.7711 9.40367 56.6964 9.64917 56.6111C9.89466 56.5257 10.3536 56.451 10.6632 56.451C10.9727 56.451 11.4317 56.3763 11.6772 56.2909C11.9227 56.2056 12.3069 56.1309 12.5204 56.1309C13.0114 56.1202 13.385 55.6933 13.1929 55.3732C13.1181 55.2665 13.0648 55.0744 13.0648 54.9463C13.0648 54.4128 12.7552 54.21 12.2642 54.4234Z" fill="black"/>
<path d="M11.2181 57.7955C11.1754 57.8382 11.1434 58.1797 11.1434 58.5425V59.2254L11.5703 59.4389C11.7945 59.5562 12.1147 59.6523 12.2748 59.6523C12.8939 59.6523 13.5023 60.6874 13.3422 61.4664C13.182 62.2988 11.8798 63.1098 10.3108 63.3552C9.55296 63.4726 8.67771 62.779 8.51761 61.9146C8.43222 61.4664 8.65636 60.7408 8.92321 60.602C9.2114 60.442 9.15803 60.1112 8.73108 59.5349C8.42154 59.1081 8.30413 59.0227 8.112 59.0654C7.43955 59.2681 6.71374 60.7728 6.87384 61.6798C7.15136 63.2272 7.7064 64.0915 8.83782 64.6998C9.29679 64.9559 9.46757 64.9879 10.3962 64.9879C11.9546 64.9879 12.9579 64.5931 13.8865 63.6007C14.687 62.747 14.8792 62.2881 14.8792 61.2743C14.8792 59.7163 14.1213 58.4678 12.8512 57.9556C12.4242 57.7848 11.3355 57.6781 11.2181 57.7955Z" fill="black"/>
<path d="M80.7365 62.0748C80.2988 62.3629 79.8826 62.7791 79.8826 62.9178C79.8826 62.9925 79.8185 63.0992 79.7331 63.1419C79.6584 63.1846 79.4449 63.5581 79.2528 63.9529C78.9753 64.5612 78.9219 64.8066 78.9219 65.4896C78.9219 66.482 79.1461 66.8768 80.0427 67.4851C80.3842 67.7199 80.5657 67.7625 81.2061 67.7625C81.6224 67.7519 82.0707 67.6985 82.1988 67.6238C82.3269 67.5491 82.9459 67.0049 83.565 66.3966C84.5683 65.4255 84.7391 65.2975 85.0273 65.3295C85.4863 65.3722 85.6144 65.607 85.4543 66.1405C85.2515 66.8128 84.7925 67.229 84.2802 67.229C83.8105 67.229 83.597 67.4424 83.3088 68.1574C83.1808 68.4562 83.1914 68.5415 83.3409 68.7763C83.501 69.0111 83.5864 69.0431 84.1734 69.0431C85.2942 69.0431 85.9666 68.4775 86.7138 66.9409C87.2368 65.8631 87.1194 64.6252 86.4256 64.0063C86.1374 63.7395 85.3155 63.3873 84.974 63.3873C84.4189 63.3873 83.9279 63.6968 82.7325 64.8279C81.7505 65.7457 81.4836 65.9484 81.2061 65.9484C80.2668 65.9484 80.3095 64.4224 81.2808 63.7181C81.537 63.5261 81.7611 63.462 82.1347 63.4727C82.6898 63.4834 82.8179 63.3873 83.106 62.7364C83.2768 62.3522 83.2768 62.3415 83.042 62.1174C82.8392 61.9254 82.6791 61.8933 81.8999 61.904C81.2595 61.904 80.9286 61.9574 80.7365 62.0748Z" fill="black"/>
<path d="M13.2567 65.6709C12.5416 66.0338 11.3034 67.1329 11.0472 67.6345C10.8444 68.008 10.6096 68.851 10.6096 69.1711C10.6096 70.0995 11.2607 71.5081 12.0399 72.2231C12.7444 72.8741 13.3528 73.0982 14.4095 73.0982C14.9111 73.0982 15.3915 73.0555 15.4982 72.9914C15.5943 72.9381 15.9145 72.7887 16.2027 72.6606C16.8324 72.3938 16.8965 72.3512 17.6543 71.6042C18.5082 70.7718 18.7217 70.2703 18.7217 69.1178C18.7217 68.1147 18.6256 67.8052 17.9959 66.8234C17.761 66.4606 17.3875 66.0978 16.9712 65.8097L16.3201 65.3615L15.146 65.3295C13.9932 65.3081 13.9612 65.3081 13.2567 65.6709ZM15.9679 67.1222C17.0246 67.5918 17.4515 68.8403 16.8644 69.7794C16.2774 70.7078 15.242 71.316 14.228 71.3267C13.6196 71.3374 13.4702 71.2947 13.0859 71.0279C12.2641 70.4623 12.0613 69.1605 12.6697 68.3601C13.15 67.7305 14.5376 66.9515 15.21 66.9195C15.3701 66.9088 15.701 67.0049 15.9679 67.1222Z" fill="black"/>
<path d="M77.0113 67.8692C76.595 68.4775 76.6164 68.7762 77.0754 69.0644C77.2355 69.1711 77.6624 69.4699 78.0146 69.7367C78.3669 70.0034 78.8579 70.3129 79.114 70.4303C79.3595 70.5584 79.5623 70.6971 79.5623 70.7504C79.5623 70.7931 79.7865 70.9852 80.0747 71.1666C80.3522 71.348 80.9499 71.7535 81.3982 72.0843C81.8465 72.4045 82.3802 72.7353 82.583 72.8207C82.9353 72.9594 82.9673 72.9594 83.1594 72.746C83.3622 72.5112 83.7251 71.7855 83.7251 71.6148C83.7251 71.5614 83.565 71.4227 83.3836 71.3053C83.1914 71.1773 82.7218 70.8678 82.3375 70.601C81.9533 70.3343 81.4089 69.9394 81.11 69.7473C80.8219 69.5446 80.3095 69.1924 79.9893 68.9683C78.2601 67.7518 77.6197 67.3356 77.5023 67.3356C77.4276 67.3356 77.2141 67.5704 77.0113 67.8692Z" fill="black"/>
<path d="M74.2041 71.4441C73.98 71.6362 73.7985 71.9029 73.7985 72.0203C73.7985 72.1484 74.0013 72.4045 74.2895 72.6393C74.7271 73.0021 75.9013 73.9838 76.8406 74.7735C78.6124 76.2782 78.559 76.1288 77.6731 77.0999C77.3636 77.4413 77.1074 77.7615 77.1074 77.8148C77.1074 77.9429 77.9933 78.7539 78.1214 78.7432C78.2388 78.7326 79.3596 77.516 79.7758 76.9398C79.9253 76.737 80.1387 76.4809 80.2562 76.3635C80.555 76.0647 81.0674 75.4351 81.3235 75.0723C81.4409 74.9016 81.6437 74.6561 81.7825 74.5174C82.092 74.1759 82.0814 74.0799 81.6437 73.5997C81.2915 73.2262 80.9073 73.0875 80.8219 73.3009C80.7258 73.5677 79.7011 74.6988 79.5517 74.6988C79.4556 74.6988 79.018 74.3787 78.5804 73.9732C78.1321 73.5783 77.4917 73.0341 77.1501 72.746C76.7979 72.4685 76.2215 71.9776 75.8479 71.6575C75.0474 70.9425 74.7698 70.9105 74.2041 71.4441Z" fill="black"/>
<path d="M19.4691 71.7643C18.9887 72.0311 18.5938 72.3832 18.3376 72.7994C18.1242 73.1302 18.0815 73.3436 18.0815 73.9732C18.0815 74.6348 18.1348 74.8376 18.4657 75.5206C18.6792 75.9474 18.9033 76.3316 18.946 76.3636C18.9994 76.3956 19.0421 76.5023 19.0421 76.609C19.0421 76.7157 19.1168 76.8651 19.2022 76.9398C19.5758 77.2493 19.2769 77.9003 18.7646 77.9003C18.455 77.9003 17.8893 77.5161 17.7506 77.2066C17.6972 77.0892 17.6011 76.9078 17.5264 76.8118C17.4197 76.6624 17.4304 76.5663 17.5798 76.3102C17.6759 76.1395 17.7613 75.9154 17.7613 75.798C17.7613 75.5632 16.8647 74.5922 16.6405 74.5922C16.5551 74.5922 16.3416 74.7949 16.1602 75.0404C15.872 75.4352 15.84 75.5526 15.84 76.2996C15.84 76.9078 15.8827 77.1639 16.0001 77.26C16.0855 77.3347 16.1602 77.4521 16.1602 77.5268C16.1602 77.7509 17.441 79.0741 17.868 79.2875C18.2736 79.4903 18.7539 79.565 19.4797 79.5223C19.7893 79.5009 19.9814 79.3942 20.4083 78.9567C20.8566 78.5085 20.9527 78.3378 21.0168 77.9003C21.1235 77.1319 20.9954 76.577 20.4617 75.5632C19.8747 74.4107 19.7786 73.8558 20.1095 73.525C20.4404 73.1942 20.9954 73.3116 21.5184 73.8238C22.0308 74.3254 22.1588 74.987 21.8707 75.5953C21.7105 75.9154 21.6999 76.0328 21.8066 76.2249C21.9347 76.4596 22.6925 77.0465 22.8633 77.0465C23.0341 77.0465 23.429 76.4916 23.6425 75.9474C23.8987 75.3071 23.856 74.7842 23.5037 73.9732C23.2476 73.3756 21.9881 72.1164 21.3476 71.807C20.8566 71.5722 19.8747 71.5508 19.4691 71.7643Z" fill="black"/>
<path d="M70.8738 74.7628L70.3614 75.2323L70.6496 75.6165C70.8097 75.8193 71.3541 76.4382 71.8664 76.9718C72.3788 77.516 73.2327 78.4551 73.7664 79.074C75.0792 80.5893 75.5595 81.0375 75.741 80.9308C75.8157 80.8881 76.0612 80.696 76.2747 80.5253C76.7657 80.1198 76.8084 79.757 76.4028 79.3835C76.2427 79.2447 75.7837 78.7432 75.3674 78.2737C73.4675 76.1074 71.7277 74.2719 71.5676 74.2719C71.4715 74.2826 71.162 74.496 70.8738 74.7628Z" fill="black"/>
<path d="M68.515 76.6197C68.1094 76.8972 67.0847 77.6015 66.2522 78.167C65.0674 78.9674 64.7258 79.2555 64.7258 79.4369C64.7258 79.7144 65.2168 80.4614 65.3983 80.4614C65.473 80.4614 66.2415 79.9812 67.1167 79.3942C67.992 78.8073 68.7605 78.3271 68.8245 78.3271C68.9953 78.3271 69.7532 79.5116 69.7211 79.7144C69.6891 79.8638 69.4863 80.0238 67.7892 81.1657C67.3729 81.4538 67.0527 81.7526 67.01 81.8913C66.9246 82.2541 67.3516 82.9158 67.6718 82.9158C67.8212 82.9158 68.5043 82.5316 69.2728 81.998C70.0093 81.4965 70.6818 81.1123 70.7565 81.1443C70.9486 81.2083 71.4823 82.1367 71.4076 82.2541C71.3756 82.3075 71.0127 82.5743 70.6071 82.8517C70.1908 83.1292 69.8279 83.396 69.7958 83.4386C69.7638 83.492 69.5397 83.6414 69.2942 83.7695C68.8139 84.0149 68.3656 84.4738 68.3549 84.7085C68.3549 84.9326 68.8992 85.5836 69.0914 85.5836C69.1874 85.5836 70.2441 84.9219 71.4503 84.1109C72.9553 83.1078 73.6491 82.5849 73.6704 82.4355C73.6918 82.3075 73.585 82.0514 73.4356 81.8486C72.966 81.1977 71.7171 79.3515 71.6317 79.1808C71.3756 78.6686 69.5504 76.1395 69.4223 76.1182C69.3369 76.1075 68.9313 76.3316 68.515 76.6197Z" fill="black"/>
<path d="M25.4142 76.5022C25.1366 76.6089 24.6777 76.9077 24.3895 77.1745C23.9732 77.5587 23.8665 77.7508 23.7597 78.231C23.5569 79.1807 23.8131 79.853 24.7524 80.9415C25.4995 81.7952 25.8198 82.4034 25.6703 82.6916C25.4889 83.0224 25.1687 83.0651 24.6777 82.809C24.0693 82.4888 23.8558 82.2007 23.8451 81.6671C23.8451 81.0482 23.7811 80.9415 23.2154 80.536C22.7457 80.1945 22.703 80.1838 22.5002 80.3439C22.148 80.632 21.9986 81.3363 22.148 82.0193C22.2227 82.3394 22.3401 82.6489 22.4255 82.7129C22.5002 82.7769 22.5643 82.8943 22.5643 82.9797C22.5643 83.1611 23.3221 83.7694 24.0693 84.1855C24.8378 84.6124 25.8625 84.6551 26.5242 84.2816C27.4635 83.7587 27.8371 82.5635 27.3781 81.6031C27.25 81.3363 27.0793 81.0909 26.9939 81.0589C26.9085 81.0269 26.8338 80.9308 26.8338 80.8454C26.8338 80.7601 26.6096 80.4399 26.3428 80.1198C25.4248 79.0527 25.2967 78.5298 25.8731 78.2203C26.1827 78.0496 26.5029 78.0923 27.1006 78.3697C27.7624 78.6898 27.9011 78.946 27.9011 79.8744C27.9011 80.6 27.9865 80.7601 28.5309 81.0482C29.0005 81.283 29.2354 81.1549 29.4915 80.4933C29.7691 79.7783 29.7691 79.6289 29.5342 78.946C29.182 77.9429 28.0933 76.9824 26.7697 76.5236C26.0439 76.2675 26.0759 76.2675 25.4142 76.5022Z" fill="black"/>
<path d="M30.751 79.5649C30.6336 79.6823 30.655 87.2376 30.7724 87.547C30.8791 87.8031 31.4448 88.1233 32.0959 88.294C32.3414 88.3474 32.4695 88.294 32.9178 87.8672C33.2167 87.5897 33.4515 87.3123 33.4515 87.2589C33.4515 87.1949 33.8251 86.7787 34.2841 86.3305C34.743 85.893 35.4795 85.0926 35.9385 84.5698C36.9738 83.3532 37.1873 83.1185 37.5609 82.8303C37.8277 82.6169 37.8491 82.5636 37.7317 82.3395C37.5716 82.0513 36.9312 81.7419 36.4829 81.7419C36.2267 81.7419 36.0559 81.8593 35.6503 82.3288C35.1059 82.9691 35.0205 83.0011 34.5616 82.7556C34.3908 82.6703 34.1773 82.5956 34.0919 82.5956C33.9959 82.5956 33.8785 82.5529 33.8251 82.5102C33.761 82.4568 33.4942 82.3288 33.206 82.2327C32.4482 81.9553 32.3841 81.8486 32.3841 80.9522C32.3841 80.0772 32.3521 80.0345 31.637 79.7677C30.8898 79.5009 30.8364 79.4796 30.751 79.5649ZM33.4195 83.9295C33.8571 84.1109 33.8785 84.3777 33.4835 84.8365C32.715 85.7436 32.6296 85.829 32.5122 85.7543C32.3735 85.6689 32.3308 83.8548 32.4588 83.7267C32.5442 83.6414 32.9071 83.7161 33.4195 83.9295Z" fill="black"/>
<path d="M61.417 80.5894C60.2535 81.1123 59.9333 81.3044 59.5491 81.6992C58.9407 82.3181 58.7485 83.0758 58.994 83.9402C59.2075 84.6765 59.5704 85.1674 60.1041 85.4341C60.5417 85.6582 61.5451 85.6903 63.1888 85.5302C63.9253 85.4662 64.0747 85.4768 64.2242 85.6369C64.5978 85.9997 64.3843 86.4266 63.6478 86.7574C63.0287 87.0348 62.7832 87.0242 62.399 86.704C62.0147 86.3839 61.7052 86.3732 61.1288 86.6507C60.4883 86.9601 60.4457 87.2163 60.9473 87.7391C61.417 88.23 62.0681 88.5608 62.5484 88.5715C63.413 88.5715 65.1635 87.7712 65.6651 87.1416C66.3803 86.2238 66.1775 84.7725 65.2382 84.1216L64.8006 83.8228L62.922 83.8441C60.8406 83.8761 60.6698 83.8335 60.6698 83.1825C60.6698 82.6276 61.449 82.0514 62.2068 82.0407C62.6124 82.03 62.7725 82.094 63.1781 82.4355L63.6798 82.841L64.2989 82.5422C64.982 82.2114 65.1208 82.0407 64.9073 81.7526C64.7152 81.4858 63.8506 80.7281 63.5837 80.5787C63.2956 80.4293 61.7692 80.44 61.417 80.5894Z" fill="black"/>
</svg>
