<svg width="79" height="79" viewBox="0 0 79 79" fill="none" xmlns="http://www.w3.org/2000/svg">
<path d="M35.5649 0.140453C35.4946 0.245835 35.2399 0.298522 34.5108 0.351209C33.975 0.386341 33.4041 0.465372 33.2372 0.518059C33.0703 0.570754 32.7717 0.614659 32.5784 0.614659C32.3852 0.614659 32.069 0.676128 31.8758 0.746385C31.6825 0.816634 31.3663 0.869321 31.1731 0.878102C30.9798 0.878102 30.7251 0.939578 30.6021 1.00983C30.4792 1.08008 30.2244 1.14155 30.0312 1.14155C29.838 1.14155 29.5832 1.20302 29.4603 1.27328C29.3373 1.34353 29.1265 1.405 28.9772 1.405C28.8366 1.405 28.6346 1.46647 28.5468 1.53672C28.4501 1.60698 28.2481 1.66845 28.0988 1.66845C27.9495 1.66845 27.7914 1.70357 27.7475 1.74748C27.6948 1.80017 27.5015 1.87042 27.3083 1.92311C26.9833 2.00215 26.8252 2.04605 26.0346 2.32707C25.3056 2.59051 24.3306 2.9769 23.6631 3.26669C23.2151 3.46866 20.5185 4.80346 20.1672 5.00544C20.0354 5.07569 19.7368 5.25132 19.4909 5.38305C19.2537 5.51476 18.9375 5.69918 18.7882 5.79578C18.6476 5.89238 18.4105 6.03288 18.2611 6.11191C18.1206 6.19094 17.901 6.33145 17.778 6.42805C17.4443 6.68271 16.97 6.99885 16.6889 7.1657C16.5483 7.24473 16.2321 7.46427 15.9862 7.64868C15.7402 7.83309 15.2659 8.19314 14.9322 8.44781C14.5984 8.70247 14.0362 9.17667 13.6937 9.50159C13.3511 9.83529 13.0349 10.0987 12.9998 10.0987C12.8241 10.0987 9.87279 13.0493 9.87279 13.225C9.87279 13.2601 9.60928 13.5762 9.2755 13.9187C8.95051 14.2612 8.47619 14.8232 8.22147 15.1569C7.96674 15.4906 7.60661 15.9648 7.42216 16.2107C7.2377 16.4566 7.01811 16.7727 6.93906 16.9132C6.77217 17.1942 6.45596 17.6684 6.20124 18.0021C6.10462 18.1251 5.96408 18.3358 5.88502 18.4851C5.80597 18.6256 5.66543 18.8627 5.56881 19.012C5.47219 19.1525 5.28774 19.4687 5.15598 19.7145C5.02423 19.9516 4.84856 20.259 4.77829 20.3907C4.57627 20.742 3.24116 23.4379 3.03913 23.8858C2.74927 24.5532 2.36279 25.5279 2.09928 26.2568C1.81821 27.0471 1.77429 27.2052 1.69524 27.5301C1.64254 27.7233 1.57227 27.9165 1.51957 27.9604C1.47565 28.0131 1.44051 28.1712 1.44051 28.3205C1.44051 28.4698 1.37903 28.6717 1.30876 28.7683C1.23849 28.8561 1.17701 29.0493 1.17701 29.1986C1.17701 29.3391 1.11552 29.5587 1.04525 29.6816C0.974982 29.8045 0.913496 30.0592 0.913496 30.2524C0.913496 30.4456 0.852011 30.7003 0.781742 30.8232C0.711473 30.9462 0.649988 31.2008 0.649988 31.394C0.641204 31.5872 0.588503 31.9033 0.518234 32.0965C0.447965 32.2897 0.386479 32.6059 0.386479 32.7991C0.386479 32.9923 0.342561 33.2908 0.289859 33.4577C0.0790526 34.1163 0 35.8375 0 39.5609C0 43.3106 0.0790526 45.0757 0.289859 45.6026C0.342561 45.7431 0.386479 46.0329 0.386479 46.2612C0.395263 46.4895 0.447965 46.832 0.518234 47.0252C0.588503 47.2184 0.649988 47.4994 0.649988 47.6574C0.649988 47.8067 0.693906 48.0438 0.746608 48.1843C0.808093 48.3161 0.878362 48.6059 0.92228 48.8254C1.01012 49.3611 1.17701 49.9494 1.31754 50.3007C1.38781 50.4588 1.44051 50.6783 1.44051 50.7925C1.44051 50.9066 1.502 51.1174 1.57227 51.2491C1.64254 51.3896 1.70402 51.5652 1.70402 51.6443C1.70402 51.7233 1.76551 51.9077 1.83578 52.0394C1.90605 52.1799 1.96753 52.3556 1.96753 52.4346C1.96753 52.5136 2.02902 52.6981 2.09928 52.8298C2.16955 52.9703 2.23104 53.1547 2.23104 53.2337C2.23104 53.3128 2.26617 53.4006 2.31009 53.4269C2.35401 53.4533 2.4155 53.585 2.45063 53.7167C2.47698 53.8572 2.6263 54.2085 2.76684 54.5158C2.90738 54.8144 3.02156 55.1042 3.02156 55.1481C3.02156 55.2008 3.0567 55.3062 3.10062 55.394C3.14454 55.473 3.54858 56.2722 3.98776 57.1679C4.42694 58.0548 4.91004 58.9593 5.05058 59.1701C5.19112 59.372 5.30531 59.574 5.30531 59.6091C5.30531 59.6443 5.48976 59.9428 5.70935 60.2853C5.92894 60.619 6.1661 61.0054 6.23637 61.1371C6.29785 61.2601 6.41204 61.4181 6.47353 61.4884C6.5438 61.5586 6.66677 61.7343 6.74582 61.8923C6.82487 62.0416 6.96541 62.2085 7.06203 62.2612C7.15865 62.3139 7.2377 62.4192 7.2377 62.4983C7.2377 62.6563 7.87891 63.5257 8.89781 64.7639C9.72347 65.765 13.1227 69.2074 13.6497 69.5762C13.8693 69.7255 14.2646 70.0504 14.5369 70.2963C15.4065 71.0691 18.103 72.9659 18.551 73.124C18.6388 73.1503 18.7706 73.2381 18.8584 73.3171C19.1132 73.5367 20.0618 74.046 21.9063 74.9593C22.8462 75.4159 23.6982 75.8375 23.7948 75.8726C24.1374 76.0219 24.5941 76.2063 24.9806 76.3556C25.2002 76.4346 25.4988 76.5575 25.6394 76.619C25.7887 76.6805 26.0346 76.7595 26.184 76.7859C26.3421 76.821 26.4914 76.8912 26.5177 76.9351C26.5529 76.9791 26.6583 77.0142 26.7637 77.0142C26.8691 77.0142 27.0711 77.0757 27.2117 77.1459C27.3434 77.2162 27.5454 77.2776 27.6508 77.2776C27.7475 77.2864 27.9319 77.3391 28.0549 77.4094C28.1778 77.4796 28.3974 77.5411 28.538 77.5411C28.6873 77.5411 28.8805 77.6025 28.9684 77.6728C29.065 77.7431 29.2846 77.8045 29.4515 77.8045C29.6271 77.8133 29.8643 77.866 29.9873 77.9362C30.1102 78.0065 30.365 78.068 30.5582 78.068C30.7514 78.068 31.0062 78.1294 31.1291 78.1997C31.2521 78.2699 31.5332 78.3226 31.7528 78.3314C31.9812 78.3314 32.3325 78.3929 32.5345 78.4631C32.7365 78.5334 33.1142 78.5949 33.3778 78.5949C33.6325 78.5949 33.9487 78.6388 34.0892 78.6915C35.0379 79.0691 43.8478 79.0691 44.5417 78.6915C44.6471 78.6388 44.9721 78.5949 45.2708 78.5949C45.5606 78.5949 45.9471 78.5334 46.1228 78.4631C46.2897 78.3929 46.6059 78.3314 46.8079 78.3314C47.0099 78.3314 47.3261 78.2699 47.493 78.1997C47.6687 78.1294 47.9322 78.068 48.0815 78.068C48.2309 78.068 48.4329 78.0241 48.5295 77.9714C48.6261 77.9187 48.8896 77.8484 49.118 77.8045C49.6187 77.7079 50.216 77.5586 50.6288 77.4094C50.7957 77.3479 51.0767 77.2513 51.2436 77.1986C51.4105 77.1371 51.674 77.0581 51.8146 77.0142C52.2362 76.9 52.6754 76.742 52.9389 76.6102C53.0794 76.54 53.2463 76.4873 53.3166 76.4873C53.3868 76.4873 53.5098 76.4522 53.5976 76.3995C53.7645 76.3117 54.072 76.1799 54.9328 75.8287C55.8199 75.4598 57.7962 74.4939 58.6482 73.9933C59.0786 73.7474 59.5354 73.4928 59.6583 73.4225C60.4752 72.9922 63.3123 71.0076 63.6637 70.6124C63.7603 70.5071 63.8833 70.428 63.9447 70.428C64.0062 70.428 64.3664 70.1382 64.7441 69.787C65.1218 69.4357 65.6312 68.9966 65.8684 68.8034C66.5447 68.2765 67.8886 66.9417 68.442 66.2568C68.7143 65.9143 69.2237 65.3347 69.575 64.9571C69.9264 64.5795 70.2163 64.2195 70.2163 64.158C70.2163 64.0965 70.2953 63.9736 70.4007 63.877C70.796 63.5257 72.7811 60.6893 73.2115 59.8726C73.2817 59.7496 73.5365 59.293 73.7824 58.8627C74.2831 58.0109 75.2493 56.0351 75.6182 55.1481C75.9695 54.2875 76.1013 53.9802 76.1891 53.8133C76.2418 53.7255 76.2769 53.6026 76.2769 53.5323C76.2769 53.4621 76.3297 53.2952 76.3999 53.1547C76.5317 52.8913 76.6898 52.4522 76.804 52.0307C76.8479 51.8814 76.9269 51.6267 76.9884 51.4599C77.0411 51.293 77.1377 51.012 77.1992 50.8452C77.3485 50.4324 77.4979 49.8353 77.5945 49.3347C77.6384 49.1064 77.7087 48.843 77.7614 48.7464C77.8141 48.6498 77.858 48.4478 77.858 48.2985C77.858 48.1492 77.9195 47.8858 77.9898 47.7101C78.06 47.5433 78.1215 47.2272 78.1215 47.0252C78.1215 46.8232 78.183 46.5071 78.2533 46.3402C78.3235 46.1646 78.385 45.7782 78.385 45.4884C78.385 45.1898 78.4289 44.8649 78.4816 44.7595C78.5695 44.6102 78.71 42.8012 78.7364 41.6421C78.7364 41.5279 78.7891 41.4489 78.8681 41.4489C78.9823 41.4489 78.9999 41.1767 78.9999 39.5609C78.9999 38.0329 78.9735 37.6728 78.8769 37.6728C78.7539 37.6728 78.6485 36.7683 78.6485 35.6092C78.6485 35.2667 78.587 34.7749 78.5168 34.5115C78.4465 34.248 78.385 33.8265 78.385 33.5806C78.385 33.3347 78.3235 32.9571 78.2533 32.7551C78.183 32.5532 78.1215 32.2019 78.1215 31.9736C78.1127 31.7541 78.06 31.473 77.9898 31.3501C77.9195 31.2272 77.858 30.9725 77.858 30.7793C77.858 30.5861 77.7965 30.3314 77.7262 30.2085C77.656 30.0856 77.6033 29.8485 77.5945 29.6728C77.5945 29.506 77.533 29.2864 77.4627 29.1898C77.3925 29.102 77.331 28.9 77.331 28.7595C77.331 28.6103 77.2695 28.3995 77.1992 28.2766C77.129 28.1536 77.0763 27.9692 77.0675 27.8726C77.0675 27.7672 77.006 27.5653 76.9357 27.4335C76.8654 27.293 76.804 27.091 76.804 26.9857C76.804 26.8803 76.7688 26.7749 76.7249 26.7398C76.681 26.7134 76.6107 26.5642 76.5756 26.4061C76.5492 26.2568 76.4702 26.0109 76.4087 25.8616C76.3472 25.7211 76.2242 25.4226 76.1452 25.203C75.9959 24.8166 75.8114 24.36 75.6621 24.0175C75.627 23.9209 75.2053 23.0691 74.7486 22.1295C73.8351 20.2853 73.3257 19.3369 73.1061 19.0823C73.027 18.9945 72.9392 18.8627 72.9128 18.7749C72.7547 18.3271 70.8575 15.6311 70.0845 14.7617C69.8386 14.4895 69.5136 14.0943 69.3642 13.8748C68.9953 13.3479 65.5521 9.94945 64.5508 9.12399C63.3123 8.10533 62.4427 7.46427 62.2846 7.46427C62.2056 7.46427 62.1002 7.38524 62.0475 7.28864C61.9948 7.19204 61.8279 7.05154 61.6698 6.97251C61.5117 6.89347 61.2921 6.74418 61.1691 6.65637C60.8529 6.41048 59.4651 5.53233 59.3948 5.53233C59.3597 5.53233 59.1577 5.41817 58.9557 5.27766C58.7448 5.13716 57.8401 4.65418 56.953 4.2151C56.0571 3.77602 55.2577 3.37206 55.1787 3.32816C55.0909 3.28425 54.9855 3.24913 54.9328 3.24913C54.8888 3.24913 54.599 3.13496 54.3003 2.99446C53.9929 2.85396 53.6416 2.70467 53.501 2.67833C53.3693 2.6432 53.2375 2.58173 53.2112 2.53782C53.1848 2.49391 53.097 2.45878 53.0179 2.45878C52.9389 2.45878 52.7544 2.39731 52.6139 2.32707C52.4821 2.25681 52.2977 2.19534 52.2186 2.19534C52.1396 2.19534 51.9639 2.13386 51.8234 2.06361C51.6916 1.99337 51.5071 1.93189 51.4281 1.93189C51.349 1.93189 51.1734 1.87042 51.0328 1.80017C50.9011 1.72991 50.6903 1.66845 50.5761 1.66845C50.4619 1.66845 50.2423 1.61576 50.0842 1.5455C49.7329 1.405 49.1443 1.23815 48.6085 1.15033C48.389 1.10643 48.0991 1.03617 47.9673 0.974703C47.8268 0.922016 47.5896 0.878102 47.4403 0.878102C47.2822 0.878102 47.0011 0.816634 46.8079 0.746385C46.6147 0.676128 46.2809 0.623441 46.0613 0.614659C45.8417 0.614659 45.4728 0.553191 45.2356 0.482934C44.9985 0.412685 44.5417 0.342428 44.2255 0.342428C43.5053 0.324865 43.11 0.245835 43.1364 0.105328C43.1539 0.0262976 42.2756 -5.35438e-05 39.4033 -5.35438e-05C36.0831 -5.35438e-05 35.6439 0.0175165 35.5649 0.140453ZM43.3647 1.5455C43.6985 1.61576 44.1728 1.66845 44.4188 1.66845C44.6735 1.66845 45.0951 1.72991 45.3586 1.80017C45.6221 1.87042 45.991 1.93189 46.1755 1.93189C46.3599 1.93189 46.5971 1.9758 46.6937 2.02849C46.7991 2.08996 47.1065 2.16022 47.3701 2.20412C47.8444 2.26559 48.1254 2.33585 49.1356 2.60807C50.2599 2.91543 50.6024 3.0208 50.8659 3.13496C51.0153 3.19643 51.1997 3.24913 51.27 3.24913C51.3403 3.24913 51.5159 3.3106 51.6477 3.38085C51.7882 3.4511 51.9639 3.51257 52.0429 3.51257C52.122 3.51257 52.3065 3.57405 52.4382 3.6443C52.5787 3.71455 52.7544 3.77602 52.8335 3.77602C52.9037 3.77602 53.0004 3.81115 53.0531 3.84627C53.097 3.89018 53.3341 3.99556 53.5713 4.08337C55.2138 4.67174 58.5165 6.4017 60.4664 7.68381C61.1428 8.13167 61.3711 8.29852 62.4515 9.10643C62.7941 9.36109 63.1191 9.57184 63.1718 9.57184C63.2245 9.57184 63.3123 9.6421 63.3562 9.72991C63.4089 9.81773 63.7954 10.1778 64.2258 10.5203C65.1832 11.2842 67.6426 13.7255 68.1872 14.4456C68.398 14.7354 68.767 15.1657 68.9865 15.4116C69.2149 15.6487 69.5048 16.0087 69.6365 16.2019C69.7683 16.3951 70.0318 16.7727 70.225 17.0362C70.8487 17.8968 71.85 19.4335 72.3682 20.3292C73.352 22.0241 74.6608 24.8078 75.179 26.3007C75.258 26.5378 75.3635 26.8188 75.3986 26.9154C75.5567 27.3106 75.7412 27.8989 75.7938 28.1624C75.829 28.3205 75.8905 28.4698 75.9344 28.4961C75.9783 28.5312 76.0134 28.6542 76.0134 28.7859C76.0134 28.9176 76.0749 29.1371 76.1452 29.2777C76.2155 29.4094 76.2769 29.6201 76.2769 29.7343C76.2769 29.8485 76.3297 30.0943 76.3999 30.27C76.4702 30.4544 76.5492 30.7969 76.5756 31.0427C76.6107 31.2798 76.6722 31.5169 76.7161 31.5609C76.7688 31.6135 76.804 31.8067 76.804 31.9999C76.8128 32.2019 76.8654 32.518 76.9357 32.7112C77.006 32.9044 77.0675 33.2381 77.0675 33.4577C77.0675 33.6772 77.1114 33.9933 77.1553 34.1602C77.208 34.327 77.2871 34.9418 77.331 35.5213C77.3837 36.1009 77.454 36.9527 77.5067 37.4094C77.6121 38.4983 77.6121 40.6498 77.4979 41.7562C77.454 42.2392 77.3749 43.0471 77.331 43.5565C77.2519 44.5751 77.1202 45.4182 76.9269 46.2787C76.8567 46.5949 76.804 46.9637 76.804 47.0954C76.804 47.2272 76.7425 47.4818 76.6722 47.6574C76.6019 47.8243 76.5405 48.0965 76.5405 48.2546C76.5405 48.4127 76.479 48.6585 76.4087 48.7903C76.3384 48.9308 76.2769 49.1679 76.2769 49.3259C76.2769 49.4752 76.2418 49.6245 76.1979 49.6596C76.1452 49.686 76.0837 49.888 76.0486 50.1163C76.0134 50.3358 75.9344 50.6256 75.8729 50.7486C75.8026 50.8715 75.7499 51.0383 75.7499 51.1086C75.7412 51.2315 75.5391 51.8375 75.3283 52.3644C75.2668 52.5049 75.2229 52.6454 75.2229 52.6893C75.2229 52.7332 75.1614 52.9176 75.0824 53.102C75.0033 53.2864 74.9067 53.5147 74.8628 53.6113C74.4412 54.6476 74.0196 55.6135 73.8527 55.9385C73.7385 56.158 73.6419 56.36 73.6419 56.3863C73.6419 56.4214 73.4574 56.7727 73.2378 57.1767C73.0094 57.5806 72.7108 58.1338 72.5703 58.3973C72.2013 59.0998 71.1297 60.8473 70.9365 61.0669C70.8487 61.1635 70.4798 61.6552 70.1196 62.1558C69.7595 62.6563 69.3203 63.2623 69.1359 63.5169C68.2048 64.8078 64.5947 68.417 63.3035 69.3479C63.0488 69.5323 62.4427 69.9714 61.9421 70.3314C61.4414 70.6915 60.9495 71.0603 60.8529 71.1481C60.4928 71.473 56.7597 73.6333 56.2064 73.844C56.1625 73.8616 55.8023 74.0285 55.4159 74.2041C55.0294 74.3885 54.4584 74.6432 54.1422 74.7661C53.826 74.8978 53.4922 75.0383 53.3956 75.0735C53.299 75.1174 53.0706 75.214 52.8862 75.293C52.7017 75.372 52.5173 75.4335 52.4733 75.4335C52.4294 75.4335 52.2889 75.4774 52.1483 75.5389C51.6213 75.7496 51.0153 75.9516 50.8923 75.9604C50.822 75.9604 50.6551 76.0131 50.5322 76.0833C50.4092 76.1448 50.1193 76.2238 49.8997 76.259C49.6714 76.2941 49.4693 76.3556 49.443 76.4083C49.4079 76.4522 49.2585 76.4873 49.1092 76.4873C48.9511 76.4873 48.714 76.5488 48.5734 76.619C48.4417 76.6893 48.1957 76.7507 48.0376 76.7507C47.8795 76.7507 47.6072 76.8122 47.4403 76.8825C47.2647 76.9527 47.0099 77.0142 46.8782 77.0142C46.7464 77.0142 46.3775 77.0669 46.0613 77.1371C45.2005 77.3303 44.3573 77.462 43.3384 77.5411C42.8289 77.585 42.0208 77.664 41.5377 77.7079C40.431 77.8221 38.279 77.8221 37.1898 77.7167C36.7331 77.664 35.8811 77.5938 35.3014 77.5411C34.7216 77.4972 34.1068 77.4181 33.9399 77.3654C33.773 77.3215 33.4568 77.2776 33.2372 77.2776C33.0176 77.2776 32.6838 77.2162 32.4906 77.1459C32.2974 77.0757 31.9812 77.023 31.7879 77.0142C31.5859 77.0142 31.3927 76.9791 31.34 76.9264C31.296 76.8825 31.0589 76.821 30.8217 76.7859C30.5758 76.7595 30.2332 76.6805 30.0488 76.6102C29.8731 76.54 29.6271 76.4873 29.513 76.4873C29.3988 76.4873 29.188 76.4258 29.0562 76.3556C28.9157 76.2853 28.7137 76.2238 28.617 76.2238C28.5116 76.2238 28.3096 76.1624 28.1778 76.0921C28.0373 76.0219 27.8616 75.9604 27.7914 75.9604C27.6508 75.9516 26.8427 75.6882 26.6934 75.5916C26.6495 75.5652 26.465 75.5125 26.2982 75.4774C26.1313 75.4423 25.938 75.3808 25.859 75.3369C25.7887 75.293 25.1914 75.0383 24.5414 74.7661C21.8624 73.6508 19.1395 72.1316 16.8118 70.4368C16.5483 70.2436 16.1706 69.9802 15.9774 69.8484C15.7842 69.7167 15.4328 69.4269 15.1869 69.1986C14.9497 68.9791 14.5105 68.6102 14.2207 68.3995C13.5004 67.855 11.0586 65.3962 10.2944 64.439C9.95184 64.0087 9.59171 63.6223 9.50388 63.5696C9.41604 63.5257 9.34577 63.4379 9.34577 63.3852C9.34577 63.3325 9.13496 63.0076 8.88024 62.6651C8.07215 61.585 7.90526 61.3567 7.45729 60.6805C6.17488 58.731 4.44451 55.4291 3.85601 53.787C3.76817 53.5411 3.66277 53.3128 3.61885 53.2601C3.58372 53.2162 3.54858 53.1196 3.54858 53.0405C3.54858 52.9703 3.4871 52.7947 3.41683 52.6542C3.34656 52.5224 3.28507 52.338 3.28507 52.259C3.28507 52.1799 3.22359 52.0043 3.15332 51.8638C3.08305 51.7321 3.02156 51.5565 3.02156 51.4862C3.02156 51.416 2.96886 51.2315 2.90738 51.0823C2.79319 50.8188 2.68779 50.4763 2.38036 49.3523C2.10807 48.3424 2.0378 48.0614 1.97631 47.5872C1.9324 47.3237 1.86213 47.0164 1.80064 46.911C1.74794 46.8144 1.70402 46.5773 1.70402 46.3929C1.70402 46.2085 1.64254 45.8397 1.57227 45.5762C1.502 45.3128 1.44051 44.8913 1.44051 44.6366C1.44051 44.3907 1.37903 43.8902 1.29998 43.5389C1.08917 42.5993 1.08917 36.5576 1.29998 35.5213C1.37903 35.135 1.44051 34.6168 1.44051 34.3797C1.44051 34.1339 1.502 33.7475 1.57227 33.5104C1.64254 33.2733 1.70402 32.9308 1.70402 32.7551C1.70402 32.5707 1.76551 32.2546 1.83578 32.0526C1.90605 31.8506 1.96753 31.5696 1.96753 31.4379C1.96753 31.3062 2.02902 31.0515 2.09928 30.8847C2.16955 30.709 2.23104 30.4368 2.23104 30.27C2.23104 30.1119 2.26617 29.9451 2.31888 29.8924C2.36279 29.8485 2.44185 29.6289 2.48576 29.4182C2.6263 28.7859 2.77562 28.2502 2.89859 27.9516C2.96886 27.8024 3.02156 27.6004 3.02156 27.5126C3.02156 27.4247 3.0567 27.3106 3.10062 27.2579C3.14454 27.214 3.22359 27.0384 3.26751 26.8715C3.37291 26.5115 3.77696 25.4138 3.89114 25.1591C4.09317 24.7376 4.33911 24.158 4.33911 24.1053C4.33911 24.0702 4.68167 23.3677 5.0945 22.5422C5.86746 20.9966 6.69312 19.5653 7.40459 18.5027C7.62418 18.169 7.90526 17.7475 8.02823 17.5718C8.40592 17.0098 8.85389 16.4039 9.13496 16.079C9.28429 15.9033 9.53023 15.5872 9.68833 15.3677C10.4876 14.2348 14.1153 10.6081 15.099 9.94945C15.2923 9.82651 15.6085 9.58062 15.8017 9.40499C16.4869 8.79907 17.9625 7.79797 19.7456 6.71784C20.8874 6.03288 23.259 4.82103 24.1901 4.44341C24.5063 4.3117 24.8401 4.17119 24.9367 4.12728C25.1826 4.00434 26.2806 3.60039 26.6495 3.49501C26.8164 3.4511 26.9921 3.37206 27.0448 3.32816C27.0887 3.28425 27.2029 3.24913 27.2907 3.24913C27.3785 3.24913 27.5806 3.19643 27.7299 3.12618C28.0285 3.00324 28.5643 2.85396 29.1967 2.71345C29.4076 2.66954 29.6271 2.59051 29.6711 2.5466C29.7238 2.49391 29.8907 2.45878 30.0488 2.45878C30.2156 2.45878 30.4879 2.39731 30.6636 2.32707C30.8305 2.25681 31.0852 2.19534 31.217 2.19534C31.3487 2.19534 31.6298 2.13386 31.8318 2.06361C32.0339 1.99337 32.3501 1.93189 32.5345 1.93189C32.7102 1.93189 33.0528 1.87042 33.2899 1.80017C33.5271 1.72991 33.9399 1.66845 34.2034 1.66845C34.4669 1.66845 34.8446 1.62454 35.0379 1.57185C36.0128 1.31718 42.1614 1.29084 43.3647 1.5455Z" fill="white"/>
<path d="M37.9187 4.20629C37.743 4.35558 37.7167 4.45217 37.7255 5.02297C37.7255 5.6289 37.8133 6.52462 37.9451 7.35009C38.0329 7.93845 37.8045 7.83307 37.2687 7.05151C37.014 6.68269 36.689 6.20848 36.5397 6.00651C36.3904 5.80453 36.0566 5.33911 35.7931 4.97028C35.2836 4.26776 35.2134 4.23263 34.5107 4.28532C33.9749 4.33801 33.8255 4.59268 33.9397 5.24251C33.9924 5.52352 34.0715 6.52462 34.1154 7.46425C34.1505 8.40387 34.212 9.23812 34.2472 9.32594C34.2735 9.40497 34.335 9.73867 34.3613 10.0724L34.4228 10.6695L34.7215 10.6959C35.2397 10.7485 35.5823 10.6432 35.6262 10.4236C35.6613 10.1953 35.5735 8.46534 35.4769 7.61353C35.433 7.25349 35.4417 7.02517 35.4944 7.02517C35.5384 7.02517 35.7316 7.24471 35.9248 7.51694C36.1093 7.78916 36.3728 8.12286 36.5133 8.26337C36.6451 8.40387 36.7505 8.55316 36.7505 8.59707C36.7505 8.70245 37.5849 9.83527 37.9099 10.1602C38.1471 10.4061 38.2525 10.45 38.5951 10.45C38.9288 10.45 39.043 10.4061 39.245 10.2041L39.4822 9.94943L39.3944 9.16787C39.3504 8.73757 39.2802 7.89454 39.2538 7.28862C39.2275 6.68269 39.1484 5.71672 39.0957 5.13713L38.9903 4.08335L38.5511 4.06578C38.2261 4.04822 38.0593 4.08335 37.9187 4.20629Z" fill="white"/>
<path d="M41.5202 4.25898C41.406 4.33802 41.3182 4.49608 41.3182 4.61024C41.3182 4.7244 41.2567 5.04932 41.1864 5.33033C41.1162 5.60256 41.0547 6.01529 41.0547 6.23483C41.0459 6.45437 40.9932 6.8671 40.9229 7.1569C40.8527 7.44669 40.7912 7.87698 40.7912 8.12287C40.7912 8.35997 40.7297 8.79905 40.6594 9.08884C40.5013 9.73867 40.4925 10.2217 40.6419 10.3358C40.6946 10.3885 40.9054 10.45 41.0986 10.4763C41.2918 10.5115 41.652 10.5729 41.8891 10.6256C42.1351 10.6783 42.8026 10.7222 43.3823 10.731C44.2783 10.7486 44.4891 10.7222 44.7438 10.5817C45.7539 10.0197 46.3336 8.79905 46.3424 7.2008C46.3424 6.73538 46.1755 6.04164 45.9735 5.66403C45.6749 5.11079 44.9634 4.60146 44.3925 4.52243C44.1729 4.4873 43.9006 4.43461 43.7776 4.39071C43.6546 4.3468 43.2594 4.29411 42.8992 4.26776C42.5391 4.24142 42.1263 4.19751 41.977 4.17117C41.8013 4.13604 41.6432 4.16239 41.5202 4.25898ZM44.085 5.80454C44.8931 6.19093 45.0512 6.77051 44.7262 8.21068C44.4715 9.37863 43.9796 9.68598 42.7675 9.45766C42.1878 9.35229 42.1526 9.32594 42.1263 9.08884C42.1087 8.95712 42.1351 8.67611 42.1966 8.48291C42.2493 8.28094 42.3283 7.76282 42.3722 7.33253C42.4776 6.37534 42.5742 5.78697 42.6709 5.62891C42.7851 5.45327 43.558 5.54987 44.085 5.80454Z" fill="white"/>
<path d="M30.9536 5.06696C30.6901 5.16355 30.611 5.36553 30.6637 5.83095C30.6901 6.07684 30.7691 6.38419 30.8306 6.51591C30.9009 6.64764 30.9536 6.87596 30.9536 7.02524C30.9536 7.17453 31.0151 7.43798 31.0854 7.61361C31.1556 7.78046 31.2171 8.0439 31.2171 8.18441C31.2171 8.32491 31.2786 8.57958 31.3489 8.75521C31.4191 8.92206 31.4806 9.21185 31.4806 9.38748C31.4894 9.56311 31.5421 9.80021 31.6124 9.92316C31.6826 10.0461 31.7353 10.2744 31.7441 10.4237C31.7441 10.854 31.9989 11.416 32.1833 11.416C32.2799 11.416 32.3765 11.3721 32.4029 11.3282C32.4292 11.2755 32.5874 11.2404 32.7455 11.2404C33.1583 11.2404 33.3603 11.0648 33.3076 10.7486C33.2373 10.3798 33.0705 9.67727 32.9211 9.21185C32.8509 8.98353 32.7982 8.69374 32.7982 8.5708C32.7982 8.43907 32.7367 8.19319 32.6664 8.01756C32.5961 7.85071 32.5347 7.58726 32.5347 7.44676C32.5347 7.30625 32.4732 7.05159 32.4029 6.87596C32.3326 6.70911 32.2711 6.46322 32.2711 6.3315C32.2711 6.01536 31.9725 5.18112 31.8232 5.08452C31.6914 5.00549 31.1644 4.98792 30.9536 5.06696Z" fill="white"/>
<path d="M48.3011 5.44457C48.2133 5.54117 48.1167 5.76071 48.0815 5.94512C48.0376 6.12954 47.9673 6.41055 47.9146 6.55983C47.8619 6.7179 47.7741 6.98135 47.7214 7.13063C47.6687 7.2887 47.5896 7.57849 47.5545 7.77169C47.5194 7.96488 47.4403 8.26345 47.3788 8.4303C47.1241 9.16795 47.089 9.28211 47.0363 9.61581C47.0011 9.80901 46.9221 10.0549 46.8694 10.1603C46.8079 10.2656 46.764 10.4413 46.764 10.5554C46.764 10.6696 46.7201 10.8101 46.6761 10.854C46.518 11.0121 46.764 11.416 47.0451 11.4775C47.1856 11.5038 47.3173 11.5653 47.3437 11.6004C47.493 11.8551 48.02 11.4863 48.1079 11.0648C48.1518 10.854 48.2045 10.6872 48.4329 10.011C48.4943 9.84413 48.5734 9.54556 48.6085 9.35237C48.6437 9.15917 48.7227 8.86938 48.7754 8.71131C49.0301 7.97366 49.0741 7.84194 49.1356 7.55215C49.3112 6.84084 49.4254 6.43689 49.5484 6.12954C49.7065 5.74315 49.6626 5.64655 49.1883 5.43579C48.7227 5.22503 48.4943 5.22503 48.3011 5.44457Z" fill="white"/>
<path d="M25.7712 6.71791C25.5428 6.84085 24.3834 7.37653 24.3219 7.37653C24.3043 7.37653 24.0057 7.50825 23.6455 7.6751C23.2942 7.83317 22.9165 7.99124 22.8111 8.02636C22.328 8.17565 22.3543 8.30737 23.3118 10.4062C23.4435 10.696 23.7158 11.3282 23.9266 11.8024C24.1286 12.2766 24.3307 12.7333 24.3658 12.8123C24.4097 12.8913 24.5239 13.1372 24.6293 13.3743C24.8752 13.9012 25.0773 14.0154 25.4989 13.8749C25.6833 13.8222 25.9205 13.6993 26.0347 13.6114C26.2191 13.4709 26.2367 13.427 26.1489 13.2426C26.0874 13.1372 25.9644 12.8387 25.859 12.6016C25.7536 12.3557 25.5692 11.9605 25.4462 11.7058C25.3232 11.46 25.2354 11.2141 25.2617 11.1526C25.2793 11.0999 25.6043 10.9155 25.9908 10.7486C27.1766 10.2393 27.5279 10.0637 27.5279 9.96709C27.5279 9.8178 27.1414 9.20309 27.0009 9.1065C26.8955 9.04503 26.5968 9.14162 25.9029 9.43141C25.3759 9.65973 24.8665 9.83537 24.7698 9.8178C24.5415 9.78268 24.1989 9.0099 24.3219 8.8167C24.3746 8.74645 24.9192 8.45666 25.5428 8.18443C26.7374 7.64876 26.8779 7.52582 26.7198 7.11308C26.5266 6.60375 26.2016 6.47203 25.7712 6.71791Z" fill="white"/>
<path d="M51.2434 8.62346C50.2509 9.60699 49.188 10.6344 48.8894 10.9154C48.5908 11.1877 48.3448 11.4687 48.3448 11.5389C48.3448 11.697 48.6083 11.9165 48.8982 11.9868C49.0299 12.0219 49.1617 12.0834 49.188 12.1273C49.3198 12.3381 49.6448 12.18 50.0488 11.7233C50.2772 11.4599 50.5232 11.2404 50.5934 11.2404C50.6637 11.2404 51.0941 11.416 51.5421 11.6355C51.9988 11.8551 52.4116 12.0307 52.4643 12.0307C52.64 12.0307 52.7366 12.382 52.7366 13.0406V13.708L53.2197 13.9275C53.4832 14.0505 53.7907 14.1383 53.8961 14.1207C54.0981 14.0944 54.0981 14.0592 54.2035 12.2502C54.3265 9.90556 54.344 7.67505 54.2298 7.46429C54.1596 7.33257 53.2812 6.84958 53.1055 6.84958C53.0792 6.84958 52.2447 7.64871 51.2434 8.62346ZM52.9562 9.58943C52.8684 10.45 52.8245 10.6169 52.6488 10.6696C52.4292 10.7398 51.6826 10.3622 51.6826 10.1778C51.6826 9.9846 52.6488 9.04497 52.8508 9.04497C53.0001 9.04497 53.0089 9.09766 52.9562 9.58943Z" fill="white"/>
<path d="M57.8225 9.73868C57.4799 10.169 57.1373 10.652 56.9705 10.9505C56.8914 11.0998 56.6279 11.4862 56.382 11.8111C55.486 12.9966 55.3455 13.2074 55.2313 13.4972C55.161 13.6553 55.0644 13.787 55.0205 13.787C54.9327 13.787 54.4935 14.4895 54.4935 14.6388C54.4935 14.6915 54.6779 14.8671 54.8975 15.0427L55.3016 15.3589L55.5563 15.1657C55.6968 15.0691 55.8901 14.8583 55.9867 14.709C56.0745 14.5685 56.3556 14.1646 56.6015 13.8309C56.8387 13.4884 57.1198 13.0493 57.2252 12.8386C57.3218 12.6278 57.4536 12.4785 57.5063 12.4961C57.6556 12.54 57.6819 13.4972 57.559 14.5246C57.4975 15.0164 57.436 15.7277 57.4184 16.1229L57.3833 16.8254L57.884 17.1591C58.165 17.3347 58.4461 17.4664 58.5164 17.4577C58.6306 17.4313 59.2191 16.7288 59.588 16.158C59.6582 16.0526 59.8778 15.7365 60.0711 15.4643C60.2643 15.192 60.5278 14.8144 60.6684 14.6212C60.8001 14.428 61.1778 13.8748 61.5204 13.3918C61.8542 12.9088 62.1352 12.4434 62.1352 12.3644C62.1352 12.2151 61.4238 11.6794 61.2217 11.6794C61.0548 11.6794 60.844 11.9516 59.8691 13.3918C59.7022 13.6289 59.4474 13.9802 59.2981 14.1646C58.8502 14.7178 58.8414 14.6564 59.0697 11.8375C59.1664 10.6256 59.1664 10.5202 59.017 10.2304C58.8414 9.91431 58.5252 9.6333 58.2089 9.5367C58.0684 9.4928 57.9806 9.54548 57.8225 9.73868Z" fill="white"/>
<path d="M18.8761 10.5378C18.8498 10.5817 18.7531 10.6256 18.6653 10.6256C18.5863 10.6256 18.4369 10.6871 18.3491 10.7573C18.2525 10.8276 17.989 11.0296 17.7606 11.1964C16.6714 12.0131 16.3113 13.5674 16.9349 14.8232C17.2511 15.473 17.3038 15.5521 17.8397 16.0877C18.6917 16.9483 19.7018 17.2996 20.5801 17.0274C22.2402 16.518 23.1801 15.4116 23.1713 13.9626C23.1713 13.4094 23.1274 13.2074 22.8902 12.6893C22.7321 12.3468 22.4774 11.9428 22.3193 11.7848C21.1511 10.5729 20.9051 10.45 19.7633 10.45C19.3065 10.45 18.9025 10.4851 18.8761 10.5378ZM20.4133 11.9867C21.3092 12.5575 21.8889 13.6816 21.6957 14.4895C21.5024 15.2798 21.0457 15.6311 20.2024 15.6311C19.368 15.6311 18.8146 15.2359 18.314 14.2787C17.9363 13.5674 17.9363 12.9878 18.3052 12.4873C18.8585 11.7233 19.6842 11.5301 20.4133 11.9867Z" fill="white"/>
<path d="M37.5853 12.9176C37.0056 12.9616 36.2326 13.0406 35.8725 13.0933C35.5124 13.146 34.9502 13.2162 34.6252 13.2601C34.3002 13.304 33.9577 13.3743 33.861 13.427C33.7644 13.4797 33.5624 13.5236 33.4131 13.5236C33.2638 13.5236 33.0003 13.585 32.8246 13.6553C32.6577 13.7256 32.403 13.787 32.28 13.787C32.1482 13.787 31.9638 13.8485 31.8672 13.9187C31.7793 13.989 31.6037 14.0505 31.4807 14.0505C31.3577 14.0505 31.1469 14.1119 31.0064 14.1822C30.8746 14.2524 30.6902 14.3139 30.6111 14.3139C30.5233 14.3139 30.3827 14.3754 30.2861 14.4456C30.1983 14.5159 30.049 14.5774 29.9699 14.5774C29.8821 14.5774 29.5483 14.7003 29.2233 14.8496C28.8895 14.9901 28.5118 15.1657 28.3625 15.2272C27.7564 15.4906 27.1064 15.8243 26.6936 16.0702C26.4565 16.2107 26.1578 16.3688 26.0436 16.4215C25.4551 16.6762 22.6883 18.6432 21.9505 19.3282C21.6079 19.6443 19.4208 21.8309 19.1046 22.1734C18.7093 22.6037 17.9276 23.6136 17.3918 24.4127C17.1107 24.8254 16.8296 25.2206 16.7681 25.2909C16.7066 25.3611 16.531 25.6597 16.3729 25.9495C16.2148 26.2393 15.9776 26.6696 15.8371 26.9154C15.5911 27.337 15.2574 28.0044 15.0026 28.5839C14.9411 28.7245 14.7655 29.1108 14.6249 29.4445C14.4756 29.7695 14.3526 30.1032 14.3526 30.191C14.3526 30.27 14.2912 30.4193 14.2209 30.5071C14.1506 30.6037 14.0891 30.7442 14.0891 30.832C14.0891 30.9111 14.0276 31.0955 13.9574 31.2272C13.8871 31.3677 13.8256 31.5785 13.8256 31.7014C13.8256 31.8243 13.7641 32 13.6939 32.0878C13.6236 32.1844 13.5621 32.3688 13.5621 32.5005C13.5621 32.6235 13.5006 32.8781 13.4304 33.045C13.3601 33.2206 13.2986 33.4841 13.2986 33.6333C13.2986 33.7826 13.2547 33.9846 13.202 34.0812C13.1493 34.1778 13.079 34.5203 13.0351 34.8452C13 35.1701 12.9209 35.6882 12.877 36.0044C12.8243 36.3205 12.7365 37.2689 12.6838 38.1119C12.6047 39.3853 12.6047 39.9561 12.7189 41.405C12.8506 43.056 12.8946 43.3984 13.1229 44.6103C13.1756 44.8737 13.2547 45.304 13.2986 45.5675C13.3425 45.8221 13.4128 46.0768 13.4655 46.1295C13.5182 46.1822 13.5621 46.3403 13.5621 46.4808C13.5621 46.6125 13.606 46.8145 13.6675 46.9198C13.7202 47.0252 13.7993 47.2535 13.8344 47.4204C13.8959 47.7365 14.0364 48.1405 14.2297 48.6059C14.2912 48.7464 14.4053 49.045 14.4844 49.2645C14.8357 50.1954 15.8371 52.2766 16.2148 52.8474C16.3465 53.0581 16.4607 53.2426 16.4607 53.2601C16.4607 53.3479 17.8924 55.4116 18.235 55.8243C18.4458 56.0702 18.7357 56.4478 18.8938 56.6586C19.1221 56.9659 19.6052 57.4841 20.2289 58.09C20.2816 58.1339 20.6066 58.4764 20.9579 58.8364C21.3093 59.1965 21.9944 59.8199 22.4863 60.2063C23.3734 60.9264 25.4288 62.3666 25.7977 62.5334C25.9031 62.5774 26.193 62.7354 26.4301 62.8759C26.8605 63.1306 28.099 63.7541 28.626 63.9736C28.7753 64.0351 29.0301 64.1493 29.197 64.2195C29.5834 64.3864 30.2422 64.6322 31.2172 64.9835C31.3841 65.0362 31.6651 65.124 31.832 65.1591C32.482 65.3172 32.9388 65.4401 33.2374 65.5367C33.4043 65.5894 33.7469 65.6597 33.984 65.7036C34.23 65.7387 34.6779 65.809 34.9941 65.8617C36.3732 66.09 38.411 66.292 39.2542 66.292C39.8515 66.292 41.9859 66.1163 42.2845 66.0461C42.5041 65.9934 42.873 65.9495 43.1102 65.9495C43.3474 65.9495 43.769 65.888 44.0325 65.8177C44.3048 65.7475 44.7088 65.6685 44.9372 65.6421C45.1656 65.6158 45.3764 65.5543 45.4027 65.5016C45.4379 65.4577 45.6047 65.4226 45.7804 65.4226C45.9561 65.4226 46.2196 65.3611 46.3601 65.2909C46.4919 65.2206 46.6939 65.1591 46.7993 65.1591C46.8959 65.1591 47.098 65.0977 47.2385 65.0274C47.3703 64.9572 47.5723 64.8957 47.6777 64.8957C47.7743 64.8957 47.9412 64.8342 48.029 64.764C48.1256 64.6937 48.2837 64.6322 48.3892 64.6322C48.4946 64.6322 48.6527 64.5708 48.7493 64.5005C48.8371 64.4303 48.9864 64.3688 49.0655 64.3688C49.1445 64.3688 49.3202 64.3161 49.4608 64.2459C49.5925 64.1756 49.9878 64 50.3215 63.8419C50.6641 63.6926 50.9979 63.5258 51.0682 63.4906C51.1384 63.4467 51.3756 63.3238 51.5952 63.2184C52.2364 62.8935 53.835 61.9363 54.1249 61.6904C54.2654 61.5675 54.4147 61.4709 54.4498 61.4709C54.5377 61.4709 56.2329 60.18 56.6018 59.8287C56.7687 59.6707 57.2255 59.2667 57.6119 58.933C58.0072 58.5993 58.5606 58.0373 58.8417 57.686C59.1315 57.326 59.4916 56.922 59.641 56.7727C59.9396 56.483 61.2571 54.7618 61.2571 54.6652C61.2571 54.63 61.3538 54.4895 61.468 54.349C61.7139 54.0592 62.7152 52.4083 63.0051 51.8112C63.1105 51.5916 63.2335 51.3545 63.2774 51.2843C63.3125 51.214 63.4794 50.8715 63.6287 50.5378C63.7868 50.1954 63.9625 49.809 64.0328 49.6772C64.103 49.5367 64.1557 49.3611 64.1557 49.2821C64.1557 49.203 64.2172 49.0538 64.2875 48.9659C64.3578 48.8693 64.4192 48.7113 64.4192 48.6059C64.4192 48.5005 64.4807 48.3425 64.551 48.2459C64.6213 48.158 64.6828 47.9824 64.6828 47.8595C64.6828 47.7365 64.7442 47.5609 64.8145 47.4731C64.8848 47.3765 64.9463 47.1921 64.9463 47.0603C64.9463 46.9286 65.0078 46.7091 65.078 46.5774C65.1483 46.4369 65.2098 46.1822 65.2098 46.0153C65.2098 45.8397 65.2449 45.6641 65.2976 45.6114C65.3415 45.5675 65.4206 45.2601 65.4645 44.944C65.5084 44.6191 65.5699 44.3117 65.605 44.259C65.6402 44.1976 65.7017 43.8112 65.7368 43.3984C65.7807 42.9769 65.8598 42.3095 65.9125 41.9056C66.0354 41.0362 65.9915 37.3304 65.8422 36.3995C65.7895 36.0571 65.7017 35.5302 65.649 35.214C65.5963 34.8979 65.526 34.4412 65.4909 34.2041C65.4469 33.9583 65.3767 33.6246 65.324 33.4577C65.2273 33.1591 65.1044 32.7025 64.9463 32.0527C64.8672 31.7102 64.6915 31.2009 64.2787 30.0944C63.8747 29.0055 63.1368 27.4511 62.6625 26.652C62.522 26.4061 62.3639 26.1251 62.3112 26.0197C62.1531 25.6421 60.7389 23.6311 60.0099 22.7266C59.6146 22.2261 58.9822 21.5324 58.6221 21.1899C58.2619 20.8386 57.9282 20.5137 57.8755 20.461C57.4187 19.9692 56.7512 19.3457 56.4437 19.1174C56.2329 18.9594 55.8552 18.6608 55.6093 18.4588C54.16 17.247 50.9891 15.438 49.0479 14.7091C48.8283 14.63 48.5385 14.5159 48.3892 14.4544C47.9236 14.2612 47.5196 14.1207 47.2034 14.0593C47.0365 14.0241 46.8081 13.9451 46.7027 13.8924C46.5973 13.8309 46.3953 13.787 46.2635 13.787C46.123 13.787 45.9649 13.7431 45.9122 13.6904C45.8595 13.6377 45.6047 13.5675 45.35 13.5236C45.0865 13.4797 44.6561 13.4006 44.3926 13.3479C43.198 13.1196 42.7676 13.0669 41.2393 12.944C39.4562 12.8123 39.1576 12.8123 37.5853 12.9176ZM40.7474 14.2173C41.1339 14.27 41.7663 14.3051 42.1528 14.3139C42.5393 14.3139 43.0136 14.3754 43.2068 14.4456C43.4001 14.5159 43.7251 14.5774 43.9183 14.5774C44.1203 14.5774 44.4277 14.6388 44.5946 14.7091C44.7703 14.7793 45.0426 14.8408 45.2007 14.8408C45.3588 14.8408 45.6047 14.9023 45.7453 14.9725C45.877 15.0428 46.0966 15.1043 46.2284 15.1043C46.3601 15.1043 46.5446 15.1657 46.6412 15.236C46.729 15.3062 46.9311 15.3677 47.0716 15.3677C47.2209 15.3677 47.4142 15.4292 47.502 15.4994C47.5986 15.5697 47.7567 15.6311 47.8534 15.6311C47.9588 15.6311 48.1169 15.6926 48.2047 15.7629C48.3013 15.8331 48.4682 15.8946 48.5736 15.8946C48.679 15.8946 48.8108 15.9561 48.8722 16.0263C48.9337 16.0966 49.0479 16.158 49.127 16.158C49.1972 16.158 49.5047 16.2722 49.7945 16.4127C50.6905 16.843 51.1033 17.045 51.2877 17.1504C52.5965 17.9056 53.0445 18.1778 53.5276 18.5115C55.6708 20.0044 57.4802 21.585 58.4552 22.832C59.7288 24.4566 60.2119 25.1328 60.1768 25.2294C60.1592 25.2996 59.7464 25.3699 59.0525 25.4401C57.8842 25.5455 57.6295 25.5982 56.3383 26.0109C54.5904 26.5818 53.2728 27.4423 51.9816 28.8562C51.2526 29.6553 50.4621 30.6652 50.0668 31.3062C49.979 31.4467 49.8472 31.6311 49.777 31.7014C49.6101 31.8858 48.9513 32.8254 48.7054 33.2118C48.6 33.3962 48.477 33.5455 48.4419 33.5455C48.4067 33.5455 48.2662 33.7299 48.1169 33.9583C47.9763 34.1866 47.7128 34.5466 47.5371 34.7574C47.3527 34.9681 47.2034 35.1701 47.2034 35.2052C47.2034 35.2404 46.7817 35.7058 46.2635 36.2415C45.3149 37.2162 44.2696 37.989 43.4703 38.3051C42.794 38.5686 42.1352 38.7266 41.6873 38.7266C41.2569 38.7266 41.2217 38.7091 41.0197 38.3842C40.7123 37.9012 40.2907 37.6114 39.5528 37.3831C39.4738 37.3567 39.2015 36.9879 38.9468 36.5576C38.2968 35.4775 37.6556 34.6432 37.0495 34.0724C36.5225 33.5719 35.5826 32.8342 35.3455 32.7288C35.2752 32.6937 35.0995 32.5883 34.9502 32.4917C34.5374 32.2195 33.4219 31.7014 33.255 31.7014C33.1759 31.7014 33.0266 31.6399 32.9388 31.5697C32.8422 31.4994 32.6401 31.438 32.4996 31.438C32.3503 31.4292 32.1307 31.3765 32.0077 31.3062C31.8847 31.236 31.6212 31.1833 31.428 31.1745C31.226 31.1745 30.9185 31.113 30.7517 31.0428C30.576 30.9725 30.2071 30.9111 29.9436 30.9111C29.6713 30.9111 29.3726 30.8672 29.276 30.8145C29.1706 30.7618 28.6699 30.6915 28.1605 30.6476C27.6422 30.6037 27.0801 30.5335 26.9132 30.4808C26.7463 30.4281 26.4301 30.3842 26.2105 30.3842C25.9909 30.3842 25.622 30.3227 25.3849 30.2524C25.1477 30.1822 24.7876 30.1207 24.5856 30.1207C24.3923 30.1207 24.1815 30.0768 24.1376 30.0329C24.0849 29.9802 23.8477 29.9012 23.6106 29.8573C22.6707 29.6904 21.4849 29.1284 20.3255 28.2942C19.6667 27.8287 19.3593 27.5214 18.8586 26.8628C18.5073 26.4149 18.1911 25.9495 18.1647 25.8441C18.0945 25.5982 18.1823 25.4665 19.1134 24.2019C20.1762 22.7793 22.5653 20.3908 23.9707 19.3545C25.0072 18.5905 26.1227 17.8265 26.3862 17.7036C26.4565 17.6773 26.6409 17.5719 26.7815 17.4753C26.9308 17.3787 27.1064 17.2821 27.1767 17.247C27.247 17.2206 27.37 17.1679 27.4402 17.124C27.5895 17.0362 28.2132 16.7288 28.4064 16.6498C28.4767 16.6235 28.5997 16.562 28.6699 16.5181C28.7402 16.4742 28.9598 16.3688 29.153 16.2898C29.3463 16.2019 29.6098 16.079 29.7415 16.0088C29.8645 15.9473 30.0402 15.8946 30.1368 15.8946C30.2246 15.8946 30.374 15.8331 30.4618 15.7629C30.5584 15.6926 30.7165 15.6311 30.8219 15.6311C30.9273 15.6311 31.0503 15.5872 31.103 15.5346C31.1557 15.4819 31.3577 15.4028 31.5422 15.3677C31.8584 15.2974 32.0253 15.2535 32.7367 15.0077C32.8861 14.955 33.2198 14.8759 33.457 14.8408C33.7029 14.8057 34.0104 14.7354 34.1421 14.6827C34.2827 14.6213 34.5462 14.5774 34.7306 14.5774C34.9239 14.5774 35.2489 14.5247 35.4509 14.4544C35.7847 14.3403 37.0759 14.2261 38.0245 14.2261C38.2177 14.2261 38.4988 14.191 38.6393 14.1383C38.9116 14.0505 39.5528 14.0768 40.7474 14.2173ZM61.2923 26.8189C61.4153 26.9857 61.5207 27.1789 61.5207 27.2579C61.5207 27.3282 61.5558 27.4072 61.5909 27.4336C61.6612 27.4775 62.2146 28.5488 62.3463 28.8913C62.3727 28.9616 62.4342 29.0845 62.4781 29.1547C62.7152 29.585 62.8382 29.8573 62.8382 30.0153C62.8382 30.1119 62.8997 30.2349 62.97 30.2964C63.0402 30.3578 63.1017 30.4895 63.1017 30.5949C63.1017 30.7003 63.1632 30.8672 63.2335 30.9637C63.3037 31.0516 63.3652 31.236 63.3652 31.3589C63.3652 31.4819 63.4267 31.6575 63.497 31.7541C63.5672 31.8419 63.6287 32.0439 63.6287 32.1932C63.6287 32.3337 63.6902 32.5356 63.7605 32.6322C63.8307 32.7201 63.8922 32.9396 63.8922 33.1064C63.8922 33.2733 63.9537 33.5104 64.024 33.6333C64.0943 33.7563 64.1557 34.0109 64.1557 34.2041C64.1645 34.3973 64.2172 34.7135 64.2875 34.9067C64.3578 35.0999 64.4192 35.4336 64.4192 35.6531C64.4192 35.8726 64.4807 36.2854 64.551 36.5752C64.7355 37.3479 64.7355 41.9319 64.551 42.5378C64.4807 42.7749 64.4192 43.214 64.4192 43.5038C64.4105 43.8024 64.3578 44.1361 64.2875 44.259C64.2172 44.382 64.1645 44.6279 64.1557 44.8123C64.1557 44.9967 64.0943 45.2865 64.024 45.4621C63.9537 45.6289 63.8922 45.8748 63.8922 46.0066C63.8834 46.1295 63.8307 46.3315 63.7605 46.4544C63.6902 46.5774 63.6375 46.7793 63.6287 46.9023C63.6287 47.0252 63.5672 47.2008 63.497 47.2974C63.4267 47.3853 63.3652 47.5697 63.3652 47.6926C63.3652 47.8156 63.3037 47.9912 63.2335 48.0878C63.1632 48.1756 63.1017 48.3337 63.1017 48.439C63.1017 48.5356 63.0402 48.6937 62.97 48.7903C62.8997 48.8781 62.8382 49.045 62.8382 49.1416C62.8382 49.247 62.7767 49.3787 62.7064 49.4401C62.6362 49.5016 62.5747 49.5982 62.5747 49.6597C62.5747 49.7299 62.522 49.888 62.4517 50.0285C62.3814 50.1602 62.1882 50.5554 62.0125 50.9067C61.8456 51.2491 61.6173 51.6882 61.5119 51.8726C61.1166 52.5752 60.8707 52.9967 60.818 53.0406C60.7916 53.0669 60.5808 53.3831 60.3437 53.7431C58.666 56.2985 56.0836 58.8803 53.5276 60.5576C53.1674 60.7947 52.8512 61.0055 52.8249 61.0406C52.7897 61.0845 52.5526 61.2162 51.5513 61.787C51.4546 61.8485 51.0769 62.0329 50.7168 62.2085C50.3567 62.3929 49.9438 62.5861 49.8121 62.6564C49.6716 62.7266 49.5135 62.7881 49.4432 62.7881C49.3817 62.7881 49.2851 62.8496 49.2236 62.9198C49.1621 62.9901 49.0304 63.0516 48.9249 63.0516C48.8283 63.0516 48.6614 63.113 48.5736 63.1833C48.477 63.2535 48.3189 63.315 48.2223 63.315C48.1169 63.315 47.9588 63.3765 47.8709 63.4467C47.7743 63.517 47.5986 63.5785 47.4757 63.5785C47.3527 63.5785 47.1682 63.6399 47.0804 63.7102C46.9838 63.7804 46.8081 63.8419 46.6851 63.8419C46.5622 63.8507 46.3601 63.9034 46.2372 63.9736C46.1142 64.0439 45.9122 64.0966 45.7892 64.1053C45.6574 64.1053 45.4115 64.1668 45.2446 64.2371C45.0689 64.3073 44.7791 64.3688 44.5946 64.3688C44.4102 64.3776 44.1642 64.4303 44.0413 64.5005C43.9183 64.5708 43.5845 64.6235 43.2859 64.6322C42.996 64.6322 42.5568 64.6937 42.3197 64.764C41.8629 64.9045 40.8177 64.9396 40.6332 64.8254C40.5542 64.764 40.5717 64.6586 40.7474 64.3424C40.8616 64.1141 41.046 63.719 41.1515 63.4643C41.2569 63.2184 41.3974 62.8847 41.4589 62.7266C41.5291 62.5774 41.5818 62.3929 41.5818 62.3227C41.5818 62.2524 41.6433 62.0768 41.7136 61.9451C41.7839 61.8046 41.8454 61.5938 41.8454 61.4709C41.8454 61.3479 41.9068 61.0494 41.9859 60.8123C42.1879 60.1712 42.1967 57.3875 42.0035 56.7727C41.9244 56.5269 41.7312 55.9209 41.5731 55.4116C41.4237 54.9023 41.1163 54.068 40.9055 53.5411C40.0271 51.3633 39.7197 50.6169 39.6495 50.45C39.6055 50.3534 39.5001 50.0724 39.4211 49.8353C39.342 49.5894 39.2278 49.2733 39.1751 49.1328C38.9819 48.6586 38.8414 48.2634 38.7711 47.9473C38.736 47.7804 38.6657 47.4643 38.6042 47.2448C38.411 46.4544 38.2441 45.3479 38.2441 44.8913C38.2441 44.1361 38.5251 43.1262 39.0346 42.0109C39.3245 41.3962 39.3508 41.3699 40.0271 41.0977C40.3609 40.9659 40.642 40.7727 40.8704 40.5181C41.292 40.0351 41.5116 39.9561 42.3987 39.9561C43.1453 39.9561 43.8919 39.8156 45.0075 39.4467C46.7993 38.8671 48.477 37.6904 49.7418 36.1536C50.0141 35.8199 50.4006 35.3457 50.6026 35.0911C50.8134 34.8452 51.1296 34.4325 51.3053 34.169C51.8762 33.3523 52.2012 32.9045 52.6053 32.36C52.8161 32.0702 53.1147 31.6224 53.2728 31.3677C53.4222 31.1218 53.5715 30.9111 53.6154 30.9111C53.6857 30.9111 54.4059 29.9714 54.4059 29.8748C54.4059 29.5587 57.4187 27.3106 57.8403 27.3106C57.893 27.3106 58.0599 27.2579 58.2092 27.1965C58.7626 26.9594 59.3775 26.8013 59.9396 26.7398C60.2558 26.7047 60.5896 26.6432 60.6862 26.5993C60.9849 26.4852 61.0551 26.5115 61.2923 26.8189ZM17.6114 27.5477C18.3755 28.821 19.5701 30.1383 20.7822 31.0516C21.5991 31.6575 23.1363 32.4917 23.4437 32.4917C23.5315 32.4917 23.7775 32.5532 24.0058 32.6235C24.9632 32.922 25.3673 33.0186 25.6747 33.0186C25.8504 33.0186 26.2105 33.0801 26.474 33.1504C26.7375 33.2206 27.1592 33.2821 27.4139 33.2821C27.6686 33.2821 28.099 33.3435 28.3801 33.4138C28.6524 33.4841 29.0828 33.5455 29.3375 33.5455C29.5834 33.5455 29.8996 33.5807 30.0402 33.6333C30.1807 33.6772 30.5935 33.7563 30.9537 33.809C32.0077 33.9407 32.7367 34.09 33.0354 34.2129C33.1847 34.2832 33.3867 34.3359 33.4834 34.3359C33.58 34.3359 33.7732 34.3973 33.905 34.4676C34.0455 34.5378 34.2387 34.5993 34.3354 34.5993C34.432 34.5993 34.5901 34.6608 34.6779 34.731C34.7745 34.8013 34.8975 34.8628 34.959 34.8628C35.2225 34.8628 36.4083 35.6707 36.9441 36.2151C37.9103 37.1899 38.2792 37.8134 38.0157 38.0329C37.7873 38.2173 37.4535 38.9989 37.4535 39.3414C37.4535 39.6575 37.7961 40.5005 37.9718 40.6059C38.1387 40.7113 38.0772 40.9659 37.6731 41.7563C37.1286 42.8276 36.786 43.7058 36.5576 44.6015C36.3995 45.2426 36.3732 45.6026 36.3732 47.0252C36.3732 47.9385 36.4171 48.8518 36.4698 49.045C36.5137 49.2382 36.6279 49.6158 36.7069 49.8792C36.786 50.1427 36.8826 50.5203 36.9353 50.7135C36.988 50.9067 37.0583 51.0999 37.111 51.1438C37.1549 51.1965 37.19 51.3018 37.19 51.3809C37.19 51.4599 37.2691 51.7146 37.3745 51.9517C37.6468 52.6015 37.6819 52.6893 37.8927 53.2162C37.9893 53.4797 38.1123 53.7782 38.1562 53.8748C38.2968 54.1646 39.263 56.6586 39.4123 57.0801C39.869 58.4237 40.0008 59.214 40.0008 60.54C40.0008 61.9363 39.8076 62.9111 39.3332 63.9912C39.263 64.1405 39.2103 64.2898 39.2103 64.3249C39.2103 64.36 39.1312 64.5005 39.0258 64.641L38.8501 64.8957H37.8137C37.1461 64.8957 36.6279 64.8518 36.3468 64.764C36.1097 64.6937 35.6968 64.6322 35.4245 64.6322C35.1522 64.6322 34.7833 64.5708 34.6164 64.5005C34.4408 64.4303 34.1509 64.3688 33.9665 64.3688C33.782 64.36 33.5361 64.3073 33.4131 64.2371C33.2901 64.1668 33.053 64.1053 32.8861 64.1053C32.7192 64.1053 32.4996 64.0439 32.4118 63.9736C32.3151 63.9034 32.1131 63.8419 31.9726 63.8419C31.8233 63.8419 31.6212 63.7804 31.5334 63.7102C31.4368 63.6399 31.2611 63.5785 31.1381 63.5785C31.0152 63.5785 30.8307 63.517 30.7429 63.4467C30.6462 63.3765 30.4794 63.315 30.374 63.315C30.2686 63.315 30.1368 63.2535 30.0753 63.1833C30.0138 63.113 29.8909 63.0516 29.7942 63.0516C29.6976 63.0516 29.5132 62.9989 29.3902 62.9286C29.2584 62.8584 29.0915 62.7793 29.0213 62.753C28.951 62.7266 28.828 62.6652 28.7578 62.6213C28.6875 62.5774 28.3186 62.4017 27.9497 62.2173C27.572 62.0417 27.247 61.8573 27.2206 61.8134C27.1855 61.7695 27.1064 61.7343 27.0362 61.7343C26.9659 61.7343 26.799 61.6553 26.6673 61.5675C26.5355 61.4797 25.9734 61.1021 25.42 60.742C24.8666 60.3732 24.1376 59.8551 23.795 59.5916C23.4612 59.3282 22.9079 58.8891 22.5653 58.6257C21.3795 57.7124 19.7633 55.8595 18.2877 53.7431C17.9539 53.2601 17.6816 52.8123 16.9262 51.5038C16.7857 51.2579 16.4871 50.6432 16.1796 49.967C16.0391 49.6509 15.8634 49.2821 15.7932 49.1504C15.7229 49.0098 15.6702 48.8342 15.6702 48.7464C15.6702 48.6674 15.6087 48.5181 15.5384 48.4215C15.4682 48.3337 15.4067 48.1756 15.4067 48.0702C15.4067 47.9736 15.3452 47.8156 15.2749 47.719C15.2046 47.6311 15.1432 47.4292 15.1432 47.2887C15.1432 47.1394 15.0817 46.9462 15.0114 46.8584C14.9411 46.7618 14.8797 46.5774 14.8797 46.4456C14.8797 46.3139 14.8182 46.0944 14.7479 45.9626C14.6776 45.8221 14.6161 45.5763 14.6161 45.4182C14.6161 45.2601 14.5547 44.9879 14.4844 44.8123C14.4141 44.6454 14.3526 44.3293 14.3526 44.1097C14.3526 43.899 14.3087 43.6355 14.2472 43.5302C14.1945 43.4248 14.1155 42.7837 14.0803 42.1075C14.0452 41.4314 13.9662 40.5708 13.9047 40.1932C13.8168 39.6575 13.8168 39.4028 13.9047 38.9637C13.9574 38.6652 14.0101 38.2963 14.0101 38.1558C13.9925 37.3918 14.1243 36.0044 14.2297 35.6707C14.2999 35.4687 14.3526 35.1438 14.3526 34.9506C14.3526 34.7662 14.3966 34.5027 14.458 34.3622C14.5107 34.2305 14.581 33.9144 14.6161 33.6772C14.6513 33.4314 14.7303 33.1064 14.783 32.9484C15.029 32.2459 15.0729 32.079 15.1432 31.7629C15.1783 31.5785 15.2574 31.3765 15.3101 31.3238C15.3628 31.2711 15.4067 31.1482 15.4067 31.0428C15.4067 30.9374 15.4682 30.7793 15.5384 30.6827C15.6087 30.5949 15.6702 30.4456 15.6702 30.3578C15.6702 30.2612 15.7229 30.0856 15.7844 29.9627C15.9161 29.7168 16.1445 29.2074 16.2323 28.9791C16.2587 28.9089 16.3202 28.7859 16.3641 28.7157C16.408 28.6454 16.531 28.4083 16.6364 28.1888C16.733 27.9692 16.856 27.7321 16.8999 27.6619C16.9438 27.5916 16.9965 27.4599 17.0229 27.3721C17.1019 27.1086 17.4006 27.1965 17.6114 27.5477Z" fill="white"/>
<path d="M36.8386 18.8978C36.7156 18.9505 36.3203 19.0208 35.9602 19.0559C35.319 19.1261 34.7744 19.2403 34.2474 19.4247C34.1069 19.4774 33.8434 19.5389 33.6765 19.5564C33.5096 19.5828 33.3339 19.6355 33.2812 19.6706C33.2373 19.7057 33.0616 19.7672 32.9035 19.8023C32.7454 19.8374 32.5082 19.9165 32.3765 19.9867C32.2447 20.057 32.0954 20.1097 32.0339 20.1097C31.9812 20.1097 31.8231 20.1624 31.6826 20.2326C31.5508 20.3029 31.2961 20.417 31.1292 20.4873C30.3036 20.8298 29.6887 21.1459 28.8455 21.664C27.5543 22.4543 27.3786 22.5685 26.9658 22.9198C26.7725 23.0954 26.509 23.2974 26.3861 23.3764C25.9557 23.6486 25.0685 24.518 25.0685 24.6673C25.0685 24.7551 25.1651 24.9132 25.2881 25.0273L25.5077 25.2381L25.7976 24.9571C26.184 24.5795 26.5442 24.5795 26.9043 24.9483C27.405 25.4489 27.3874 25.8616 26.8428 26.1426C26.632 26.248 26.4036 26.3797 26.3334 26.4324C26.1401 26.5992 26.1928 26.9329 26.4651 27.2403L26.7198 27.5301L28.6083 27.5564C30.6812 27.5916 30.7779 27.5652 30.7779 27.0471C30.7779 26.529 30.7515 26.5202 29.7238 26.5202C28.6434 26.5202 28.5205 26.4587 28.6171 25.9494C28.6874 25.5981 29.1353 25.203 29.4779 25.203C29.5921 25.203 29.7678 25.1415 29.8644 25.0712C29.9522 25.001 30.1542 24.9395 30.3123 24.9395C30.5319 24.9395 30.6285 25.001 30.7779 25.2469C30.8833 25.4137 31.1204 25.7123 31.3049 25.9055C31.6914 26.3094 32.0691 26.3709 32.3589 26.0811C32.6049 25.8352 32.5785 25.5542 32.2711 25.1327C32.1305 24.9307 32.0076 24.7375 32.0076 24.7112C32.0076 24.6849 31.8934 24.4829 31.7441 24.2633C31.6035 24.0526 31.4806 23.8506 31.4806 23.8243C31.4806 23.7979 31.3312 23.5345 31.1468 23.2359C30.4177 22.0767 30.2772 21.6025 30.6725 21.6025C30.7691 21.6025 30.8921 21.5411 30.9535 21.4708C31.015 21.4006 31.1292 21.3391 31.217 21.3391C31.3049 21.3391 31.4191 21.2776 31.4806 21.2074C31.542 21.1371 31.6826 21.0756 31.788 21.0756C31.8934 21.0756 32.2008 20.9527 32.4731 20.8122C32.7454 20.6629 33.044 20.5487 33.1319 20.5487C33.2197 20.5487 33.3251 20.5136 33.3778 20.4609C33.4217 20.417 33.6413 20.338 33.8521 20.2941C34.0717 20.2414 34.4846 20.1448 34.7744 20.0658C35.0643 19.9867 35.5562 19.8813 35.8724 19.8462C36.1886 19.8023 36.5487 19.7321 36.6717 19.6882C36.9528 19.574 39.7108 19.451 40.0358 19.5301C40.2027 19.574 40.2642 19.6442 40.2642 19.7935C40.2642 20.1624 40.0709 20.259 39.2101 20.3116C38.1385 20.3819 37.8487 20.54 37.8575 21.0669C37.8662 21.3303 37.9277 21.4972 38.0858 21.6728C38.4284 22.0328 38.5075 22.2524 38.5075 22.7793C38.5075 23.1656 38.4723 23.2798 38.3493 23.3501C38.1298 23.4642 37.9804 23.3149 37.9804 22.99C37.9804 22.8583 37.8048 22.3841 37.594 21.9362C37.3744 21.4884 37.1372 20.8912 37.0582 20.6102L36.9088 20.1097H36.4345C36.0129 20.1097 35.9426 20.136 35.8548 20.3292C35.7757 20.4961 35.7845 20.6366 35.8724 20.9176C35.9426 21.1283 36.0305 21.3391 36.0656 21.4006C36.1095 21.4532 36.1359 21.6201 36.1183 21.7694L36.092 22.0328L35.7318 21.8748C35.5298 21.7869 35.1872 21.5235 34.9677 21.304L34.5636 20.9H33.8609C33.2109 20.9 33.1494 20.9176 32.9826 21.1283C32.7542 21.4269 32.7454 21.8133 32.9738 22.0416C33.1143 22.1821 33.2197 22.2085 33.5359 22.1645C33.8434 22.1206 33.9927 22.147 34.2298 22.2963C34.7656 22.6212 34.792 23.0339 34.3089 23.552C34.019 23.8594 33.9224 23.9033 33.6062 23.9033C33.3866 23.8945 33.1055 23.8155 32.9211 23.7101C32.6224 23.5257 32.6049 23.5257 32.4468 23.6662C32.3501 23.754 32.2711 23.9033 32.2711 23.9999C32.2711 24.237 32.6049 24.6761 32.7893 24.6761C32.8772 24.6761 33.0001 24.7375 33.0616 24.8078C33.1494 24.9132 33.3778 24.9395 34.0629 24.9395C34.9325 24.9395 34.9677 24.9307 35.1872 24.6936C35.3981 24.4741 35.5035 24.1228 35.6528 23.1569C35.6879 22.9461 35.7757 22.7793 35.9163 22.6914C36.0305 22.6124 36.1534 22.4807 36.1798 22.3841C36.2588 22.1294 36.3818 22.1821 36.4433 22.4982C36.5136 22.8407 37.0142 23.7716 37.3304 24.1404C37.55 24.4038 37.5676 24.4126 38.3581 24.4126C39.2101 24.4126 39.2365 24.4038 39.5176 24.0701C39.6669 23.9033 39.702 23.7013 39.7372 22.7529C39.7811 21.6816 39.7899 21.6464 39.9831 21.6201C40.3784 21.5586 40.4398 21.7255 40.4398 22.7793C40.4398 23.5257 40.475 23.8067 40.5804 23.956C40.7561 24.2107 41.0986 24.2019 41.3621 23.9296L41.5817 23.7189V21.6464V19.5828H41.8804C42.179 19.5828 42.3459 19.7584 42.2229 19.9604C42.1966 20.0043 42.1351 20.7244 42.1 21.5498C42.0648 22.3753 41.9858 23.2447 41.9243 23.4818C41.8189 23.9121 41.8189 23.9209 42.0736 24.1228C42.3722 24.3599 42.6094 24.3775 42.8817 24.1843C43.0486 24.0701 43.0749 23.9735 43.0749 23.3764C43.0837 23.0076 43.1364 22.4631 43.2067 22.1733C43.277 21.8835 43.3384 21.26 43.3384 20.7858C43.3384 19.8111 43.3824 19.7496 43.9621 19.934C44.3925 20.0745 44.7175 20.4434 44.7965 20.8649C44.858 21.1986 44.7263 21.6025 44.5594 21.6025C44.4979 21.6025 44.2871 21.6903 44.0763 21.7957C43.6283 22.0153 43.5141 22.2699 43.5141 23.0427C43.5229 23.8857 43.6371 24.237 44.0323 24.6058C44.3837 24.9395 44.3925 24.9395 45.1391 24.9395C45.7715 24.9395 45.9033 24.9659 45.9472 25.0888C46.1053 25.5103 46.36 25.7299 46.685 25.7299C47.1593 25.7299 47.414 25.3698 47.8093 24.1492C47.8532 24.0262 47.9762 23.7716 48.0904 23.5784C48.3012 23.2271 48.4593 22.8583 48.6174 22.3226C48.7579 21.8748 49.0478 21.7869 49.5397 22.0504C50.3653 22.4895 51.3228 23.1305 51.9288 23.675C52.3329 24.0262 52.3944 24.1141 52.3416 24.316C52.1923 24.9044 51.9025 24.9044 51.2613 24.2897C50.3039 23.394 49.9613 23.1832 49.4606 23.1832C48.8633 23.1832 48.512 23.4291 48.2661 24.0175C48.1606 24.2633 48.0816 24.5444 48.0816 24.6409C48.0816 24.7463 48.0201 24.9746 47.9498 25.1415C47.8181 25.4752 47.7742 26.406 47.8884 26.5641C47.9586 26.6607 48.187 26.81 48.4944 26.9681C48.9863 27.2227 49.3991 26.6695 49.3991 25.7299C49.3991 24.7727 49.8295 24.597 50.541 25.2557C51.1295 25.8001 51.1207 25.9582 50.4532 26.7397C50.0491 27.2139 49.9262 27.4159 49.9262 27.6355C49.9262 28.2677 50.6201 28.5048 50.9978 28.0043C51.1119 27.855 51.5687 27.3457 52.0167 26.8627C52.4558 26.3885 52.8247 25.9406 52.8247 25.8791C52.8247 25.6508 53.1849 25.361 53.3957 25.4137C53.993 25.563 54.4409 25.1766 54.2126 24.7112C54.1247 24.5444 54.0808 24.1228 54.072 23.4906C54.0632 22.9549 54.0018 22.2963 53.9227 22.0153C53.8524 21.7343 53.7909 21.4093 53.7909 21.2864C53.7909 21.0229 53.3518 20.5487 53.1146 20.5487C52.895 20.5487 52.4734 20.9878 52.4734 21.2161C52.4734 21.304 52.5349 21.4972 52.6052 21.6377C52.6754 21.7694 52.7369 21.945 52.7369 22.0153C52.7369 22.0855 52.7984 22.2787 52.8774 22.4456C53.1673 23.0427 52.8247 23.4115 52.3768 22.9812C52.1572 22.7705 51.27 22.1294 51.1998 22.1294C51.1822 22.1294 50.9099 21.9626 50.6025 21.7518C50.1106 21.4357 48.6437 20.6541 48.1255 20.4521C48.0289 20.417 47.7742 20.3029 47.5546 20.215C47.335 20.1184 46.8255 19.934 46.4127 19.8023C45.9999 19.6706 45.508 19.5125 45.3148 19.4423C45.1127 19.372 44.8492 19.3193 44.7175 19.3193C44.5857 19.3193 44.331 19.2579 44.1553 19.1876C43.9884 19.1173 43.681 19.0559 43.4702 19.0559C43.2682 19.0559 42.908 18.9944 42.6709 18.9242C42.3283 18.8188 41.7047 18.7924 39.6493 18.8012C38.0156 18.8012 36.9791 18.8363 36.8386 18.8978ZM46.9222 20.7419C47.133 20.8298 47.335 20.9966 47.3701 21.0932C47.4492 21.3215 47.3174 21.8045 46.9661 22.5422C46.5708 23.394 45.6485 23.9209 45.0864 23.6223C44.9985 23.5696 44.9195 23.4554 44.9195 23.3676C44.9195 23.192 45.2006 22.8319 45.3411 22.8319C45.5695 22.8319 45.9033 22.6036 46.0701 22.3314C46.2195 22.0943 46.2458 21.9362 46.2107 21.4445C46.1931 21.1195 46.1404 20.7683 46.1053 20.6541C46.0438 20.4697 46.0614 20.4521 46.2897 20.5136C46.4303 20.5487 46.7114 20.6453 46.9222 20.7419ZM29.1793 22.7617C29.2407 22.8232 29.2847 23.0778 29.2847 23.3325C29.2847 23.7628 29.2671 23.8155 29.0036 23.9735C28.5995 24.2194 28.2482 24.2019 27.9495 23.9121C27.5279 23.5081 27.607 23.3852 28.6259 22.8056C28.9421 22.63 29.0387 22.6212 29.1793 22.7617Z" fill="white"/>
<path d="M56.0572 40.641C55.495 41.1064 55.0646 41.4226 54.7836 41.5719C54.441 41.7475 54.318 41.9495 54.318 42.3622C54.318 42.6783 54.4937 42.854 54.7836 42.854C54.8626 42.854 55.2052 42.6344 55.5477 42.371C56.0835 41.967 56.2153 41.9056 56.3558 41.9846C56.5579 42.0988 56.5403 42.3183 56.268 42.9857C56.1714 43.2228 56.0396 43.6531 55.9781 43.9341C55.8464 44.5664 55.7234 44.6805 55.3457 44.5312C55.1876 44.4786 54.8363 44.3468 54.5464 44.2415L54.037 44.0658L53.8349 44.2678C53.6329 44.4786 53.5802 44.6015 53.6066 44.8913C53.6153 45.0845 54.441 45.4621 55.5917 45.7958C55.8815 45.8836 56.2416 45.9978 56.3822 46.0592C56.5315 46.1207 56.795 46.2349 56.9795 46.3139C57.1639 46.3929 57.3572 46.4544 57.4274 46.4544C57.4889 46.4544 57.6207 46.5422 57.7261 46.6564L57.9193 46.8584L57.7173 47.0515C57.6031 47.1569 57.4538 47.2447 57.3747 47.2447C57.3045 47.2447 56.8828 47.0691 56.4437 46.8496C56.0045 46.63 55.6092 46.4544 55.5653 46.4544C55.5214 46.4544 55.1261 46.2788 54.6957 46.0592C54.2565 45.8485 53.7471 45.6465 53.5626 45.6202C53.264 45.5675 53.1937 45.5938 53.0005 45.7958C52.7897 46.0153 52.7897 46.0241 52.939 46.3051C53.0444 46.4983 53.2376 46.6564 53.5539 46.7969C53.8086 46.911 54.2478 47.1042 54.5288 47.236C54.8099 47.3589 55.4423 47.6663 55.9342 47.9121C56.9619 48.4303 57.0322 48.5444 56.6281 49.124C56.4876 49.3172 56.2504 49.7387 56.1011 50.0548C55.9518 50.371 55.6971 50.7486 55.5302 50.8979C55.3721 51.0472 55.0646 51.416 54.8538 51.7146C54.564 52.1273 54.4234 52.2502 54.2829 52.2327C54.1599 52.2151 54.0897 52.1361 54.0721 51.9868C54.0106 51.4511 53.4485 50.933 52.9302 50.933C52.614 50.933 52.4735 50.7837 52.4735 50.45C52.4735 50.1163 52.0519 49.6333 51.6566 49.5192C51.2789 49.4138 50.6553 49.4138 50.4445 49.5279C50.1546 49.686 49.6891 50.2041 49.6276 50.4412C49.6012 50.5642 49.531 50.6696 49.487 50.6696C49.4343 50.6696 49.3992 50.7486 49.3992 50.8364C49.3992 51.0735 49.2762 51.1262 49.0215 51.012C48.8371 50.933 48.758 50.9418 48.5823 51.0735C48.4594 51.1701 48.3013 51.3457 48.2222 51.4687C48.0729 51.7233 47.9938 51.5828 49.531 53.7431C50.6113 55.2623 50.6553 55.3326 50.6992 55.7892C50.7255 56.0175 50.7694 56.2283 50.8134 56.2546C51.033 56.3863 52.2978 55.4379 52.2978 55.1394C52.2978 55.0867 52.1221 54.8671 51.9025 54.6476C51.6829 54.4368 51.4458 54.1383 51.3667 53.9802C51.2877 53.8221 51.112 53.5762 50.9803 53.4357C50.8397 53.2865 50.6201 52.9528 50.4884 52.6893C50.2688 52.2502 50.26 52.1888 50.3566 51.8112C50.4181 51.5565 50.5674 51.3106 50.7694 51.1174C51.1559 50.7574 51.2438 50.8364 51.2438 51.5565C51.2438 51.9517 51.2789 52.0834 51.4458 52.2327C51.6829 52.461 51.8235 52.4698 52.1748 52.2941C52.3154 52.2239 52.5262 52.1888 52.6316 52.2239C52.816 52.2678 52.8248 52.3029 52.7721 52.7859C52.737 53.1108 52.7545 53.3918 52.816 53.5499C52.9214 53.8046 53.3167 54.0944 53.5626 54.0944C53.6417 54.0944 54.1424 53.6728 54.6869 53.1459C55.6883 52.18 56.1362 51.5828 57.2166 49.7563C57.568 49.1591 57.8227 48.8254 57.9105 48.8254C58.2531 48.8254 58.7977 49.6421 58.7977 50.1602C58.7977 50.573 58.0247 51.0559 57.1991 51.1701C56.7774 51.2228 56.5842 51.4511 56.6193 51.8287L56.6457 52.1185L57.3923 52.1361C58.0862 52.1624 58.174 52.1449 58.6571 51.8726C59.0085 51.6882 59.3071 51.4248 59.5794 51.0735L59.9835 50.5642L59.9747 49.8441C59.9747 49.2908 59.9308 49.0713 59.799 48.8693C59.5618 48.5093 59.1666 48.1229 58.7274 47.8419C58.3234 47.5697 58.3234 47.596 58.7274 46.8057C58.8592 46.5422 58.9733 46.2524 58.9733 46.1734C58.9733 46.0944 59.0085 46.0065 59.0524 45.9802C59.0963 45.9539 59.1578 45.787 59.1929 45.6114C59.2193 45.4357 59.2808 45.225 59.3247 45.146C59.4213 44.944 59.5882 44.2941 59.676 43.7409C59.72 43.4862 59.799 43.1613 59.8517 43.0296C59.9044 42.9067 59.9395 42.5203 59.922 42.1866C59.8956 41.5806 59.8956 41.5806 59.6409 41.5806C59.3862 41.5806 59.3423 41.6333 59.1578 42.0988C59.0612 42.3446 59.0436 42.3446 58.5342 42.3095C58.1038 42.2832 57.9632 42.2217 57.7436 42.0197C57.4362 41.7211 57.4274 41.6772 57.6558 41.3874C58.095 40.8254 57.7349 40.3951 56.8301 40.3951C56.4261 40.3951 56.2943 40.439 56.0572 40.641ZM58.3585 43.4423C58.4815 43.5214 58.6044 43.6355 58.6396 43.6794C58.7538 43.8375 58.7186 44.2766 58.5693 44.742C58.4902 44.9791 58.4112 45.2338 58.3936 45.2865C58.3497 45.4357 57.9984 45.427 57.7963 45.2689C57.6997 45.1986 57.5328 45.1372 57.4274 45.1372C57.322 45.1372 57.1464 45.0581 57.0322 44.9703C56.8477 44.8298 56.8214 44.7244 56.8301 44.2766C56.8389 43.9341 56.8916 43.6619 56.9882 43.5214C57.1112 43.3194 57.1903 43.293 57.6382 43.293C57.972 43.293 58.218 43.3457 58.3585 43.4423Z" fill="white"/>
<path d="M54.1596 47.877C54.0894 47.9473 54.0542 48.2985 54.0542 48.8605C54.0455 49.4665 54.0103 49.8177 53.9225 49.967C53.7819 50.2129 53.7556 50.5642 53.8698 50.7398C53.9049 50.81 54.1069 50.8803 54.3002 50.9066C54.6515 50.9505 54.6867 50.933 55.0644 50.529C55.2839 50.2919 55.5035 49.9582 55.5562 49.7914C55.6089 49.6245 55.688 49.4489 55.7319 49.3962C55.8549 49.2733 55.8285 48.8693 55.6792 48.5005C55.4596 47.9473 54.4846 47.5521 54.1596 47.877Z" fill="white"/>
<path d="M47.7039 53.3742C47.4931 53.6025 47.5194 54.0504 47.7478 54.2699C48.0025 54.507 48.1782 54.4894 48.4768 54.2172C48.6788 54.0328 48.7052 53.945 48.6613 53.7167C48.6349 53.5586 48.5383 53.383 48.4593 53.3215C48.2485 53.1634 47.8708 53.1898 47.7039 53.3742Z" fill="white"/>
<path d="M48.8722 54.9988C48.7053 55.0778 48.6439 55.192 48.6263 55.4379C48.5912 55.8857 48.7229 56.0262 49.1884 56.0262C49.531 56.0262 49.5925 55.9999 49.6628 55.7979C49.7769 55.5081 49.6891 55.1744 49.4607 55.0164C49.2324 54.8583 49.1533 54.8583 48.8722 54.9988Z" fill="white"/>
<path d="M26.1226 38.4369C25.8943 38.5159 25.2443 39.1921 25.2443 39.3501C25.2443 39.5258 25.6395 39.8683 25.8328 39.8683C26.0436 39.8683 26.8253 39.0691 26.8253 38.8496C26.8253 38.5335 26.4564 38.3139 26.1226 38.4369Z" fill="white"/>
<path d="M19.1485 39.1306C19.0606 39.3677 19.087 40.8079 19.1924 41.0713C19.2451 41.2031 19.3242 41.6948 19.3681 42.1515C19.412 42.6081 19.4998 43.258 19.5701 43.6004C19.6491 43.9341 19.7458 44.4522 19.8073 44.742C19.86 45.0318 19.939 45.3041 19.9741 45.3567C20.0093 45.4007 20.0708 45.5851 20.1059 45.7519C20.141 45.9188 20.2025 46.112 20.2376 46.191C20.3167 46.3578 20.6593 47.2009 20.7998 47.5697C20.8613 47.7278 20.9667 47.921 21.037 48.0088C21.1072 48.0966 21.239 48.3073 21.318 48.4742C21.6782 49.1767 21.7923 49.3611 22.5829 50.5379C23.6281 52.0834 23.9356 52.4522 25.3761 53.9188C26.8341 55.3941 27.7389 56.079 29.1091 56.7728C29.7591 57.0977 30.1631 57.1592 30.3388 56.9484C30.4179 56.8518 30.4091 56.7815 30.3037 56.6235C30.2246 56.5181 30.1631 56.2547 30.1631 56.0351C30.1631 55.7102 30.2071 55.6048 30.4793 55.3589C30.8483 55.0077 31.1118 54.9813 31.4543 55.2623C31.7969 55.5434 31.9726 55.596 32.2185 55.4819C32.6577 55.2887 32.7104 54.5774 32.3678 53.5851C32.3151 53.4358 32.2273 53.1723 32.1746 53.0143C32.1219 52.865 32.0516 52.5752 32.0165 52.3732C31.9286 51.8639 31.6212 51.4599 31.3138 51.4599C30.9712 51.4599 30.7429 51.7409 30.8131 52.0483C30.8483 52.18 30.9097 52.4874 30.9537 52.7333C30.9976 52.9704 31.0591 53.3041 31.0942 53.4533C31.1381 53.708 31.1293 53.7431 30.9624 53.7431C30.857 53.7431 30.7077 53.708 30.6199 53.6641C30.5408 53.6202 30.2422 53.506 29.9611 53.4182C29.4868 53.2689 29.4341 53.2338 29.2672 52.8474L29.0828 52.4259L29.4253 52.0132C30.1983 51.0735 30.3564 50.6081 30.005 50.292C29.724 50.0285 29.3287 50.1076 28.9861 50.4676C28.5645 50.933 27.976 51.6707 27.6071 52.1976C27.124 52.8913 26.5004 53.4797 26.2456 53.4797C26.1227 53.4797 25.8943 53.348 25.7011 53.1811C25.4288 52.9264 25.3936 52.8474 25.4727 52.7157C25.5254 52.6279 25.745 52.5137 25.9646 52.461C26.799 52.2503 27.0362 51.9868 27.0625 51.2667C27.0713 50.9769 27.0889 50.7311 27.1064 50.7223C27.124 50.7047 27.3787 50.5554 27.6774 50.371C28.0902 50.1251 28.2571 49.9583 28.3976 49.6773C28.6436 49.1679 28.626 48.966 28.3186 48.5005C28.0199 48.0615 27.897 47.9473 27.1152 47.3765C26.6146 47.0252 26.4037 46.7179 26.6585 46.7179C26.7112 46.7179 26.7375 46.5686 26.72 46.3403L26.6936 45.9715L26.2983 45.9451C25.9119 45.9188 25.4112 46.0944 24.8842 46.4632C24.7612 46.551 24.2166 46.8408 23.6808 47.1131C23.1362 47.3941 22.6707 47.6487 22.6444 47.6926C22.5653 47.8244 22.293 47.7805 22.1349 47.6048C21.9592 47.4116 21.9768 47.1657 22.17 47.0604C22.3545 46.9462 25.218 45.5851 25.6571 45.3919C26.07 45.2162 26.2105 44.9177 26.0524 44.5664C25.8767 44.18 25.5342 44.1888 24.4538 44.6103C24.1903 44.7157 23.8741 44.8299 23.7511 44.865C23.5403 44.9352 22.5126 45.4007 21.7572 45.7695C21.5552 45.8661 21.3444 45.9275 21.2741 45.9012C21.1072 45.8397 20.7647 44.865 20.5978 43.9517C20.5626 43.7497 20.5012 43.539 20.4572 43.4687C20.4221 43.4072 20.3518 43.0911 20.3167 42.775C20.2816 42.4588 20.2113 42.0285 20.1586 41.8266C20.0971 41.5807 20.0883 41.3875 20.1498 41.2294C20.2289 41.0187 20.2728 41.0011 20.6505 41.0274L21.0721 41.0538L21.0897 42.3359L21.1072 43.618L21.3883 44.0483C21.5464 44.2854 21.7221 44.5049 21.766 44.5401C21.9065 44.6367 22.6707 44.6279 22.8552 44.5225C22.9342 44.4786 23.2592 44.3381 23.5666 44.2064C24.1815 43.9605 24.9457 43.5038 25.2443 43.2053C25.4551 42.9945 25.4727 42.6784 25.2882 42.3271C25.174 42.1076 25.095 42.0637 24.8227 42.0637C24.6119 42.0637 24.3747 42.1427 24.1639 42.292C23.3646 42.8364 22.6883 42.9945 22.5214 42.6872C22.3369 42.3359 22.4863 41.0889 22.741 40.843C22.7937 40.7991 23.2065 40.7201 23.6633 40.6762C24.12 40.6235 24.6031 40.5445 24.7436 40.4918C24.9545 40.4127 24.9808 40.3513 24.9808 40.0088C24.9808 39.719 24.9369 39.5873 24.8315 39.5346C24.6997 39.4731 21.1424 39.4819 20.1937 39.5434C20.0005 39.5609 19.9302 39.517 19.9039 39.3853C19.8863 39.2887 19.8248 39.157 19.7809 39.0955C19.6491 38.9462 19.21 38.9638 19.1485 39.1306ZM26.1315 48.2108C26.6936 48.4654 26.8429 48.6059 26.8078 48.843C26.7902 49.0099 26.7112 49.0538 26.3862 49.0977C25.8679 49.1767 25.5078 49.3172 25.2707 49.5455C24.9632 49.8353 25.0159 50.1163 25.4288 50.4852C25.8767 50.8803 25.8592 51.1526 25.3673 51.2492C24.7436 51.3633 24.3923 51.2492 23.8916 50.7398C23.6281 50.4852 23.3558 50.1339 23.2768 49.9671C23.2065 49.8002 23.0923 49.5895 23.0308 49.5016C22.9342 49.3699 22.9606 49.3084 23.268 49.045C23.4612 48.8869 23.8301 48.641 24.0849 48.5005C24.3484 48.3688 24.5943 48.202 24.647 48.1405C24.7963 47.9736 25.6923 48.0088 26.1315 48.2108ZM28.9159 54.1207C29.2936 54.472 29.0476 55.3238 28.5645 55.3238C28.3625 55.3238 27.9497 55.1131 27.8003 54.9462C27.5632 54.6564 28.2132 53.7695 28.5645 53.8924C28.6436 53.9188 28.8017 54.0241 28.9159 54.1207Z" fill="white"/>
<path d="M25.2442 55.0427C25.0246 55.2183 24.9455 55.6223 25.0773 55.8682C25.1388 55.9911 25.2705 56.0262 25.6219 56.0262C26.1577 56.0262 26.2982 55.9209 26.2982 55.5433C26.2982 55.2008 26.2192 55.1042 25.9293 55.0339C25.8063 54.9988 25.6394 54.9549 25.578 54.9285C25.5077 54.9022 25.3584 54.9461 25.2442 55.0427Z" fill="white"/>
<path d="M65.6401 16.799C65.3678 17.001 65.0604 17.2293 64.9462 17.2996C64.8408 17.3698 64.5861 17.5542 64.3841 17.7035C64.1908 17.844 63.8395 18.0899 63.6199 18.2392C63.3915 18.3885 62.9523 18.7573 62.6361 19.0559C61.6875 19.9428 61.5821 20.5136 62.1355 21.6377C62.4868 22.349 62.9699 22.911 63.4881 23.2183C64.0239 23.5345 64.7793 23.5345 65.3678 23.2359C66.2638 22.7705 68.9164 20.8824 69.0745 20.6014C69.1799 20.3907 69.1711 20.3468 68.9252 19.9955C68.5475 19.4774 68.3016 19.4774 67.6252 19.9779C67.3354 20.1975 66.9137 20.4961 66.6854 20.6453C66.4482 20.7946 66.2638 20.9527 66.2638 20.9878C66.2638 21.0317 66.0969 21.1459 65.8948 21.2513C65.684 21.3479 65.3327 21.5498 65.1043 21.6991C64.4016 22.1645 63.778 22.0153 63.4266 21.3127C63.1631 20.7858 63.2773 20.3731 63.8307 19.9077C64.0854 19.6969 64.4543 19.4071 64.6564 19.2666C64.8672 19.1261 65.4293 18.7397 65.9212 18.3973C66.4131 18.0636 66.8698 17.6947 66.9401 17.5894C67.0631 17.4049 67.0543 17.361 66.9225 17.1415C66.7029 16.799 66.334 16.4214 66.2286 16.4302C66.1759 16.4302 65.9124 16.597 65.6401 16.799Z" fill="white"/>
<path d="M11.4977 17.3611C11.3308 17.5367 11.1903 17.7387 11.1903 17.8265C11.1903 18.0197 11.6031 18.3886 12.6835 19.1701C14.0713 20.1712 14.124 20.2151 13.9835 20.2942C13.9132 20.3293 13.6936 20.3293 13.4916 20.2766C13.0173 20.1712 9.99571 20.0307 9.7322 20.101C9.52139 20.1536 8.99437 20.8474 8.99437 21.0845C8.99437 21.2074 9.60923 21.6641 12.2794 23.517C13.7639 24.5444 13.9747 24.6761 14.1064 24.6761C14.2733 24.6761 14.7037 24.0439 14.7037 23.798C14.7037 23.5521 14.4841 23.3589 13.2632 22.5334C12.7011 22.1558 12.2443 21.7782 12.2443 21.708C12.2443 21.5938 12.499 21.585 14.2558 21.6289L16.2672 21.6729L16.4868 21.4445C16.8381 21.0669 17.005 20.742 16.9435 20.5752C16.9172 20.4873 16.6713 20.2766 16.399 20.1097C16.1267 19.9429 15.5294 19.5214 15.0639 19.1877C14.2909 18.6257 13.2544 17.9056 12.3058 17.2733C12.1126 17.1416 11.9193 17.0362 11.8754 17.0362C11.8403 17.0362 11.6734 17.1767 11.4977 17.3611Z" fill="white"/>
<path d="M69.4257 22.911C69.0128 23.0954 68.3014 23.4204 67.8446 23.6399C66.8433 24.1229 66.0528 24.4829 65.3237 24.8078C65.0251 24.9396 64.7616 25.0888 64.744 25.1503C64.6825 25.3084 65.1217 26.1602 65.2974 26.2129C65.3764 26.2392 65.6838 26.1426 65.9825 25.9933C66.2723 25.8528 66.5359 25.7299 66.571 25.7299C66.5973 25.7299 66.9838 25.5543 67.423 25.3347C68.5824 24.7639 68.6703 24.8517 67.9588 25.888C67.748 26.1953 67.5811 26.4676 67.5811 26.4939C67.5811 26.5202 67.4669 26.6871 67.3176 26.8715C67.1771 27.0559 67.0541 27.2315 67.0541 27.2579C67.0541 27.2842 66.8784 27.5652 66.6588 27.8902C66.2636 28.461 66.1933 28.6629 66.3426 28.7508C66.3865 28.7771 66.448 28.9088 66.4832 29.0405C66.571 29.4006 66.8696 29.6904 67.0892 29.6289C67.2825 29.5762 67.6426 29.4182 68.8547 28.8474C69.2412 28.6629 69.7946 28.4083 70.0844 28.2766C71.7797 27.5038 72.2101 27.2755 72.377 27.0735C72.5526 26.8627 72.5614 26.8539 72.4033 26.5554C72.1925 26.1251 72.0608 25.9933 71.8851 25.9933C71.7972 25.9933 71.1473 26.2656 70.4358 26.6081C69.2061 27.1964 68.8108 27.3194 68.8108 27.1349C68.8108 27.091 69.2851 26.3446 69.8648 25.4665C70.4533 24.5971 70.9452 23.8243 70.9716 23.7541C71.0946 23.4467 70.6027 22.5685 70.3216 22.5685C70.2425 22.5685 69.8385 22.7266 69.4257 22.911Z" fill="white"/>
<path d="M8.51153 23.7102C7.7737 23.877 7.05345 24.5356 6.61427 25.4489C6.35076 25.9846 6.32441 26.1075 6.32441 26.8276C6.32441 27.4862 6.35954 27.6882 6.53521 28.057C7.03588 29.0757 8.35342 29.8924 9.80272 30.0944C10.1101 30.1383 10.8568 29.9538 11.1905 29.7607C11.2608 29.7167 11.4013 29.6465 11.498 29.6026C12.025 29.3655 12.6662 28.3293 12.8682 27.3721C13 26.7749 12.8682 25.8792 12.5783 25.405C12.306 24.9571 11.498 24.2722 10.9007 23.9824C10.4439 23.7716 10.1892 23.7189 9.55678 23.6838C9.12638 23.6663 8.66085 23.675 8.51153 23.7102ZM9.60948 25.0801C10.4 25.3699 10.7162 25.5455 11.0763 25.8968C11.7878 26.6081 11.779 27.5038 11.0588 28.1624C10.6547 28.5312 10.6284 28.54 10.0399 28.54C9.7061 28.54 9.36354 28.5049 9.2757 28.461C9.19665 28.4171 8.95071 28.2941 8.73112 28.1888C7.72978 27.7058 7.35209 26.8276 7.75614 25.9495C7.94059 25.5367 8.16897 25.3172 8.62571 25.1064C9.03854 24.9132 9.12638 24.9132 9.60948 25.0801Z" fill="white"/>
<path d="M72.5879 28.9791C72.5176 29.023 72.377 29.0669 72.2804 29.0669C72.1838 29.0669 71.9906 29.1284 71.85 29.1986C71.7183 29.2689 71.5163 29.3303 71.4108 29.3303C71.3142 29.3391 71.1298 29.3918 71.0068 29.4621C70.8838 29.5323 70.6994 29.585 70.594 29.5938C70.4886 29.5938 70.269 29.6465 70.1109 29.7167C69.9528 29.7782 69.5839 29.9011 69.294 29.989C69.0041 30.068 68.6352 30.1909 68.4771 30.2612C68.319 30.3314 68.117 30.3841 68.0292 30.3841C67.9413 30.3841 67.6866 30.4632 67.4582 30.5598C67.1508 30.7003 67.0542 30.7881 67.0542 30.9461C67.0542 31.0515 67.0805 31.1745 67.1244 31.2096C67.1596 31.2447 67.2298 31.4204 67.2738 31.596C67.344 31.8419 67.4231 31.9297 67.5812 31.9472C67.7744 31.9824 68.4596 31.8067 68.9866 31.5872C69.1095 31.5433 69.3467 31.473 69.5136 31.4379C69.6805 31.394 69.9615 31.3238 70.1284 31.2623C70.8487 31.0164 70.9717 30.9813 71.1825 30.9374C71.3054 30.911 71.525 30.8408 71.6831 30.7705C71.8325 30.7003 72.0257 30.6476 72.1223 30.6476C72.2102 30.6388 72.377 30.5861 72.5 30.5159C72.623 30.4456 72.825 30.3929 72.9568 30.3841C73.2291 30.3841 73.4662 30.1822 73.4662 29.9363C73.4662 29.8485 73.3784 29.5762 73.273 29.3303C73.0797 28.8825 72.8865 28.7859 72.5879 28.9791Z" fill="white"/>
<path d="M4.98017 30.4544C4.87477 30.5158 4.67275 31.5345 4.74302 31.6047C4.83085 31.7013 5.47206 31.8945 5.88489 31.9648C6.13083 31.9999 6.42069 32.0789 6.51731 32.1316C6.61393 32.1843 6.82473 32.2282 6.97405 32.2282C7.12338 32.2282 7.38688 32.2897 7.56256 32.36C7.72944 32.4302 7.98417 32.4917 8.11592 32.4917C8.24768 32.4917 8.5024 32.5532 8.66929 32.6234C8.84496 32.6937 9.09969 32.7551 9.24023 32.7551C9.38076 32.7551 9.64427 32.8166 9.81116 32.8868C9.98683 32.9571 10.2943 33.0186 10.4875 33.0186C10.874 33.0186 10.8828 33.0098 11.1111 32.2458C11.1726 32.0438 11.1902 31.8506 11.1551 31.8155C11.0409 31.7013 10.4348 31.5081 10.0044 31.4467C9.76724 31.4115 9.47738 31.3413 9.37198 31.2798C9.26658 31.2184 9.06455 31.1744 8.92402 31.1744C8.78348 31.1744 8.49362 31.113 8.2916 31.0427C8.08957 30.9725 7.79093 30.911 7.64161 30.911C7.49229 30.9022 7.2727 30.8495 7.14973 30.7793C7.02676 30.709 6.80717 30.6563 6.65784 30.6476C6.50852 30.6476 6.23623 30.5861 6.06934 30.5158C5.72678 30.3753 5.15585 30.3402 4.98017 30.4544Z" fill="white"/>
<path d="M73.2468 31.5961C71.982 32.3249 71.6043 32.5357 70.5151 33.1153C70.032 33.3699 69.6104 33.5982 69.5577 33.6334C69.5138 33.6773 69.1976 33.8529 68.855 34.0285C67.9591 34.5115 67.9327 34.5379 67.9942 35.0735C68.0205 35.3194 68.1259 35.6443 68.2226 35.7936C68.4158 36.0834 68.653 36.1537 70.1023 36.3644C70.4097 36.3996 70.7347 36.4786 70.8225 36.5313C70.9191 36.5752 71.1212 36.6191 71.2705 36.6191C71.4286 36.6191 71.7887 36.6718 72.0874 36.742C73.5454 37.0845 74.538 37.2338 74.6522 37.1284C74.7049 37.0845 74.7312 36.8299 74.7224 36.5576C74.6873 35.9341 74.4589 35.6619 73.9495 35.6531C73.7562 35.6443 73.4225 35.6092 73.2029 35.5565C72.9833 35.5038 72.5002 35.4336 72.1225 35.3897C71.7536 35.3458 71.3671 35.2667 71.2705 35.214C71.1826 35.1701 70.9367 35.1262 70.7259 35.1262C70.1462 35.1262 70.0496 35.0121 70.4536 34.7838C70.6381 34.6696 70.8489 34.5554 70.9191 34.5203C72.9482 33.4753 73.8441 32.966 73.9583 32.7816C74.0198 32.6762 74.0373 32.4127 74.0022 32.0527C73.9495 31.5258 73.9319 31.4819 73.7299 31.4643C73.6069 31.4555 73.3961 31.5082 73.2468 31.5961Z" fill="white"/>
<path d="M4.48835 32.9923C4.4093 33.1767 4.3039 33.6597 4.25998 34.0724C4.20728 34.4852 4.10187 35.214 4.02282 35.697C3.94377 36.18 3.86472 36.8123 3.83837 37.1109L3.79445 37.6465L4.18093 37.7431C4.50592 37.831 4.58497 37.8222 4.77821 37.6817C4.96267 37.5499 5.00659 37.427 5.05929 36.9177C5.13834 36.1625 5.24374 36.0571 5.92008 36.1361C6.18359 36.1712 6.47345 36.2327 6.5525 36.2766C6.63156 36.3205 6.86871 36.3556 7.07952 36.3556C7.29033 36.3556 7.73829 36.4083 8.07207 36.4786C8.41463 36.5488 9.00313 36.6542 9.38961 36.7069L10.0835 36.8123L10.2943 36.5752C10.4612 36.382 10.4876 36.2503 10.47 35.8814L10.4436 35.4336L9.94298 35.3721C9.66191 35.337 9.35448 35.2667 9.26664 35.214C9.17002 35.1701 8.89773 35.1262 8.66936 35.1262C8.4322 35.1262 8.02815 35.0735 7.76464 35.0033C7.50114 34.9418 7.01804 34.8628 6.69304 34.8364C6.36805 34.8013 5.97279 34.7135 5.82346 34.6345L5.54239 34.494L5.59509 33.7651C5.64779 32.9133 5.58631 32.8167 4.98902 32.7201C4.63768 32.6586 4.62889 32.6674 4.48835 32.9923Z" fill="white"/>
<path d="M9.34554 38.2875C8.86244 38.5685 4.33888 40.7464 4.25983 40.7464C4.11051 40.7464 3.8997 41.1854 3.8997 41.5104C3.8997 41.9319 4.04024 42.4236 4.18078 42.5202C4.24226 42.5554 4.40037 42.5905 4.53212 42.5905C4.66387 42.5905 4.78685 42.6256 4.82198 42.6695C4.84833 42.7134 4.99765 42.7749 5.15576 42.81C5.30508 42.8452 5.71791 42.9593 6.05169 43.0647C6.39425 43.1789 7.07937 43.3984 7.58882 43.5565C8.09827 43.7058 8.6692 43.8902 8.86244 43.9516C9.05568 44.0131 9.34554 44.0921 9.49487 44.1273C9.65297 44.1624 9.80229 44.2239 9.82864 44.2678C10.0131 44.5576 10.4874 44.1097 10.4874 43.6531C10.4874 43.1876 10.2327 42.8979 9.65297 42.7222C8.89758 42.4851 8.91515 42.5027 8.90636 41.3611C8.89758 40.8078 8.89758 40.2985 8.89758 40.237C8.90636 40.1756 9.11717 40.0263 9.38068 39.9033C9.64419 39.7892 9.92526 39.5784 10.0131 39.4467C10.2854 39.0252 10.1097 38.1031 9.74959 38.1119C9.69689 38.1119 9.51243 38.1909 9.34554 38.2875ZM7.57125 40.9396C7.72936 41.0976 7.70301 41.8441 7.53612 41.9846C7.42193 42.0724 7.31653 42.0724 6.9037 41.9407C6.00777 41.6597 5.97263 41.6421 6.10439 41.484C6.21858 41.3435 7.19356 40.8518 7.37801 40.843C7.42193 40.8342 7.50977 40.8781 7.57125 40.9396Z" fill="white"/>
<path d="M68.433 38.7881C68.3979 38.8145 68.3715 39.8243 68.3715 41.0274C68.3715 43.0911 68.3803 43.214 68.5472 43.3809C68.7756 43.6092 69.0742 43.6004 69.3729 43.3721L69.6012 43.1965V41.6773C69.6012 40.6235 69.6364 40.1317 69.7066 40.0614C69.8647 39.9034 70.8749 39.9209 71.0066 40.0878C71.0857 40.1844 71.112 40.5971 71.1032 41.5807L71.0857 42.933L71.3492 43.0647C71.683 43.2404 71.8235 43.2404 72.1485 43.0735L72.412 42.933V41.5367C72.412 40.2459 72.4208 40.1317 72.5789 40.0439C72.8073 39.9209 73.2289 39.9297 73.3606 40.0614C73.4309 40.1317 73.466 40.6235 73.466 41.686V43.2052L73.6944 43.2931C74.0018 43.416 74.5552 43.3984 74.6782 43.2755C74.7572 43.1965 74.7836 42.5905 74.7836 41.0889C74.7836 39.9385 74.7572 38.9462 74.7309 38.8672C74.687 38.7442 74.3268 38.7267 71.5863 38.7267C69.8823 38.7267 68.4594 38.753 68.433 38.7881Z" fill="white"/>
<path d="M68.1699 44.4082C68.1435 44.4521 68.0469 44.7068 67.9503 44.9878L67.7658 45.4884L68.003 45.7079C68.1435 45.8396 68.3455 45.9274 68.5036 45.9274C68.6442 45.9362 68.8638 45.9889 68.9867 46.0592C69.1097 46.1294 69.3469 46.1821 69.5225 46.1909C69.6982 46.1909 69.9354 46.2611 70.0408 46.349C70.2252 46.4982 70.234 46.5334 70.1374 46.8319C70.032 47.1481 69.6455 47.5081 69.4084 47.5081C69.3469 47.5081 69.2151 47.5696 69.1273 47.6398C69.0307 47.7101 68.8726 47.7716 68.7672 47.7716C68.6618 47.7716 68.5036 47.833 68.407 47.9033C68.3192 47.9735 68.1699 48.035 68.082 48.035C67.8712 48.035 67.4408 48.2633 67.2125 48.4917C67.0456 48.6585 66.9314 48.9571 66.8172 49.5454C66.7557 49.8616 66.9577 49.9406 67.4408 49.8001C67.6429 49.7474 67.9239 49.6596 68.0645 49.6157C68.6793 49.4313 69.1361 49.2381 69.4084 49.0273C69.7334 48.7814 69.9969 48.8166 69.9266 49.0888C69.8827 49.2732 70.1286 49.8089 70.4273 50.125C70.9894 50.7485 72.0522 50.8539 72.7374 50.3621C73.115 50.0899 73.3434 49.6772 73.5981 48.7814C73.6772 48.4917 73.7826 48.1316 73.8265 47.9823C73.8704 47.8418 73.9407 47.5432 73.9846 47.3237C74.0373 47.1129 74.1252 46.7441 74.1779 46.5158C74.2833 46.1294 74.2745 46.0767 74.1164 45.9187C74.0198 45.8221 73.7475 45.7079 73.5015 45.664C73.0184 45.5762 72.4387 45.4357 71.9732 45.2864C71.8063 45.2337 71.5076 45.1634 71.3144 45.1283C70.8664 45.0405 70.2867 44.8912 69.7773 44.7331C69.5577 44.6629 69.2942 44.6102 69.1976 44.6102C69.0922 44.6102 68.8638 44.5487 68.6969 44.4785C68.3368 44.3292 68.2226 44.3204 68.1699 44.4082ZM72.3509 46.9285C72.6407 47.0603 72.6759 47.1042 72.6759 47.4027C72.6671 47.5784 72.6144 47.8243 72.5441 47.9472C72.4738 48.0701 72.4211 48.2809 72.4124 48.4214C72.4124 48.799 72.1049 49.0888 71.7009 49.0888C71.209 49.0888 71.0948 48.9219 71.0948 48.2282C71.1036 47.8857 71.1563 47.552 71.2266 47.4203C71.2968 47.2974 71.3495 47.1129 71.3583 47.0076C71.3583 46.6827 71.7009 46.6563 72.3509 46.9285Z" fill="white"/>
<path d="M10.0925 44.7858C9.99587 44.8298 9.74115 44.8649 9.52156 44.8649C9.30197 44.8737 8.90671 44.9264 8.6432 44.9966C8.37969 45.0581 7.89659 45.1371 7.5716 45.1635C7.23782 45.1986 6.89526 45.2601 6.80742 45.3127C6.7108 45.3566 6.44729 45.4006 6.21013 45.4006C5.85001 45.4006 4.55003 45.6816 4.45341 45.7869C4.43584 45.8045 4.45341 46.068 4.48855 46.3753L4.55881 46.9373L5.19123 46.9637C5.5865 46.9812 6.00811 46.9373 6.28919 46.8495C6.53513 46.7793 6.93039 46.7178 7.15877 46.7178C7.37836 46.7178 7.73848 46.6563 7.94051 46.5861C8.14253 46.5158 8.52023 46.4543 8.77495 46.4543C9.02968 46.4543 9.40737 46.3929 9.6094 46.3226C9.81142 46.2524 10.1276 46.1909 10.3033 46.1909C10.7073 46.1821 11.0148 45.8309 10.8567 45.5674C10.7952 45.4796 10.7513 45.3215 10.7513 45.2161C10.7513 44.7771 10.4965 44.6102 10.0925 44.7858Z" fill="white"/>
<path d="M9.23147 47.5609C9.19634 47.596 9.16999 47.877 9.16999 48.1756V48.7376L9.52133 48.9132C9.70579 49.0098 9.9693 49.0889 10.1011 49.0889C10.6105 49.0889 11.1112 49.9407 10.9794 50.5817C10.8477 51.2667 9.77606 51.9341 8.48487 52.1361C7.86123 52.2327 7.14097 51.6619 7.00922 50.9505C6.93895 50.5817 7.1234 49.9846 7.343 49.8704C7.58015 49.7387 7.53624 49.4665 7.18489 48.9923C6.93017 48.641 6.83355 48.5707 6.67544 48.6059C6.12207 48.7727 5.52479 50.0109 5.65654 50.7574C5.88491 52.0307 6.34166 52.742 7.27273 53.2425C7.65042 53.4533 7.79096 53.4796 8.55513 53.4796C9.83754 53.4796 10.6632 53.1547 11.4274 52.338C12.0861 51.6355 12.2443 51.2579 12.2443 50.4237C12.2443 49.1415 11.6206 48.1141 10.5754 47.6926C10.224 47.5521 9.32809 47.4643 9.23147 47.5609Z" fill="white"/>
<path d="M66.4394 51.0822C66.0793 51.3194 65.7367 51.6618 65.7367 51.776C65.7367 51.8375 65.684 51.9253 65.6138 51.9604C65.5523 51.9955 65.3766 52.3029 65.2185 52.6278C64.9901 53.1284 64.9462 53.3303 64.9462 53.8923C64.9462 54.709 65.1307 55.0339 65.8685 55.5345C66.1496 55.7277 66.2989 55.7628 66.8259 55.7628C67.1685 55.754 67.5374 55.7101 67.6428 55.6487C67.7482 55.5872 68.2576 55.1393 68.7671 54.6388C69.5927 53.8397 69.7333 53.7343 69.9704 53.7606C70.3481 53.7957 70.4535 53.9889 70.3218 54.428C70.1549 54.9813 69.7772 55.3237 69.3556 55.3237C68.9691 55.3237 68.7934 55.4994 68.5563 56.0877C68.4509 56.3336 68.4596 56.4039 68.5826 56.5971C68.7144 56.7903 68.7846 56.8166 69.2677 56.8166C70.19 56.8166 70.7434 56.3512 71.3582 55.0866C71.7886 54.1997 71.692 53.181 71.1211 52.6717C70.8839 52.4522 70.2076 52.1624 69.9265 52.1624C69.4698 52.1624 69.0657 52.417 68.082 53.3479C67.2739 54.1031 67.0543 54.27 66.8259 54.27C66.0529 54.27 66.0881 53.0142 66.8874 52.4346C67.0982 52.2765 67.2826 52.2239 67.5901 52.2326C68.0468 52.2414 68.1522 52.1624 68.3894 51.6267C68.5299 51.3106 68.5299 51.3018 68.3367 51.1174C68.1698 50.9593 68.038 50.933 67.3968 50.9417C66.8698 50.9417 66.5975 50.9857 66.4394 51.0822Z" fill="white"/>
<path d="M10.9093 54.0416C10.3208 54.3402 9.30193 55.2447 9.09113 55.6574C8.92424 55.9648 8.731 56.6585 8.731 56.922C8.731 57.686 9.2668 58.8451 9.908 59.4335C10.4877 59.9692 10.9884 60.1536 11.858 60.1536C12.2708 60.1536 12.6661 60.1184 12.7539 60.0658C12.8329 60.0219 13.0965 59.8989 13.3336 59.7935C13.8518 59.574 13.9045 59.5389 14.5282 58.9242C15.2309 58.2392 15.4065 57.8265 15.4065 56.8781C15.4065 56.0526 15.3275 55.7979 14.8093 54.99C14.616 54.6914 14.3086 54.3929 13.966 54.1558L13.4302 53.7869L12.464 53.7606C11.5154 53.743 11.4891 53.743 10.9093 54.0416ZM13.1404 55.2359C14.01 55.6223 14.3613 56.6497 13.8782 57.4225C13.3951 58.1865 12.5431 58.6871 11.7086 58.6958C11.208 58.7046 11.085 58.6695 10.7688 58.45C10.0925 57.9845 9.92557 56.9132 10.4262 56.2546C10.8215 55.7365 11.9634 55.0954 12.5167 55.0691C12.6485 55.0603 12.9208 55.1393 13.1404 55.2359Z" fill="white"/>
<path d="M63.3739 55.8507C63.0313 56.3512 63.0489 56.5971 63.4266 56.8342C63.5583 56.922 63.9097 57.1679 64.1996 57.3875C64.4894 57.607 64.8935 57.8617 65.1043 57.9583C65.3063 58.0637 65.4732 58.1778 65.4732 58.2217C65.4732 58.2568 65.6576 58.4149 65.8948 58.5642C66.1232 58.7135 66.615 59.0472 66.984 59.3194C67.3529 59.5829 67.7921 59.8551 67.9589 59.9253C68.2488 60.0395 68.2752 60.0395 68.4333 59.8639C68.6001 59.6707 68.8988 59.0735 68.8988 58.933C68.8988 58.8891 68.767 58.775 68.6177 58.6784C68.4596 58.573 68.0731 58.3183 67.7569 58.0988C67.4407 57.8792 66.9927 57.5543 66.7468 57.3963C66.5096 57.2294 66.088 56.9396 65.8245 56.7552C64.4016 55.7541 63.8746 55.4116 63.7779 55.4116C63.7165 55.4116 63.5408 55.6048 63.3739 55.8507Z" fill="white"/>
<path d="M61.0635 58.7924C60.8791 58.9505 60.7298 59.17 60.7298 59.2666C60.7298 59.372 60.8967 59.5828 61.1338 59.776C61.4939 60.0745 62.4601 60.8824 63.2331 61.5323C64.6912 62.7705 64.6473 62.6475 63.9182 63.4466C63.6635 63.7277 63.4527 63.9911 63.4527 64.035C63.4527 64.1404 64.1817 64.8078 64.2871 64.799C64.3838 64.7902 65.306 63.7891 65.6486 63.3149C65.7716 63.1481 65.9472 62.9373 66.0439 62.8407C66.2898 62.5948 66.7114 62.0767 66.9222 61.7782C67.0188 61.6376 67.1857 61.4357 67.2999 61.3215C67.5546 61.0405 67.5459 60.9615 67.1857 60.5663C66.8959 60.2589 66.5797 60.1448 66.5094 60.3204C66.4303 60.54 65.5871 61.4708 65.4641 61.4708C65.3851 61.4708 65.025 61.2074 64.6648 60.8737C64.2959 60.5487 63.7689 60.1009 63.4878 59.8638C63.198 59.6355 62.7236 59.2315 62.4162 58.9681C61.7574 58.3797 61.5291 58.3533 61.0635 58.7924Z" fill="white"/>
<path d="M16.0215 59.0559C15.6262 59.2754 15.3012 59.5652 15.0904 59.9077C14.9148 60.1799 14.8796 60.3555 14.8796 60.8736C14.8796 61.4181 14.9235 61.5849 15.1958 62.147C15.3715 62.4982 15.556 62.8144 15.5911 62.8407C15.635 62.867 15.6701 62.9549 15.6701 63.0427C15.6701 63.1305 15.7316 63.2534 15.8019 63.3149C16.1093 63.5696 15.8634 64.1052 15.4418 64.1052C15.187 64.1052 14.7215 63.7891 14.6073 63.5344C14.5634 63.4379 14.4844 63.2886 14.4229 63.2095C14.335 63.0866 14.3438 63.0076 14.4668 62.7968C14.5458 62.6563 14.6161 62.4719 14.6161 62.3753C14.6161 62.1821 13.8783 61.383 13.6938 61.383C13.6236 61.383 13.4479 61.5498 13.2986 61.7518C13.0614 62.0767 13.0351 62.1733 13.0351 62.788C13.0351 63.2886 13.0702 63.4993 13.1668 63.5784C13.2371 63.6398 13.2986 63.7364 13.2986 63.7979C13.2986 63.9823 14.3526 65.0712 14.7039 65.2469C15.0377 65.4137 15.433 65.4752 16.0303 65.44C16.285 65.4225 16.4431 65.3347 16.7944 64.9746C17.1634 64.6058 17.2424 64.4653 17.2951 64.1052C17.383 63.473 17.2775 63.0163 16.8384 62.1821C16.3553 61.2337 16.2762 60.777 16.5485 60.5048C16.8208 60.2326 17.2775 60.3292 17.7079 60.7507C18.1296 61.1634 18.235 61.7079 17.9978 62.2084C17.8661 62.4719 17.8573 62.5685 17.9451 62.7265C18.0505 62.9197 18.6741 63.4027 18.8147 63.4027C18.9552 63.4027 19.2802 62.9461 19.4559 62.4982C19.6667 61.9713 19.6316 61.541 19.3417 60.8736C19.1309 60.3819 18.0944 59.3456 17.5674 59.091C17.1634 58.8978 16.3553 58.8802 16.0215 59.0559Z" fill="white"/>
<path d="M58.3233 61.5236L57.9017 61.91L58.1388 62.2261C58.2706 62.3929 58.7186 62.9023 59.1402 63.3414C59.5618 63.7892 60.2645 64.562 60.7036 65.0713C61.784 66.3183 62.1793 66.6871 62.3286 66.5993C62.3901 66.5642 62.5921 66.4061 62.7678 66.2656C63.1718 65.9319 63.207 65.6333 62.8732 65.326C62.7414 65.2118 62.3638 64.7991 62.0212 64.4127C60.4577 62.63 59.026 61.1196 58.8942 61.1196C58.8152 61.1284 58.5604 61.304 58.3233 61.5236Z" fill="white"/>
<path d="M56.3819 63.0515C56.0482 63.2798 55.2049 63.8594 54.5198 64.3248C53.5448 64.9834 53.2637 65.2205 53.2637 65.3698C53.2637 65.5981 53.6678 66.2128 53.8171 66.2128C53.8786 66.2128 54.511 65.8177 55.2313 65.3347C55.9515 64.8517 56.584 64.4565 56.6367 64.4565C56.7772 64.4565 57.4008 65.4313 57.3745 65.5981C57.3481 65.7211 57.1812 65.8528 55.7846 66.7924C55.4421 67.0295 55.1786 67.2754 55.1434 67.3896C55.0732 67.6881 55.4245 68.2326 55.688 68.2326C55.811 68.2326 56.3731 67.9165 57.0056 67.4774C57.6116 67.0646 58.165 66.7485 58.2265 66.7749C58.3846 66.8275 58.8238 67.5915 58.7623 67.6881C58.7359 67.732 58.4373 67.9516 58.1035 68.1799C57.761 68.4082 57.4623 68.6278 57.436 68.6629C57.4096 68.7068 57.2252 68.8297 57.0231 68.9351C56.6279 69.1371 56.259 69.5147 56.2502 69.7079C56.2502 69.8923 56.6981 70.428 56.8562 70.428C56.9353 70.428 57.8049 69.8835 58.7974 69.2161C60.0359 68.3907 60.6069 67.9604 60.6244 67.8374C60.642 67.732 60.5541 67.5213 60.4312 67.3544C60.0447 66.8188 59.017 65.2996 58.9467 65.159C58.7359 64.7375 57.2339 62.6563 57.1285 62.6387C57.0583 62.63 56.7245 62.8144 56.3819 63.0515Z" fill="white"/>
<path d="M20.9139 62.9549C20.6855 63.0428 20.3078 63.2886 20.0707 63.5082C19.7281 63.8243 19.6403 63.9824 19.5524 64.3776C19.3856 65.1591 19.5964 65.7124 20.3693 66.6081C20.9842 67.3106 21.2477 67.8111 21.1247 68.0482C20.9754 68.3205 20.7119 68.3556 20.3078 68.1448C19.8072 67.8814 19.6315 67.6443 19.6227 67.2052C19.6227 66.6959 19.57 66.6081 19.1045 66.2744C18.718 65.9934 18.6829 65.9846 18.516 66.1163C18.2261 66.3534 18.1031 66.933 18.2261 67.495C18.2876 67.7585 18.3842 68.0131 18.4545 68.0658C18.516 68.1185 18.5687 68.2151 18.5687 68.2853C18.5687 68.4346 19.1923 68.9352 19.8072 69.2777C20.4396 69.6289 21.2828 69.6641 21.8274 69.3567C22.6004 68.9264 22.9078 67.9429 22.5301 67.1525C22.4247 66.933 22.2842 66.731 22.2139 66.7047C22.1436 66.6783 22.0821 66.5993 22.0821 66.529C22.0821 66.4588 21.8977 66.1953 21.6781 65.9319C20.9227 65.0537 20.8173 64.6234 21.2916 64.3688C21.5463 64.2283 21.8098 64.2634 22.3017 64.4917C22.8463 64.7552 22.9605 64.9659 22.9605 65.7299C22.9605 66.3271 23.0308 66.4588 23.4787 66.6959C23.8652 66.8891 24.0584 66.7837 24.2692 66.2392C24.4976 65.6509 24.4976 65.5279 24.3044 64.9659C24.0145 64.1405 23.1186 63.3501 22.0294 62.9725C21.4321 62.7618 21.4585 62.7618 20.9139 62.9549Z" fill="white"/>
<path d="M25.3056 65.4752C25.209 65.5718 25.2266 71.7891 25.3232 72.0438C25.411 72.2545 25.8765 72.518 26.4123 72.6585C26.6144 72.7024 26.7198 72.6585 27.0887 72.3072C27.3346 72.0789 27.5279 71.8506 27.5279 71.8067C27.5279 71.754 27.8353 71.4115 28.213 71.0427C28.5907 70.6826 29.1967 70.024 29.5744 69.5937C30.4265 68.5926 30.6021 68.3994 30.9095 68.1623C31.1291 67.9867 31.1467 67.9428 31.0501 67.7584C30.9183 67.5213 30.3913 67.2666 30.0224 67.2666C29.8116 67.2666 29.6711 67.3632 29.3373 67.7496C28.8893 68.2765 28.819 68.3028 28.4414 68.1009C28.3008 68.0306 28.1251 67.9691 28.0549 67.9691C27.9758 67.9691 27.8792 67.934 27.8353 67.8989C27.7826 67.855 27.563 67.7496 27.3258 67.6706C26.7022 67.4422 26.6495 67.3544 26.6495 66.6168C26.6495 65.8967 26.6231 65.8616 26.0346 65.642C25.4198 65.4225 25.3759 65.4049 25.3056 65.4752ZM27.5015 69.0668C27.8616 69.2161 27.8792 69.4357 27.5542 69.8133C26.9218 70.5597 26.8515 70.6299 26.7549 70.5685C26.6407 70.4982 26.6056 69.0054 26.711 68.9C26.7813 68.8297 27.0799 68.8912 27.5015 69.0668Z" fill="white"/>
<path d="M50.5411 66.3182C49.5837 66.7485 49.3202 66.9066 49.004 67.2315C48.5033 67.7408 48.3452 68.3643 48.5472 69.0756C48.7229 69.6816 49.0215 70.0855 49.4607 70.3051C49.8208 70.4895 50.6465 70.5158 51.9992 70.3841C52.6052 70.3314 52.7282 70.3402 52.8512 70.4719C53.1586 70.7705 52.9829 71.1217 52.3769 71.394C51.8674 71.6223 51.6654 71.6135 51.3492 71.3501C51.033 71.0866 50.7782 71.0778 50.3039 71.3062C49.7769 71.5608 49.7418 71.7716 50.1546 72.2019C50.5411 72.6058 51.0769 72.8781 51.4722 72.8868C52.1836 72.8868 53.6241 72.2282 54.037 71.7101C54.6255 70.9549 54.4586 69.7606 53.6856 69.2249L53.3255 68.979L51.7796 68.9966C50.0668 69.0229 49.9262 68.9878 49.9262 68.4521C49.9262 67.9955 50.5674 67.5213 51.1911 67.5125C51.5249 67.5037 51.6566 67.5564 51.9904 67.8374L52.4032 68.1711L52.9127 67.9253C53.4748 67.653 53.589 67.5125 53.4133 67.2754C53.2552 67.0559 52.5438 66.4324 52.3242 66.3094C52.087 66.1865 50.8309 66.1953 50.5411 66.3182Z" fill="white"/>
</svg>
